<svg width="287" height="258" viewBox="0 0 287 258" fill="none" xmlns="http://www.w3.org/2000/svg">
<path d="M116.455 209.757L115.629 226.259L124.296 227.91L126.772 212.232L116.455 209.757Z" fill="#9D616A"/>
<path d="M159.375 215.12L161.439 228.735H169.28L167.629 214.295L159.375 215.12Z" fill="#9D616A"/>
<path d="M118.105 177.99L116.455 196.967L114.804 213.057C114.804 213.057 120.994 210.582 126.772 214.295C126.772 214.295 130.486 213.47 129.661 197.38L133.375 180.465L118.105 177.99Z" fill="#EFEFEF"/>
<path d="M151.534 184.178C151.534 184.178 154.01 199.03 155.249 200.268C155.249 200.268 157.293 213.55 158.285 216.907C158.345 217.147 158.434 217.378 158.55 217.596C159.376 218.833 168.455 221.721 168.868 216.77C169.28 211.82 170.518 203.569 166.391 197.38L163.915 181.703L151.534 184.178Z" fill="#EFEFEF"/>
<path d="M176.503 182.322C176.09 186.86 153.391 186.035 149.264 186.035C147.96 186.035 146.285 185.833 145.451 183.58C144.023 179.731 143.239 174.107 142.975 171.909C142.868 173.947 141.926 178.881 139.574 182.041C138.142 183.972 135.773 183.588 133.169 183.147C128.844 182.412 120.247 179.739 117.899 180.259C114.185 181.084 109.715 181.166 109.645 180.259C109.613 179.763 109.616 179.265 109.653 178.769C110.198 170.238 118.105 147.109 118.105 145.397C118.105 143.335 121.82 134.671 121.82 134.671L159.788 130.133C159.788 130.133 174.827 170.687 176.895 180.671C177.072 181.534 176.536 181.963 176.503 182.322Z" fill="#EFEFEF"/>
<path d="M125.534 225.847L114.804 223.784L115.836 240.905L124.296 246.887C124.296 246.887 123.471 230.385 125.534 225.847Z" fill="#EFEFEF"/>
<path d="M169.28 224.609C169.28 224.609 163.915 227.91 159.376 224.609L163.09 239.874L169.28 239.049C169.28 239.049 172.169 229.972 169.28 224.609Z" fill="#EFEFEF"/>
<path d="M170.518 237.398C170.518 237.398 161.852 237.811 161.852 238.636V252.251C161.852 253.488 163.503 255.139 163.09 255.964C162.677 256.789 165.566 258.852 172.169 257.614C178.772 256.376 176.296 252.251 176.296 252.251C176.296 252.251 169.693 240.699 170.518 237.398Z" fill="#808CC9"/>
<path d="M114.598 237.605C114.598 237.605 124.502 237.811 124.502 238.636V252.251C124.502 253.488 122.852 255.139 123.264 255.964C123.677 256.789 120.788 258.852 114.185 257.614C107.582 256.376 110.058 252.251 110.058 252.251C110.058 252.251 115.423 240.905 114.598 237.605Z" fill="#808CC9"/>
<path d="M177.122 182.528C176.709 187.066 152.772 187.479 148.645 187.479C147.341 187.479 146.285 185.833 145.451 183.58C149.879 182.701 168.926 179.116 176.895 180.671C177.047 181.278 177.123 181.902 177.122 182.528Z" fill="#808CC9"/>
<path d="M139.574 182.041C138.142 183.972 136.186 185.238 133.582 184.797C129.257 184.062 120.247 182.214 117.899 182.734C114.185 183.559 109.715 181.166 109.645 180.259C109.613 179.763 109.616 179.265 109.653 178.769C118.341 178.534 133.726 178.637 139.574 182.041Z" fill="#808CC9"/>
<path d="M123.471 80.2126C123.471 80.2126 116.042 77.7372 109.439 85.1633L108.201 87.6387C108.201 87.6387 98.7085 90.5266 95.8196 92.5895C95.8196 92.5895 87.1529 90.5267 76.4227 92.5895L65.6924 90.1141C65.6924 90.1141 45.0574 75.6744 42.9939 84.7508C40.9304 93.8271 62.3908 97.1276 62.3908 97.1276L80.137 102.078C80.137 102.078 93.7561 105.379 99.1212 102.903C99.1212 102.903 114.391 102.078 117.28 96.3025L123.471 99.1904V80.2126Z" fill="#9D616A"/>
<path d="M149.058 78.1498C149.058 78.1498 164.328 76.4996 170.106 84.3382L182.074 87.6387C182.074 87.6387 195.281 85.1634 200.233 86.4011L210.963 83.5131C210.963 83.5131 221.281 67.0107 227.059 71.5489C232.836 76.087 213.439 90.5267 213.439 90.5267L187.439 99.1905C187.439 99.1905 167.217 100.841 163.09 93.4146L158.55 103.729L141.217 99.603L149.058 78.1498Z" fill="#9D616A"/>
<path d="M134.614 76.0869C140.768 76.0869 145.756 71.0997 145.756 64.9477C145.756 58.7958 140.768 53.8086 134.614 53.8086C128.459 53.8086 123.471 58.7958 123.471 64.9477C123.471 71.0997 128.459 76.0869 134.614 76.0869Z" fill="#9D616A"/>
<path d="M128.836 71.5488V80.6252L132.963 95.0648L145.344 80.6252C145.344 80.6252 142.042 70.7237 142.042 69.0735C142.042 67.4232 128.836 71.5488 128.836 71.5488Z" fill="#9D616A"/>
<path d="M161.645 131.164C161.645 131.164 161.443 132.653 159.565 132.789C155.806 133.066 149.475 133.705 145.344 135.083C139.153 137.146 120.582 137.146 120.582 137.146L119.377 99.7762L119.963 96.9213C119.55 93.6208 122.851 80.4188 122.851 80.4188L125.262 78.6407L127.519 78.1539L128.217 78.7686C128.217 84.2639 133.582 89.4952 133.582 89.4952C141.423 85.7821 144.725 77.5309 144.725 77.5309L147.048 77.1885L149.479 77.4607L151.679 77.7083L150.915 78.356L150.502 79.1812C150.478 79.2307 150.523 79.1316 150.502 79.1812C144.494 91.9252 151.749 97.6887 156.28 100.222C158.158 101.278 158.344 102.285 158.344 102.285C158.344 102.285 160.04 101.777 159.995 103.522C159.858 109.17 158.831 121.923 160.407 125.388C162.471 129.926 161.645 131.164 161.645 131.164Z" fill="#EFEFEF"/>
<path d="M122.852 57.4173C123.119 56.5019 123.433 55.6009 123.792 54.7179C124.263 53.6381 123.792 50.3987 124.263 50.3987H126.145L128.497 48.2391L129.909 49.3189L131.791 48.2391L134.143 49.3189L136.495 48.2391L140.259 50.9386L141.2 50.3987L142.141 52.0184H142.612L144.494 54.7179H145.435V57.4173H146.375V64.4359L145.137 69.2798L144.725 66.903C144.725 66.8706 144.714 66.839 144.695 66.8131C144.675 66.7871 144.648 66.7681 144.617 66.759C144.586 66.7499 144.552 66.751 144.522 66.7624C144.492 66.7737 144.466 66.7946 144.448 66.8219L143.553 68.2152L142.978 66.0171C142.151 62.7251 140.209 59.8209 137.482 57.7981C134.001 55.2726 128.968 54.07 123.792 61.1966L122.852 57.4173Z" fill="#2F2E41"/>
<path d="M125.262 78.6407C124.478 83.4058 122.109 96.583 119.377 99.7762L119.344 98.7779C118.931 95.4774 121.82 79.3875 121.82 79.3875L125.262 78.6407Z" fill="#808CC9"/>
<path d="M147.048 77.1885C144.976 81.0995 139.042 91.1949 133.375 90.5266C127.907 89.883 127.453 81.7225 127.519 78.1539L128.836 77.8692C128.836 83.3645 133.788 88.0512 133.788 88.0512C141.629 84.3382 144.126 76.8625 144.126 76.8625L147.048 77.1885Z" fill="#808CC9"/>
<path d="M160.614 100.841C160.614 100.841 160.568 101.946 160.523 103.691C159.375 103.63 158.235 103.453 157.122 103.163C144.374 99.801 148.101 82.4941 149.479 77.4608L151.679 77.7084H151.683C151.745 77.7661 151.811 77.828 151.877 77.8899C145.868 90.6339 152.723 96.8306 157.254 99.3637C158.318 99.9741 159.444 100.469 160.614 100.841V100.841Z" fill="#808CC9"/>
<path d="M162.677 132.608C162.677 132.608 161.443 132.653 159.565 132.789C158.624 129.335 157.871 125.831 157.312 122.294C156.767 118.482 156.941 109.104 157.122 103.163C157.172 101.608 157.217 100.284 157.254 99.3638C158.318 99.9742 159.444 100.469 160.614 100.841C160.614 100.841 160.568 101.946 160.523 103.692C160.387 109.34 160.275 121.716 161.852 125.182C163.915 129.72 162.677 132.608 162.677 132.608Z" fill="#808CC9"/>
<path d="M124.09 104.315C124.09 104.315 137.296 97.9991 150.09 104.315Z" fill="#808CC9"/>
<path d="M121.305 137.273C121.305 137.273 125.178 136.975 134.709 137.868C144.241 138.762 160.029 132.806 160.029 132.806" fill="#CACACA"/>
<path d="M69.1838 70.7231V71.006C69.1838 71.0805 69.1838 71.1579 69.1779 71.2323C69.1063 75.0922 67.7583 78.8197 65.3443 81.833C65.2221 81.9908 65.094 82.1427 64.963 82.2945C64.7664 82.5268 64.5638 82.7501 64.3553 82.9705C64.3375 82.9883 64.3196 83.0092 64.2987 83.027L64.2898 83.036C64.266 83.0598 64.2421 83.0866 64.2183 83.1104C63.8519 83.4886 63.4677 83.8509 63.0655 84.1973C62.9851 84.2658 62.9017 84.3372 62.8153 84.4057C59.7053 86.9874 55.7977 88.414 51.7553 88.4435C51.7255 88.4465 51.6928 88.4465 51.663 88.4465H51.5587C51.5289 88.4465 51.4992 88.4465 51.4694 88.4435C51.3651 88.4435 51.2638 88.4405 51.1596 88.4376C47.1164 88.3419 43.2312 86.8488 40.1652 84.2122C40.0818 84.1437 39.9983 84.0722 39.9179 83.9978C39.5992 83.7179 39.2923 83.4231 38.9975 83.1194C38.9737 83.0955 38.9498 83.0687 38.926 83.0449L38.9171 83.036C38.8962 83.0181 38.8783 82.9973 38.8604 82.9794C38.6102 82.7174 38.369 82.4464 38.1366 82.1695C38.0085 82.0176 37.8834 81.8628 37.7613 81.7049C35.4086 78.7141 34.0979 75.0366 34.0289 71.2323C34.023 71.1608 34.023 71.0864 34.023 71.012V70.735C34.023 70.7023 34.023 70.6695 34.026 70.6368C34.0682 66.8251 35.3558 63.1317 37.6928 60.1195C37.8149 59.9617 37.94 59.8068 38.0681 59.655C38.3034 59.3691 38.5506 59.0922 38.8038 58.8212C38.8217 58.8004 38.8396 58.7825 38.8604 58.7616C38.8604 58.7587 38.8634 58.7557 38.8664 58.7527C38.8902 58.7289 38.914 58.7021 38.9408 58.6783C39.2715 58.3358 39.616 58.0063 39.9744 57.6897C40.0549 57.6152 40.1383 57.5438 40.2217 57.4753C43.3569 54.8057 47.3332 53.3264 51.4515 53.2975C51.4813 53.2946 51.514 53.2946 51.5439 53.2946H51.7374C55.7606 53.3198 59.6524 54.7288 62.7587 57.2847C62.8421 57.3562 62.9255 57.4246 63.009 57.4961C63.4438 57.8653 63.8609 58.2584 64.257 58.6693C64.2809 58.6932 64.3047 58.72 64.3285 58.7438L64.3345 58.7497C64.3553 58.7676 64.3762 58.7914 64.394 58.8093C64.6145 59.0415 64.826 59.2827 65.0315 59.5269C65.1626 59.6788 65.2877 59.8306 65.4128 59.9885C67.8132 63.0231 69.1385 66.7682 69.1809 70.6368C69.1833 70.6655 69.1843 70.6943 69.1838 70.7231V70.7231Z" fill="#DB791E"/>
<path d="M51.7553 53.366H51.1596V88.503H51.7553V53.366Z" fill="white"/>
<path d="M69.1838 70.6367H33.883V71.2323H69.1838V70.6367Z" fill="white"/>
<path d="M44.0047 70.6368C43.9579 68.4668 43.3951 66.339 42.3628 64.4294C41.3305 62.5198 39.8584 60.8832 38.0681 59.655C37.94 59.8069 37.8149 59.9617 37.6928 60.1196C39.414 61.2916 40.8308 62.8572 41.8254 64.6864C42.8201 66.5155 43.364 68.5555 43.4119 70.6368C43.4149 70.7351 43.4149 70.8334 43.4149 70.9346C43.4149 71.0359 43.4149 71.1341 43.4119 71.2324C43.3636 73.2999 42.8264 75.3267 41.8443 77.1469C40.8622 78.9671 39.463 80.529 37.7613 81.705C37.8834 81.8628 38.0085 82.0177 38.1366 82.1695C39.9077 80.9377 41.3624 79.3049 42.3822 77.4042C43.402 75.5035 43.9579 73.3887 44.0047 71.2324C44.0106 71.1341 44.0106 71.0329 44.0106 70.9346C44.0106 70.8364 44.0106 70.7351 44.0047 70.6368Z" fill="white"/>
<path d="M59.503 71.2323C59.5 71.134 59.5 71.0357 59.5 70.9345C59.5 70.8332 59.5 70.735 59.503 70.6367C59.5522 68.5162 60.1157 66.4392 61.1451 64.5845C62.1745 62.7297 63.639 61.1525 65.4128 59.9884C65.2876 59.8306 65.1625 59.6787 65.0315 59.5269C63.1902 60.7475 61.6717 62.3956 60.6058 64.3302C59.5399 66.2648 58.9581 68.4286 58.9102 70.6367C58.9042 70.735 58.9042 70.8362 58.9042 70.9345C58.9042 71.0328 58.9042 71.134 58.9102 71.2323C58.9577 73.4262 59.5325 75.5766 60.5859 77.5019C61.6394 79.4272 63.1406 81.0709 64.963 82.2945C65.094 82.1426 65.2221 81.9907 65.3442 81.8329C63.5894 80.666 62.1421 79.093 61.1252 77.2476C60.1083 75.4021 59.5518 73.3386 59.503 71.2323V71.2323Z" fill="white"/>
</svg>
