<svg width="242" height="116" viewBox="0 0 242 116" fill="none" xmlns="http://www.w3.org/2000/svg">
<g id=" Logo">
<g id="Concept Logo" filter="url(#filter0_d_97:2)">
<circle id="Ellipse 5" cx="49" cy="45" r="45" fill="#80BCC9"/>
<g id="F">
<path d="M48.9629 46.9363C51.363 46.5799 53.3709 46.2591 54.9868 45.9739C56.6027 45.665 58.6582 45.2491 61.1533 44.7263C61.2959 44.7026 62.1038 44.5362 63.5771 44.2273C64.0762 44.964 64.4445 45.8313 64.6821 46.8294C64.9198 47.8274 65.0386 48.8374 65.0386 49.8592C65.0386 51.3087 64.8485 52.7107 64.4683 54.0652C64.0881 55.3959 63.6722 56.2989 63.2207 56.7742C62.5078 56.893 61.6286 56.9524 60.583 56.9524C58.7295 56.9524 56.8641 56.691 54.9868 56.1682C53.1095 55.6455 51.3154 54.8969 49.6045 53.9226L49.4263 54.1009C50.3768 56.7386 51.1016 59.0911 51.6006 61.1585C52.0996 63.2259 52.3491 65.317 52.3491 67.4319C52.3491 68.121 52.3135 68.8221 52.2422 69.5349C52.1234 70.9845 51.4342 72.2915 50.1748 73.4558C48.9391 74.6202 47.4539 75.5351 45.7192 76.2005C43.9845 76.8421 42.3687 77.1629 40.8716 77.1629C39.4933 77.1629 38.1507 76.7945 36.8438 76.0579C35.5368 75.3212 34.3843 74.4182 33.3862 73.3489C32.4119 72.2796 31.6634 71.2459 31.1406 70.2478L33.4575 65.3645H41.7627L30.7842 31.7874C30.7604 31.621 30.7485 31.3596 30.7485 31.0032C30.7485 29.4824 31.105 27.8071 31.8179 25.9773C32.5308 24.1238 33.4338 22.6386 34.5269 21.5218L50.5312 24.8723L63.1494 21.2366C64.2425 21.8069 65.0742 22.805 65.6445 24.2307C66.2148 25.6565 66.5 27.2605 66.5 29.0428C66.5 30.9438 66.1792 32.7379 65.5376 34.4251C64.896 36.1123 63.993 37.3479 62.8286 38.1321C58.1473 37.4667 52.5868 36.2073 46.147 34.3538L48.9629 46.9363Z" fill="white"/>
<path d="M48.9629 46.9363L47.987 47.1547L48.1901 48.0621L49.1098 47.9255L48.9629 46.9363ZM54.9868 45.9739L55.1606 46.9587L55.1676 46.9575L55.1746 46.9561L54.9868 45.9739ZM61.1533 44.7263L60.9889 43.74L60.9685 43.7434L60.9482 43.7476L61.1533 44.7263ZM63.5771 44.2273L64.4051 43.6665L64.0287 43.1109L63.3719 43.2486L63.5771 44.2273ZM64.4683 54.0652L65.4298 54.3399L65.4311 54.3355L64.4683 54.0652ZM63.2207 56.7742L63.3851 57.7606L63.7152 57.7056L63.9457 57.4629L63.2207 56.7742ZM49.6045 53.9226L50.0993 53.0537L49.4366 52.6763L48.8974 53.2155L49.6045 53.9226ZM49.4263 54.1009L48.7192 53.3938L48.2703 53.8426L48.4855 54.4399L49.4263 54.1009ZM52.2422 69.5349L51.2472 69.4354L51.2463 69.4443L51.2455 69.4532L52.2422 69.5349ZM50.1748 73.4558L49.4959 72.7215L49.489 72.7281L50.1748 73.4558ZM45.7192 76.2005L46.0662 77.1384L46.0774 77.1341L45.7192 76.2005ZM33.3862 73.3489L32.647 74.0224L32.6552 74.0312L33.3862 73.3489ZM31.1406 70.2478L30.2372 69.8192L30.0233 70.2699L30.2548 70.7118L31.1406 70.2478ZM33.4575 65.3645V64.3645H32.8251L32.5541 64.9359L33.4575 65.3645ZM41.7627 65.3645V66.3645H43.1418L42.7132 65.0538L41.7627 65.3645ZM30.7842 31.7874L29.7942 31.9288L29.8066 32.0152L29.8337 32.0982L30.7842 31.7874ZM31.8179 25.9773L32.7497 26.3404L32.7512 26.3363L31.8179 25.9773ZM34.5269 21.5218L34.7318 20.543L34.1955 20.4307L33.8122 20.8223L34.5269 21.5218ZM50.5312 24.8723L50.3263 25.8511L50.5694 25.902L50.8081 25.8333L50.5312 24.8723ZM63.1494 21.2366L63.612 20.35L63.2571 20.1649L62.8725 20.2757L63.1494 21.2366ZM62.8286 38.1321L62.6879 39.1222L63.0684 39.1762L63.3872 38.9615L62.8286 38.1321ZM46.147 34.3538L46.4236 33.3928L44.8028 32.9263L45.1711 34.5722L46.147 34.3538ZM49.1098 47.9255C51.515 47.5682 53.5327 47.246 55.1606 46.9587L54.813 44.9891C53.2092 45.2722 51.2109 45.5915 48.816 45.9472L49.1098 47.9255ZM55.1746 46.9561C56.7985 46.6457 58.8603 46.2285 61.3584 45.7051L60.9482 43.7476C58.4561 44.2698 56.4069 44.6843 54.799 44.9917L55.1746 46.9561ZM61.3177 45.7127C61.4872 45.6845 62.3271 45.5112 63.7824 45.206L63.3719 43.2486C61.8806 43.5613 61.1046 43.7207 60.9889 43.74L61.3177 45.7127ZM62.7492 44.7882C63.1709 45.4107 63.4955 46.1628 63.7093 47.061L65.6549 46.5978C65.3935 45.4999 64.9814 44.5173 64.4051 43.6665L62.7492 44.7882ZM63.7093 47.061C63.929 47.9835 64.0386 48.9157 64.0386 49.8592H66.0386C66.0386 48.759 65.9106 47.6714 65.6549 46.5978L63.7093 47.061ZM64.0386 49.8592C64.0386 51.2201 63.8602 52.5311 63.5055 53.795L65.4311 54.3355C65.8367 52.8904 66.0386 51.3973 66.0386 49.8592H64.0386ZM63.5067 53.7905C63.132 55.102 62.7683 55.7986 62.4957 56.0855L63.9457 57.4629C64.5761 56.7993 65.0441 55.6899 65.4298 54.3399L63.5067 53.7905ZM63.0563 55.7878C62.4159 55.8945 61.5956 55.9524 60.583 55.9524V57.9524C61.6616 57.9524 62.5998 57.8915 63.3851 57.7606L63.0563 55.7878ZM60.583 55.9524C58.8247 55.9524 57.0495 55.7046 55.2551 55.2049L54.7185 57.1316C56.6787 57.6774 58.6343 57.9524 60.583 57.9524V55.9524ZM55.2551 55.2049C53.4577 54.7044 51.7397 53.9877 50.0993 53.0537L49.1097 54.7916C50.8912 55.8061 52.7613 56.5865 54.7185 57.1316L55.2551 55.2049ZM48.8974 53.2155L48.7192 53.3938L50.1334 54.808L50.3116 54.6297L48.8974 53.2155ZM48.4855 54.4399C49.4273 57.0534 50.1402 59.3701 50.6285 61.3931L52.5727 60.9238C52.0629 58.8121 51.3263 56.4237 50.367 53.7618L48.4855 54.4399ZM50.6285 61.3931C51.1091 63.3841 51.3491 65.3965 51.3491 67.4319H53.3491C53.3491 65.2375 53.0901 63.0676 52.5727 60.9238L50.6285 61.3931ZM51.3491 67.4319C51.3491 68.0865 51.3153 68.7543 51.2472 69.4354L53.2372 69.6344C53.3117 68.8898 53.3491 68.1556 53.3491 67.4319H51.3491ZM51.2455 69.4532C51.1508 70.6093 50.6065 71.6948 49.4959 72.7216L50.8537 74.1901C52.262 72.8881 53.096 71.3596 53.2388 69.6166L51.2455 69.4532ZM49.489 72.7281C48.3567 73.795 46.9857 74.6436 45.3611 75.2668L46.0774 77.1341C47.9221 76.4266 49.5216 75.4454 50.8606 74.1836L49.489 72.7281ZM45.3723 75.2626C43.7235 75.8724 42.2261 76.1629 40.8716 76.1629V78.1629C42.5112 78.1629 44.2456 77.8117 46.0661 77.1384L45.3723 75.2626ZM40.8716 76.1629C39.6804 76.1629 38.5055 75.8466 37.3348 75.1867L36.3527 76.929C37.7959 77.7425 39.3063 78.1629 40.8716 78.1629V76.1629ZM37.3348 75.1867C36.1147 74.4991 35.0437 73.6591 34.1173 72.6666L32.6552 74.0312C33.7249 75.1773 34.9589 76.1434 36.3527 76.929L37.3348 75.1867ZM34.1254 72.6754C33.1934 71.6524 32.5002 70.6882 32.0265 69.7838L30.2548 70.7118C30.8267 71.8036 31.6305 72.9067 32.647 74.0224L34.1254 72.6754ZM32.0441 70.6765L34.361 65.7932L32.5541 64.9359L30.2372 69.8192L32.0441 70.6765ZM33.4575 66.3645H41.7627V64.3645H33.4575V66.3645ZM42.7132 65.0538L31.7347 31.4766L29.8337 32.0982L40.8122 65.6753L42.7132 65.0538ZM31.7741 31.646C31.761 31.5542 31.7485 31.3526 31.7485 31.0032H29.7485C29.7485 31.3667 29.7598 31.6879 29.7942 31.9288L31.7741 31.646ZM31.7485 31.0032C31.7485 29.6369 32.0693 28.0865 32.7496 26.3404L30.8861 25.6143C30.1406 27.5277 29.7485 29.3278 29.7485 31.0032H31.7485ZM32.7512 26.3363C33.4279 24.5768 34.2658 23.2181 35.2415 22.2212L33.8122 20.8223C32.6017 22.0591 31.6336 23.6708 30.8845 25.6183L32.7512 26.3363ZM34.3219 22.5005L50.3263 25.8511L50.7362 23.8936L34.7318 20.543L34.3219 22.5005ZM50.8081 25.8333L63.4263 22.1975L62.8725 20.2757L50.2544 23.9114L50.8081 25.8333ZM62.6868 22.1232C63.5199 22.5578 64.212 23.3419 64.7161 24.6021L66.573 23.8594C65.9365 22.268 64.9652 21.056 63.612 20.35L62.6868 22.1232ZM64.7161 24.6021C65.2322 25.8924 65.5 27.3676 65.5 29.0428H67.5C67.5 27.1535 67.1975 25.4206 66.573 23.8594L64.7161 24.6021ZM65.5 29.0428C65.5 30.8289 65.1991 32.5019 64.6029 34.0696L66.4723 34.7805C67.1593 32.9739 67.5 31.0587 67.5 29.0428H65.5ZM64.6029 34.0696C64.0138 35.6189 63.22 36.6629 62.27 37.3027L63.3872 38.9615C64.766 38.0329 65.7782 36.6057 66.4723 34.7805L64.6029 34.0696ZM62.9693 37.1421C58.3485 36.4853 52.8356 35.2383 46.4236 33.3928L45.8704 35.3148C52.3379 37.1763 57.9461 38.4482 62.6879 39.1222L62.9693 37.1421ZM45.1711 34.5722L47.987 47.1547L49.9388 46.7179L47.1228 34.1354L45.1711 34.5722Z" fill="black"/>
</g>
<mask id="mask0_97:2" style="mask-type:alpha" maskUnits="userSpaceOnUse" x="30" y="21" width="37" height="57">
<g id="F_2">
<path d="M48.9629 46.9363C51.363 46.5799 53.3709 46.2591 54.9868 45.9739C56.6027 45.665 58.6582 45.2491 61.1533 44.7263C61.2959 44.7026 62.1038 44.5362 63.5771 44.2273C64.0762 44.964 64.4445 45.8313 64.6821 46.8294C64.9198 47.8274 65.0386 48.8374 65.0386 49.8592C65.0386 51.3087 64.8485 52.7107 64.4683 54.0652C64.0881 55.3959 63.6722 56.2989 63.2207 56.7742C62.5078 56.893 61.6286 56.9524 60.583 56.9524C58.7295 56.9524 56.8641 56.691 54.9868 56.1682C53.1095 55.6455 51.3154 54.8969 49.6045 53.9226L49.4263 54.1009C50.3768 56.7386 51.1016 59.0911 51.6006 61.1585C52.0996 63.2259 52.3491 65.317 52.3491 67.4319C52.3491 68.121 52.3135 68.8221 52.2422 69.5349C52.1234 70.9845 51.4342 72.2915 50.1748 73.4558C48.9391 74.6202 47.4539 75.5351 45.7192 76.2005C43.9845 76.8421 42.3687 77.1629 40.8716 77.1629C39.4933 77.1629 38.1507 76.7945 36.8438 76.0579C35.5368 75.3212 34.3843 74.4182 33.3862 73.3489C32.4119 72.2796 31.6634 71.2459 31.1406 70.2478L33.4575 65.3645H41.7627L30.7842 31.7874C30.7604 31.621 30.7485 31.3596 30.7485 31.0032C30.7485 29.4824 31.105 27.8071 31.8179 25.9773C32.5308 24.1238 33.4338 22.6386 34.5269 21.5218L50.5312 24.8723L63.1494 21.2366C64.2425 21.8069 65.0742 22.805 65.6445 24.2307C66.2148 25.6565 66.5 27.2605 66.5 29.0428C66.5 30.9438 66.1792 32.7379 65.5376 34.4251C64.896 36.1123 63.993 37.3479 62.8286 38.1321C58.1473 37.4667 52.5868 36.2073 46.147 34.3538L48.9629 46.9363Z" fill="white"/>
<path d="M48.9629 46.9363L47.987 47.1547L48.1901 48.0621L49.1098 47.9255L48.9629 46.9363ZM54.9868 45.9739L55.1606 46.9587L55.1676 46.9575L55.1746 46.9561L54.9868 45.9739ZM61.1533 44.7263L60.9889 43.74L60.9685 43.7434L60.9482 43.7476L61.1533 44.7263ZM63.5771 44.2273L64.4051 43.6665L64.0287 43.1109L63.3719 43.2486L63.5771 44.2273ZM64.4683 54.0652L65.4298 54.3399L65.4311 54.3355L64.4683 54.0652ZM63.2207 56.7742L63.3851 57.7606L63.7152 57.7056L63.9457 57.4629L63.2207 56.7742ZM49.6045 53.9226L50.0993 53.0537L49.4366 52.6763L48.8974 53.2155L49.6045 53.9226ZM49.4263 54.1009L48.7192 53.3938L48.2703 53.8426L48.4855 54.4399L49.4263 54.1009ZM52.2422 69.5349L51.2472 69.4354L51.2463 69.4443L51.2455 69.4532L52.2422 69.5349ZM50.1748 73.4558L49.4959 72.7215L49.489 72.7281L50.1748 73.4558ZM45.7192 76.2005L46.0662 77.1384L46.0774 77.1341L45.7192 76.2005ZM33.3862 73.3489L32.647 74.0224L32.6552 74.0312L33.3862 73.3489ZM31.1406 70.2478L30.2372 69.8192L30.0233 70.2699L30.2548 70.7118L31.1406 70.2478ZM33.4575 65.3645V64.3645H32.8251L32.5541 64.9359L33.4575 65.3645ZM41.7627 65.3645V66.3645H43.1418L42.7132 65.0538L41.7627 65.3645ZM30.7842 31.7874L29.7942 31.9288L29.8066 32.0152L29.8337 32.0982L30.7842 31.7874ZM31.8179 25.9773L32.7497 26.3404L32.7512 26.3363L31.8179 25.9773ZM34.5269 21.5218L34.7318 20.543L34.1955 20.4307L33.8122 20.8223L34.5269 21.5218ZM50.5312 24.8723L50.3263 25.8511L50.5694 25.902L50.8081 25.8333L50.5312 24.8723ZM63.1494 21.2366L63.612 20.35L63.2571 20.1649L62.8725 20.2757L63.1494 21.2366ZM62.8286 38.1321L62.6879 39.1222L63.0684 39.1762L63.3872 38.9615L62.8286 38.1321ZM46.147 34.3538L46.4236 33.3928L44.8028 32.9263L45.1711 34.5722L46.147 34.3538ZM49.1098 47.9255C51.515 47.5682 53.5327 47.246 55.1606 46.9587L54.813 44.9891C53.2092 45.2722 51.2109 45.5915 48.816 45.9472L49.1098 47.9255ZM55.1746 46.9561C56.7985 46.6457 58.8603 46.2285 61.3584 45.7051L60.9482 43.7476C58.4561 44.2698 56.4069 44.6843 54.799 44.9917L55.1746 46.9561ZM61.3177 45.7127C61.4872 45.6845 62.3271 45.5112 63.7824 45.206L63.3719 43.2486C61.8806 43.5613 61.1046 43.7207 60.9889 43.74L61.3177 45.7127ZM62.7492 44.7882C63.1709 45.4107 63.4955 46.1628 63.7093 47.061L65.6549 46.5978C65.3935 45.4999 64.9814 44.5173 64.4051 43.6665L62.7492 44.7882ZM63.7093 47.061C63.929 47.9835 64.0386 48.9157 64.0386 49.8592H66.0386C66.0386 48.759 65.9106 47.6714 65.6549 46.5978L63.7093 47.061ZM64.0386 49.8592C64.0386 51.2201 63.8602 52.5311 63.5055 53.795L65.4311 54.3355C65.8367 52.8904 66.0386 51.3973 66.0386 49.8592H64.0386ZM63.5067 53.7905C63.132 55.102 62.7683 55.7986 62.4957 56.0855L63.9457 57.4629C64.5761 56.7993 65.0441 55.6899 65.4298 54.3399L63.5067 53.7905ZM63.0563 55.7878C62.4159 55.8945 61.5956 55.9524 60.583 55.9524V57.9524C61.6616 57.9524 62.5998 57.8915 63.3851 57.7606L63.0563 55.7878ZM60.583 55.9524C58.8247 55.9524 57.0495 55.7046 55.2551 55.2049L54.7185 57.1316C56.6787 57.6774 58.6343 57.9524 60.583 57.9524V55.9524ZM55.2551 55.2049C53.4577 54.7044 51.7397 53.9877 50.0993 53.0537L49.1097 54.7916C50.8912 55.8061 52.7613 56.5865 54.7185 57.1316L55.2551 55.2049ZM48.8974 53.2155L48.7192 53.3938L50.1334 54.808L50.3116 54.6297L48.8974 53.2155ZM48.4855 54.4399C49.4273 57.0534 50.1402 59.3701 50.6285 61.3931L52.5727 60.9238C52.0629 58.8121 51.3263 56.4237 50.367 53.7618L48.4855 54.4399ZM50.6285 61.3931C51.1091 63.3841 51.3491 65.3965 51.3491 67.4319H53.3491C53.3491 65.2375 53.0901 63.0676 52.5727 60.9238L50.6285 61.3931ZM51.3491 67.4319C51.3491 68.0865 51.3153 68.7543 51.2472 69.4354L53.2372 69.6344C53.3117 68.8898 53.3491 68.1556 53.3491 67.4319H51.3491ZM51.2455 69.4532C51.1508 70.6093 50.6065 71.6948 49.4959 72.7216L50.8537 74.1901C52.262 72.8881 53.096 71.3596 53.2388 69.6166L51.2455 69.4532ZM49.489 72.7281C48.3567 73.795 46.9857 74.6436 45.3611 75.2668L46.0774 77.1341C47.9221 76.4266 49.5216 75.4454 50.8606 74.1836L49.489 72.7281ZM45.3723 75.2626C43.7235 75.8724 42.2261 76.1629 40.8716 76.1629V78.1629C42.5112 78.1629 44.2456 77.8117 46.0661 77.1384L45.3723 75.2626ZM40.8716 76.1629C39.6804 76.1629 38.5055 75.8466 37.3348 75.1867L36.3527 76.929C37.7959 77.7425 39.3063 78.1629 40.8716 78.1629V76.1629ZM37.3348 75.1867C36.1147 74.4991 35.0437 73.6591 34.1173 72.6666L32.6552 74.0312C33.7249 75.1773 34.9589 76.1434 36.3527 76.929L37.3348 75.1867ZM34.1254 72.6754C33.1934 71.6524 32.5002 70.6882 32.0265 69.7838L30.2548 70.7118C30.8267 71.8036 31.6305 72.9067 32.647 74.0224L34.1254 72.6754ZM32.0441 70.6765L34.361 65.7932L32.5541 64.9359L30.2372 69.8192L32.0441 70.6765ZM33.4575 66.3645H41.7627V64.3645H33.4575V66.3645ZM42.7132 65.0538L31.7347 31.4766L29.8337 32.0982L40.8122 65.6753L42.7132 65.0538ZM31.7741 31.646C31.761 31.5542 31.7485 31.3526 31.7485 31.0032H29.7485C29.7485 31.3667 29.7598 31.6879 29.7942 31.9288L31.7741 31.646ZM31.7485 31.0032C31.7485 29.6369 32.0693 28.0865 32.7496 26.3404L30.8861 25.6143C30.1406 27.5277 29.7485 29.3278 29.7485 31.0032H31.7485ZM32.7512 26.3363C33.4279 24.5768 34.2658 23.2181 35.2415 22.2212L33.8122 20.8223C32.6017 22.0591 31.6336 23.6708 30.8845 25.6183L32.7512 26.3363ZM34.3219 22.5005L50.3263 25.8511L50.7362 23.8936L34.7318 20.543L34.3219 22.5005ZM50.8081 25.8333L63.4263 22.1975L62.8725 20.2757L50.2544 23.9114L50.8081 25.8333ZM62.6868 22.1232C63.5199 22.5578 64.212 23.3419 64.7161 24.6021L66.573 23.8594C65.9365 22.268 64.9652 21.056 63.612 20.35L62.6868 22.1232ZM64.7161 24.6021C65.2322 25.8924 65.5 27.3676 65.5 29.0428H67.5C67.5 27.1535 67.1975 25.4206 66.573 23.8594L64.7161 24.6021ZM65.5 29.0428C65.5 30.8289 65.1991 32.5019 64.6029 34.0696L66.4723 34.7805C67.1593 32.9739 67.5 31.0587 67.5 29.0428H65.5ZM64.6029 34.0696C64.0138 35.6189 63.22 36.6629 62.27 37.3027L63.3872 38.9615C64.766 38.0329 65.7782 36.6057 66.4723 34.7805L64.6029 34.0696ZM62.9693 37.1421C58.3485 36.4853 52.8356 35.2383 46.4236 33.3928L45.8704 35.3148C52.3379 37.1763 57.9461 38.4482 62.6879 39.1222L62.9693 37.1421ZM45.1711 34.5722L47.987 47.1547L49.9388 46.7179L47.1228 34.1354L45.1711 34.5722Z" fill="black"/>
</g>
</mask>
<g mask="url(#mask0_97:2)">
</g>
</g>
<g id="Frivix">
<path d="M127.903 30.9072C127.812 32.3454 127.727 33.7682 127.651 35.1758C127.574 36.5833 127.475 38.0062 127.353 39.4443L117.622 39.9492V42.8408H126.067L125.608 49.9551L117.576 50.1846L117.622 63.7705L106.01 64L106.744 30.9072H127.903ZM155.97 41.877C155.97 43.0703 155.863 44.1566 155.649 45.1357C155.45 46.0996 155.129 46.987 154.685 47.7979C154.241 48.6087 153.668 49.3584 152.964 50.0469C152.26 50.7354 151.411 51.3932 150.417 52.0205L155.878 61.751L145.551 63.7705L142.017 53.9941L139.171 54.0859L138.758 63.6328H128.89C128.967 60.1445 129.035 56.6715 129.097 53.2139C129.173 49.7562 129.257 46.2832 129.349 42.7949C129.38 41.0355 129.41 39.2913 129.441 37.5625C129.472 35.8337 129.533 34.0895 129.625 32.3301C130.695 31.9323 131.751 31.6034 132.792 31.3433C133.832 31.0832 134.872 30.8843 135.913 30.7466C136.968 30.5936 138.032 30.4941 139.103 30.4482C140.189 30.387 141.298 30.3564 142.43 30.3564C144.174 30.3564 145.857 30.6012 147.479 31.0908C149.116 31.5651 150.562 32.2842 151.816 33.248C153.071 34.2119 154.073 35.4129 154.823 36.8511C155.588 38.2892 155.97 39.9645 155.97 41.877ZM145.689 42.6113C145.689 41.9688 145.597 41.3797 145.414 40.8442C145.245 40.3088 144.985 39.8498 144.633 39.4673C144.297 39.0695 143.868 38.7635 143.348 38.5493C142.843 38.3198 142.247 38.2051 141.558 38.2051C141.252 38.2051 140.954 38.228 140.663 38.2739C140.372 38.3045 140.089 38.3581 139.814 38.4346L139.447 46.9717H139.998C140.655 46.9717 141.321 46.8875 141.994 46.7192C142.683 46.5509 143.295 46.2909 143.83 45.939C144.381 45.5871 144.825 45.1357 145.161 44.585C145.513 44.0342 145.689 43.3763 145.689 42.6113ZM169.556 31.6875L167.95 62.9443L158.265 63.4492L157.347 32.3301L169.556 31.6875ZM199.597 31.8252L191.197 62.8525L179.814 63.4951L169.487 33.5234L180.365 32.5137L184.771 49.9551L189.04 31.1367L199.597 31.8252ZM212.288 31.6875L210.681 62.9443L200.997 63.4492L200.079 32.3301L212.288 31.6875ZM241.938 32.7432L232.988 47.3848L241.066 60.4658L231.473 63.4492L226.883 54.5449L222.018 63.9541L212.104 60.374L220.549 47.0635L212.838 33.9824L223.349 31.458L227.113 39.7656L231.106 31.458L241.938 32.7432Z" fill="white"/>
<path d="M127.903 30.9072L128.901 30.9709L128.969 29.9072H127.903V30.9072ZM127.353 39.4443L127.404 40.443L128.275 40.3978L128.349 39.5291L127.353 39.4443ZM117.622 39.9492L117.57 38.9506L116.622 38.9998V39.9492H117.622ZM117.622 42.8408H116.622V43.8408H117.622V42.8408ZM126.067 42.8408L127.065 42.9052L127.134 41.8408H126.067V42.8408ZM125.608 49.9551L125.637 50.9547L126.548 50.9286L126.606 50.0195L125.608 49.9551ZM117.576 50.1846L117.548 49.185L116.573 49.2128L116.576 50.1879L117.576 50.1846ZM117.622 63.7705L117.642 64.7703L118.625 64.7509L118.622 63.7671L117.622 63.7705ZM106.01 64L105.01 63.9778L104.987 65.0204L106.03 64.9998L106.01 64ZM106.744 30.9072V29.9072H105.766L105.744 30.885L106.744 30.9072ZM126.905 30.8435C126.813 32.2848 126.729 33.7107 126.652 35.1215L128.649 35.23C128.726 33.8257 128.81 32.406 128.901 30.9709L126.905 30.8435ZM126.652 35.1215C126.576 36.5186 126.478 37.9313 126.356 39.3595L128.349 39.5291C128.472 38.0811 128.572 36.648 128.649 35.23L126.652 35.1215ZM127.301 38.4457L117.57 38.9506L117.674 40.9479L127.404 40.443L127.301 38.4457ZM116.622 39.9492V42.8408H118.622V39.9492H116.622ZM117.622 43.8408H126.067V41.8408H117.622V43.8408ZM125.069 42.7764L124.61 49.8907L126.606 50.0195L127.065 42.9052L125.069 42.7764ZM125.58 48.9555L117.548 49.185L117.605 51.1842L125.637 50.9547L125.58 48.9555ZM116.576 50.1879L116.622 63.7739L118.622 63.7671L118.576 50.1812L116.576 50.1879ZM117.602 62.7707L105.99 63.0002L106.03 64.9998L117.642 64.7703L117.602 62.7707ZM107.01 64.0222L107.744 30.9294L105.744 30.885L105.01 63.9778L107.01 64.0222ZM106.744 31.9072H127.903V29.9072H106.744V31.9072ZM155.649 45.1357L154.672 44.922L154.67 44.9337L155.649 45.1357ZM154.685 47.7979L155.562 48.2779L154.685 47.7979ZM150.417 52.0205L149.883 51.1747L149.079 51.6816L149.544 52.51L150.417 52.0205ZM155.878 61.751L156.07 62.7324L157.427 62.4671L156.75 61.2615L155.878 61.751ZM145.551 63.7705L144.611 64.1105L144.902 64.9164L145.743 64.7519L145.551 63.7705ZM142.017 53.9941L142.958 53.6542L142.711 52.9712L141.985 52.9947L142.017 53.9941ZM139.171 54.0859L139.139 53.0865L138.212 53.1164L138.172 54.0427L139.171 54.0859ZM138.758 63.6328V64.6328H139.716L139.757 63.676L138.758 63.6328ZM128.89 63.6328L127.89 63.6109L127.868 64.6328H128.89V63.6328ZM129.097 53.2139L128.097 53.1917L128.097 53.1962L129.097 53.2139ZM129.349 42.7949L130.349 42.8212L130.349 42.8123L129.349 42.7949ZM129.625 32.3301L129.276 31.3927L128.66 31.6215L128.626 32.278L129.625 32.3301ZM135.913 30.7466L136.044 31.738L136.056 31.7362L135.913 30.7466ZM139.103 30.4482L139.145 31.4474L139.159 31.4467L139.103 30.4482ZM147.479 31.0908L147.19 32.0482L147.201 32.0513L147.479 31.0908ZM151.816 33.248L151.207 34.041L151.816 33.248ZM154.823 36.8511L153.936 37.3133L153.94 37.3207L154.823 36.8511ZM145.414 40.8442L144.46 41.1441L144.463 41.1564L144.468 41.1686L145.414 40.8442ZM144.633 39.4673L143.87 40.1132L143.883 40.1291L143.897 40.1443L144.633 39.4673ZM143.348 38.5493L142.934 39.4597L142.951 39.4671L142.967 39.474L143.348 38.5493ZM140.663 38.2739L140.768 39.2684L140.793 39.2657L140.819 39.2617L140.663 38.2739ZM139.814 38.4346L139.546 37.4711L138.846 37.6656L138.815 38.3916L139.814 38.4346ZM139.447 46.9717L138.448 46.9287L138.403 47.9717H139.447V46.9717ZM141.994 46.7192L141.757 45.7478L141.752 45.7491L141.994 46.7192ZM143.83 45.939L143.292 45.0962L143.281 45.1033L143.83 45.939ZM145.161 44.585L144.318 44.0466L144.313 44.055L144.308 44.0635L145.161 44.585ZM154.97 41.877C154.97 43.0116 154.868 44.0249 154.672 44.922L156.626 45.3494C156.858 44.2883 156.97 43.129 156.97 41.877H154.97ZM154.67 44.9337C154.489 45.8066 154.201 46.5995 153.808 47.3178L155.562 48.2779C156.057 47.3745 156.411 46.3926 156.628 45.3378L154.67 44.9337ZM153.808 47.3178C153.415 48.0366 152.902 48.7081 152.265 49.332L153.663 50.7617C154.433 50.0087 155.068 49.1808 155.562 48.2779L153.808 47.3178ZM152.265 49.332C151.62 49.9627 150.829 50.5781 149.883 51.1747L150.95 52.8663C151.993 52.2084 152.9 51.508 153.663 50.7617L152.265 49.332ZM149.544 52.51L155.006 62.2405L156.75 61.2615L151.289 51.531L149.544 52.51ZM155.686 60.7696L145.359 62.7891L145.743 64.7519L156.07 62.7324L155.686 60.7696ZM146.492 63.4305L142.958 53.6542L141.077 54.3341L144.611 64.1105L146.492 63.4305ZM141.985 52.9947L139.139 53.0865L139.204 55.0854L142.049 54.9936L141.985 52.9947ZM138.172 54.0427L137.759 63.5896L139.757 63.676L140.17 54.1292L138.172 54.0427ZM138.758 62.6328H128.89V64.6328H138.758V62.6328ZM129.89 63.6547C129.966 60.1651 130.035 56.6907 130.097 53.2316L128.097 53.1962C128.036 56.6524 127.967 60.124 127.89 63.6109L129.89 63.6547ZM130.096 53.236C130.173 49.7797 130.257 46.3081 130.349 42.8212L128.349 42.7686C128.258 46.2583 128.173 49.7327 128.097 53.1917L130.096 53.236ZM130.349 42.8123C130.38 41.053 130.41 39.3089 130.441 37.5802L128.441 37.5448C128.41 39.2737 128.38 41.018 128.349 42.7775L130.349 42.8123ZM130.441 37.5802C130.471 35.863 130.532 34.1304 130.623 32.3822L128.626 32.278C128.533 34.0487 128.472 35.8043 128.441 37.5448L130.441 37.5802ZM129.973 33.2675C131.011 32.8817 132.032 32.564 133.034 32.3134L132.549 30.3731C131.471 30.6427 130.38 30.9828 129.276 31.3927L129.973 33.2675ZM133.034 32.3134C134.039 32.0623 135.042 31.8706 136.044 31.7379L135.781 29.7552C134.703 29.898 133.625 30.1041 132.549 30.3731L133.034 32.3134ZM136.056 31.7362C137.078 31.5881 138.108 31.4918 139.145 31.4473L139.06 29.4492C137.955 29.4965 136.858 29.5991 135.769 29.7569L136.056 31.7362ZM139.159 31.4467C140.226 31.3866 141.316 31.3564 142.43 31.3564V29.3564C141.28 29.3564 140.152 29.3875 139.046 29.4498L139.159 31.4467ZM142.43 31.3564C144.079 31.3564 145.665 31.5877 147.19 32.0481L147.768 30.1335C146.05 29.6148 144.269 29.3564 142.43 29.3564V31.3564ZM147.201 32.0513C148.727 32.4936 150.059 33.1589 151.207 34.041L152.426 32.4551C151.065 31.4095 149.505 30.6366 147.757 30.1303L147.201 32.0513ZM151.207 34.041C152.343 34.9139 153.252 36.001 153.936 37.3133L155.71 36.3888C154.894 34.8249 153.799 33.5099 152.426 32.4551L151.207 34.041ZM153.94 37.3207C154.616 38.591 154.97 40.0998 154.97 41.877H156.97C156.97 39.8293 156.56 37.9874 155.706 36.3815L153.94 37.3207ZM146.689 42.6113C146.689 41.8731 146.583 41.1728 146.36 40.5199L144.468 41.1686C144.611 41.5866 144.689 42.0644 144.689 42.6113H146.689ZM146.368 40.5444C146.159 39.8801 145.828 39.2894 145.369 38.7902L143.897 40.1443C144.142 40.4102 144.332 40.7374 144.46 41.1441L146.368 40.5444ZM145.397 38.8213C144.949 38.2918 144.385 37.8948 143.729 37.6246L142.967 39.474C143.352 39.6322 143.645 39.8472 143.87 40.1132L145.397 38.8213ZM143.762 37.6389C143.1 37.3379 142.356 37.2051 141.558 37.2051V39.2051C142.137 39.2051 142.587 39.3017 142.934 39.4597L143.762 37.6389ZM141.558 37.2051C141.202 37.2051 140.851 37.2318 140.507 37.2862L140.819 39.2617C141.056 39.2243 141.302 39.2051 141.558 39.2051V37.2051ZM140.558 37.2794C140.214 37.3157 139.876 37.3794 139.546 37.4711L140.082 39.3981C140.302 39.3367 140.531 39.2934 140.768 39.2684L140.558 37.2794ZM138.815 38.3916L138.448 46.9287L140.446 47.0147L140.813 38.4775L138.815 38.3916ZM139.447 47.9717H139.998V45.9717H139.447V47.9717ZM139.998 47.9717C140.742 47.9717 141.489 47.8764 142.237 47.6894L141.752 45.7491C141.153 45.8986 140.569 45.9717 139.998 45.9717V47.9717ZM142.232 47.6906C143.019 47.4981 143.739 47.1955 144.379 46.7747L143.281 45.1033C142.85 45.3862 142.346 45.6038 141.757 45.7478L142.232 47.6906ZM144.368 46.7817C145.046 46.3491 145.598 45.7885 146.014 45.1064L144.308 44.0635C144.051 44.483 143.716 44.8251 143.292 45.0963L144.368 46.7817ZM146.004 45.1234C146.475 44.386 146.689 43.534 146.689 42.6113H144.689C144.689 43.2186 144.551 43.6824 144.318 44.0466L146.004 45.1234ZM169.556 31.6875L170.555 31.7388L170.612 30.6306L169.504 30.6889L169.556 31.6875ZM167.95 62.9443L168.002 63.943L168.902 63.896L168.948 62.9957L167.95 62.9443ZM158.265 63.4492L157.266 63.4787L157.296 64.5011L158.317 64.4479L158.265 63.4492ZM157.347 32.3301L157.295 31.3315L156.319 31.3828L156.348 32.3596L157.347 32.3301ZM168.557 31.6362L166.951 62.893L168.948 62.9957L170.555 31.7388L168.557 31.6362ZM167.898 61.9457L158.213 62.4506L158.317 64.4479L168.002 63.943L167.898 61.9457ZM159.265 63.4197L158.347 32.3006L156.348 32.3596L157.266 63.4787L159.265 63.4197ZM157.4 33.3287L169.609 32.6861L169.504 30.6889L157.295 31.3315L157.4 33.3287ZM199.597 31.8252L200.562 32.0865L200.881 30.9068L199.662 30.8273L199.597 31.8252ZM191.197 62.8525L191.254 63.8509L191.974 63.8103L192.163 63.1138L191.197 62.8525ZM179.814 63.4951L178.869 63.8209L179.115 64.5362L179.871 64.4935L179.814 63.4951ZM169.487 33.5234L169.395 32.5277L168.127 32.6454L168.542 33.8492L169.487 33.5234ZM180.365 32.5137L181.335 32.2687L181.125 31.4388L180.273 31.518L180.365 32.5137ZM184.771 49.9551L183.802 50.2L185.747 50.1763L184.771 49.9551ZM189.04 31.1367L189.105 30.1388L188.254 30.0833L188.065 30.9155L189.04 31.1367ZM198.631 31.5639L190.232 62.5912L192.163 63.1138L200.562 32.0865L198.631 31.5639ZM191.141 61.8541L179.758 62.4967L179.871 64.4935L191.254 63.8509L191.141 61.8541ZM180.76 63.1693L170.433 33.1977L168.542 33.8492L178.869 63.8209L180.76 63.1693ZM169.58 34.5192L180.458 33.5094L180.273 31.518L169.395 32.5277L169.58 34.5192ZM179.396 32.7586L183.802 50.2L185.741 49.7101L181.335 32.2687L179.396 32.7586ZM185.747 50.1763L190.015 31.3579L188.065 30.9155L183.796 49.7339L185.747 50.1763ZM188.975 32.1346L199.532 32.8231L199.662 30.8273L189.105 30.1388L188.975 32.1346ZM212.288 31.6875L213.286 31.7388L213.343 30.6306L212.235 30.6889L212.288 31.6875ZM210.681 62.9443L210.733 63.943L211.634 63.896L211.68 62.9957L210.681 62.9443ZM200.997 63.4492L199.997 63.4787L200.027 64.5011L201.049 64.4479L200.997 63.4492ZM200.079 32.3301L200.026 31.3315L199.05 31.3828L199.079 32.3596L200.079 32.3301ZM211.289 31.6362L209.682 62.893L211.68 62.9957L213.286 31.7388L211.289 31.6362ZM210.629 61.9457L200.945 62.4506L201.049 64.4479L210.733 63.943L210.629 61.9457ZM201.996 63.4197L201.078 32.3006L199.079 32.3596L199.997 63.4787L201.996 63.4197ZM200.131 33.3287L212.34 32.6861L212.235 30.6889L200.026 31.3315L200.131 33.3287ZM241.938 32.7432L242.791 33.2647L243.605 31.9339L242.056 31.7501L241.938 32.7432ZM232.988 47.3848L232.135 46.8632L231.814 47.3874L232.137 47.9102L232.988 47.3848ZM241.066 60.4658L241.363 61.4207L242.594 61.0377L241.917 59.9404L241.066 60.4658ZM231.473 63.4492L230.584 63.9074L230.969 64.6533L231.77 64.4041L231.473 63.4492ZM226.883 54.5449L227.772 54.0867L226.885 52.365L225.995 54.0856L226.883 54.5449ZM222.018 63.9541L221.678 64.8947L222.503 65.1926L222.906 64.4134L222.018 63.9541ZM212.104 60.374L211.26 59.8383L210.592 60.8911L211.764 61.3146L212.104 60.374ZM220.549 47.0635L221.394 47.5992L221.721 47.0827L221.411 46.5557L220.549 47.0635ZM212.838 33.9824L212.605 33.0101L211.29 33.3258L211.977 34.4902L212.838 33.9824ZM223.349 31.458L224.26 31.0453L223.919 30.2927L223.116 30.4857L223.349 31.458ZM227.113 39.7656L226.202 40.1783L227.086 42.1297L228.014 40.1988L227.113 39.7656ZM231.106 31.458L231.224 30.465L230.514 30.3808L230.205 31.0248L231.106 31.458ZM241.085 32.2216L232.135 46.8632L233.841 47.9063L242.791 33.2647L241.085 32.2216ZM232.137 47.9102L240.215 60.9912L241.917 59.9404L233.839 46.8593L232.137 47.9102ZM240.769 59.5109L231.176 62.4943L231.77 64.4041L241.363 61.4207L240.769 59.5109ZM232.362 62.991L227.772 54.0867L225.994 55.0031L230.584 63.9074L232.362 62.991ZM225.995 54.0856L221.13 63.4948L222.906 64.4134L227.772 55.0042L225.995 54.0856ZM222.358 63.0135L212.444 59.4335L211.764 61.3146L221.678 64.8947L222.358 63.0135ZM212.948 60.9098L221.394 47.5992L219.705 46.5277L211.26 59.8383L212.948 60.9098ZM221.411 46.5557L213.7 33.4746L211.977 34.4902L219.688 47.5713L221.411 46.5557ZM213.072 34.9548L223.583 32.4304L223.116 30.4857L212.605 33.0101L213.072 34.9548ZM222.438 31.8707L226.202 40.1783L228.024 39.353L224.26 31.0453L222.438 31.8707ZM228.014 40.1988L232.007 31.8912L230.205 31.0248L226.212 39.3324L228.014 40.1988ZM230.988 32.451L241.82 33.7362L242.056 31.7501L231.224 30.465L230.988 32.451Z" fill="black"/>
</g>
</g>
<defs>
<filter id="filter0_d_97:2" x="0" y="0" width="98" height="98" filterUnits="userSpaceOnUse" color-interpolation-filters="sRGB">
<feFlood flood-opacity="0" result="BackgroundImageFix"/>
<feColorMatrix in="SourceAlpha" type="matrix" values="0 0 0 0 0 0 0 0 0 0 0 0 0 0 0 0 0 0 127 0" result="hardAlpha"/>
<feOffset dy="4"/>
<feGaussianBlur stdDeviation="2"/>
<feComposite in2="hardAlpha" operator="out"/>
<feColorMatrix type="matrix" values="0 0 0 0 0 0 0 0 0 0 0 0 0 0 0 0 0 0 0.25 0"/>
<feBlend mode="normal" in2="BackgroundImageFix" result="effect1_dropShadow_97:2"/>
<feBlend mode="normal" in="SourceGraphic" in2="effect1_dropShadow_97:2" result="shape"/>
</filter>
</defs>
</svg>
