<svg width="144" height="94" viewBox="0 0 144 94" fill="none" xmlns="http://www.w3.org/2000/svg">
<g id="Users">
<g id="User Icon">
<ellipse id="Head " cx="22.9021" cy="13.0864" rx="13.087" ry="13.0864" fill="#C4C4C4"/>
<path id="Body" d="M0 47.5219C0 37.538 8.09358 29.4444 18.0775 29.4444H27.0725C37.0564 29.4444 45.15 37.538 45.15 47.5219V47.5219C45.15 50.5474 42.6974 53 39.672 53H5.47804C2.4526 53 0 50.5474 0 47.5219V47.5219Z" fill="#C4C4C4"/>
</g>
<g id="User Icon_2">
<ellipse id="Head _2" cx="120.902" cy="13.0864" rx="13.087" ry="13.0864" fill="#C4C4C4"/>
<path id="Body_2" d="M98 47.5219C98 37.538 106.094 29.4444 116.078 29.4444H125.072C135.056 29.4444 143.15 37.538 143.15 47.5219V47.5219C143.15 50.5474 140.697 53 137.672 53H103.478C100.453 53 98 50.5474 98 47.5219V47.5219Z" fill="#C4C4C4"/>
</g>
<g id="User Icon_3">
<circle id="Head _3" cx="72" cy="33" r="20" fill="#C4C4C4"/>
<path id="Body_3" d="M37 85.6279C37 70.3694 49.3694 58 64.6279 58H78.3721C93.6306 58 106 70.3694 106 85.6279V85.6279C106 90.2517 102.252 94 97.6279 94H45.3721C40.7483 94 37 90.2517 37 85.6279V85.6279Z" fill="#C4C4C4"/>
</g>
</g>
</svg>
