<svg width="116" height="213" viewBox="0 0 116 213" fill="none" xmlns="http://www.w3.org/2000/svg">
<path d="M54.5654 143.474V141.798C54.6017 141.303 54.6017 140.805 54.5654 140.31V3.30294C54.5654 2.45272 54.2908 1.63732 53.8018 1.03612C53.3129 0.434918 52.6498 0.097168 51.9583 0.097168C51.2669 0.097168 50.6038 0.434918 50.1148 1.03612C49.6259 1.63732 49.3512 2.45272 49.3512 3.30294V140.31C49.315 140.805 49.315 141.303 49.3512 141.798V143.474L22.9583 209.874C23.5809 210.64 24.3199 211.247 25.1333 211.661C25.9466 212.076 26.8184 212.289 27.6988 212.289C28.5791 212.289 29.4509 212.076 30.2643 211.661C31.0776 211.247 31.8167 210.64 32.4392 209.874L49.3512 157.112V209.083C49.3512 209.933 49.6259 210.749 50.1148 211.35C50.6038 211.951 51.2669 212.289 51.9583 212.289C52.6498 212.289 53.3129 211.951 53.8018 211.35C54.2908 210.749 54.5654 209.933 54.5654 209.083V157.112L71.4775 209.874C72.1 210.64 72.8391 211.247 73.6524 211.661C74.4658 212.076 75.3375 212.289 76.2179 212.289C77.0983 212.289 77.9701 212.076 78.7834 211.661C79.5968 211.247 80.3358 210.64 80.9583 209.874L54.5654 143.474Z" fill="#E6E6E6"/>
<path d="M114.333 147.344C113.746 147.967 113.089 148.483 112.381 148.876C110.414 149.979 108.217 150.32 106.086 149.851C105.969 149.824 105.847 149.798 105.729 149.765C105.756 149.473 105.779 149.178 105.808 148.888C105.999 146.941 106.308 145 107.018 143.249C107.846 141.203 109.305 139.423 111.135 138.929C112.963 138.432 115.113 139.512 115.78 141.647C115.969 142.268 116.038 142.934 115.981 143.593C115.729 143.66 115.481 143.723 115.229 143.79C115.207 143.797 115.184 143.802 115.161 143.805C114.942 143.864 114.722 143.918 114.502 143.977C113.595 144.213 112.688 144.454 111.783 144.687C112.331 145.461 112.95 146.158 113.628 146.762C113.682 146.81 113.739 146.86 113.793 146.908C113.968 147.058 114.149 147.207 114.333 147.344Z" fill="#E6E6E6"/>
<path d="M95.5616 151.851L93.5002 154.567L92.9426 155.304C92.9124 155.223 92.8794 155.138 92.8492 155.057C91.8006 152.249 91.2484 149.197 91.2297 146.105C91.2109 143.012 91.7259 139.95 92.7402 137.124C93.0984 136.149 93.5159 135.21 93.9892 134.314C95.0112 135.045 96.0381 135.775 97.06 136.506C97.094 134.589 96.8144 132.684 96.2381 130.905C98.3613 128.247 101.008 126.32 103.917 125.312C100.998 130.399 103.1 137.57 101.686 143.553C101.235 145.417 100.45 147.13 99.3893 148.567C98.329 150.003 97.0207 151.126 95.5616 151.851V151.851Z" fill="#E6E6E6"/>
<path d="M78.2168 177.048C77.9956 176.844 77.7788 176.632 77.5712 176.413C75.7679 174.533 74.2837 172.201 73.2095 169.561C72.1353 166.921 71.4938 164.028 71.3243 161.059C71.2049 158.628 71.4134 156.188 71.9407 153.848C71.9619 153.864 71.9804 153.877 72.0017 153.893C72.9937 154.627 73.9906 155.36 74.9826 156.094C75.0274 153.567 74.5453 151.07 73.5859 148.86C74.3828 147.086 75.375 145.469 76.532 144.057C75.9128 150.267 80.3627 155.398 81.3621 161.523C81.8251 164.466 81.4803 167.523 80.3859 170.178C80.1163 170.835 79.8006 171.459 79.4428 172.043C79.358 172.185 79.2725 172.321 79.1844 172.454L79.1315 172.709L78.2168 177.048Z" fill="#E6E6E6"/>
<path d="M84.1623 190.705C82.9934 191.011 81.8199 191.325 80.651 191.631C81.2674 192.511 81.969 193.295 82.7401 193.965C80.2109 196.195 77.2521 197.571 74.1575 197.956C73.8675 197.992 73.5741 198.018 73.2847 198.031C73.2255 198.036 73.1634 198.038 73.1042 198.043L73.3004 197.355L73.2998 197.349L74.366 193.523C74.1547 191.063 74.5172 188.581 75.4111 186.367L75.4157 186.36C75.9313 185.056 76.6266 183.873 77.4707 182.862C81.1314 178.481 87.323 177.414 89.6221 171.8C90.2598 175.435 90.1309 179.21 89.2475 182.767C88.3043 183.014 87.3617 183.268 86.4207 183.512C86.9908 184.326 87.6341 185.058 88.3381 185.693C87.8024 187.114 87.1394 188.456 86.3613 189.695C86.2499 189.873 86.1379 190.045 86.0208 190.217C85.4252 190.376 84.8291 190.53 84.2335 190.689C84.21 190.696 84.1862 190.701 84.1623 190.705V190.705Z" fill="#E6E6E6"/>
<path d="M100.308 120.814H4.21327C3.09625 120.812 2.02534 120.261 1.23547 119.282C0.445606 118.303 0.00128904 116.976 0 115.591V32.3122C0.00124264 30.9276 0.445539 29.6001 1.23541 28.621C2.02529 27.6419 3.09623 27.0911 4.21327 27.0896H100.308C101.425 27.0912 102.496 27.6419 103.285 28.621C104.075 29.6001 104.52 30.9276 104.521 32.3122V115.591C104.52 116.976 104.075 118.303 103.285 119.282C102.496 120.261 101.425 120.812 100.308 120.814Z" fill="#F2F2F2"/>
<path d="M66.2629 32.3383H37.6538C35.84 32.3359 34.1011 31.4816 32.8185 29.963C31.536 28.4444 30.8145 26.3855 30.8125 24.2379V24.0906H73.1042V24.2379C73.1021 26.3855 72.3807 28.4444 71.0981 29.963C69.8156 31.4816 68.0767 32.3359 66.2629 32.3383Z" fill="#E6E6E6"/>
<path d="M66.3606 126.063H38.1602C36.3723 126.06 34.6583 125.206 33.394 123.687C32.1298 122.169 31.4187 120.11 31.4167 117.962V117.815H73.1042V117.962C73.1021 120.11 72.391 122.169 71.1268 123.687C69.8625 125.206 68.1485 126.06 66.3606 126.063Z" fill="#E6E6E6"/>
<path d="M59.8125 105.146C59.8125 110.376 56.7573 104.515 52.6854 104.515C50.73 104.515 48.8547 103.517 47.472 101.741C46.0893 99.9646 45.3125 97.5558 45.3125 95.044C45.3125 92.5323 46.0893 90.1234 47.472 88.3473C48.8547 86.5713 50.73 85.5735 52.6854 85.5735C56.7573 85.5735 59.8125 99.9155 59.8125 105.146Z" fill="#808CC9"/>
<path d="M30.8125 58.6809C30.8125 61.0936 30.0834 63.4076 28.7855 65.1137C27.4877 66.8198 25.7275 67.7782 23.892 67.7782C20.07 67.7782 18.125 77.9577 18.125 72.9334C18.125 67.9091 20.07 49.5835 23.892 49.5835C25.7275 49.5835 27.4877 50.542 28.7855 52.2481C30.0834 53.9541 30.8125 56.2681 30.8125 58.6809V58.6809Z" fill="#808CC9"/>
<path d="M21.0908 48.7173C22.1648 47.9407 23.4797 48.2078 24.4998 48.9946C25.6601 49.8895 26.3021 51.4308 26.585 53.0486C26.8687 54.7872 26.8639 56.5792 26.5708 58.3153C26.2941 59.9896 25.5855 61.7684 24.1479 62.2489C23.1897 62.5692 22.119 62.1564 21.7696 60.9308C21.6352 60.4386 21.6053 59.9118 21.6828 59.4012C21.7604 58.8905 21.9428 58.4132 22.2124 58.0154C23.0189 56.8902 24.4249 56.8322 25.4808 57.3936C26.7226 58.054 27.4797 59.5445 27.7986 61.122C28.1779 62.9974 27.939 64.9427 27.5399 66.781C27.1061 68.7791 26.5319 70.7324 26.0154 72.6991C25.0081 76.5344 24.0813 80.4423 23.8403 84.4842C23.4722 90.6587 25.112 97.7832 29.664 101.095C32.1212 102.883 35.0782 103.168 37.829 102.462C40.73 101.717 43.3209 99.8598 45.5708 97.5158C46.7399 96.2767 47.84 94.9411 48.8637 93.518C49.1721 93.0572 49.584 92.7204 50.0472 92.5506C50.5103 92.3807 51.0037 92.3854 51.4647 92.564C53.8313 93.4964 53.3953 98.1935 51.0538 98.7697C49.9898 99.0315 48.8365 98.397 48.0489 97.5402C47.1871 96.5646 46.584 95.2883 46.3189 93.8794C45.7234 90.9175 46.4188 87.6569 47.8318 85.2099C49.4282 82.4454 52.012 80.7241 54.5689 79.7003C57.48 78.5347 60.5286 78.1912 63.556 77.8111C66.654 77.422 69.7849 76.9682 72.71 75.5711C75.0638 74.4373 77.2501 72.8288 79.1805 70.8106C83.0717 66.7764 85.8279 61.3132 87.0509 55.2101C87.3358 53.7349 87.5205 52.2327 87.6031 50.7192C87.6358 50.1267 86.8916 50.1292 86.859 50.7192C86.4947 57.3168 84.0288 63.5926 80.2992 68.2776C78.4391 70.6247 76.2613 72.5489 73.8647 73.9627C70.9775 75.6542 67.8386 76.3188 64.6869 76.7425C61.4681 77.1752 58.2086 77.4305 55.0814 78.5425C52.3169 79.5256 49.5603 81.1929 47.6771 83.965C46.0166 86.4093 45.1066 89.7626 45.4306 92.9569C45.7322 95.9291 47.2607 98.9891 49.7723 99.6351C50.9508 99.9383 52.1706 99.5525 52.9568 98.3784C53.3928 97.7102 53.671 96.9053 53.7605 96.0531C53.85 95.2008 53.7473 94.3344 53.4638 93.5501C53.102 92.7032 52.499 92.0535 51.7721 91.7274C51.0452 91.4013 50.2464 91.4221 49.5312 91.7858C49.0081 92.084 48.5466 92.526 48.1819 93.0783C46.0351 95.9965 43.5983 98.7202 40.6651 100.356C37.9292 101.882 34.7068 102.455 31.8134 101.288C26.3357 99.0784 24.2374 91.3142 24.5676 84.79C24.7837 80.5203 25.8183 76.3963 26.888 72.356C27.4343 70.2929 28.0563 68.2353 28.4399 66.1135C28.7833 64.2138 28.8883 62.2012 28.388 60.3276C27.9513 58.6924 27.0716 57.2363 25.769 56.551C24.5858 55.9286 23.1357 55.9432 22.0779 56.9248C20.5486 58.3441 20.4085 61.8632 22.2974 62.9556C23.5507 63.6804 25.0605 63.1162 25.9849 61.9125C27.0213 60.563 27.3586 58.661 27.4753 56.8611C27.6958 53.4599 27.0908 49.3574 24.3004 47.8227C23.1508 47.1904 21.8237 47.1192 20.7152 47.9208C20.6336 47.9847 20.5752 48.0854 20.5523 48.2017C20.5294 48.3179 20.5438 48.4407 20.5925 48.544C20.6413 48.6474 20.7204 48.7232 20.8134 48.7555C20.9064 48.7878 21.0058 48.7742 21.0908 48.7173Z" fill="#3F3D56"/>
<path d="M88.0537 53.6267C88.0537 58.9902 94.8612 72.666 92.5706 76.7718C92.2868 77.2847 91.9865 77.7833 91.6697 78.2676C90.6454 79.852 89.4702 81.2777 88.1697 82.5139C87.9501 82.7275 87.7279 82.9321 87.5033 83.1305C86.7051 83.8305 85.8679 84.4599 84.998 85.014C84.8401 85.1117 84.6796 85.2093 84.5192 85.307C80.1211 87.9214 75.1157 88.5211 70.3936 86.9994C65.6716 85.4778 61.5392 81.9334 58.7318 76.9972C55.9245 72.0609 54.6242 66.0529 55.0625 60.0422C55.5007 54.0316 57.649 48.4082 61.1251 44.1727C61.3078 43.9468 61.4954 43.727 61.6879 43.5102C63.5975 41.3461 65.821 39.6485 68.2411 38.507C68.2436 38.507 68.2436 38.5039 68.246 38.5039C71.8755 36.7994 75.8194 36.3922 79.6271 37.3286H79.6321C79.716 37.35 79.7999 37.3714 79.8838 37.3958C89.2064 39.8349 88.0537 41.3703 88.0537 53.6267Z" fill="#808CC9"/>
<path d="M85.1857 84.4129C85.1887 84.4517 85.1879 84.4909 85.1832 84.5295C85.0212 84.6276 84.8567 84.7257 84.6922 84.8239C84.6188 84.7961 84.554 84.7419 84.5066 84.6685C84.4591 84.5951 84.4312 84.506 84.4265 84.4129C84.395 83.9496 84.3211 83.4919 84.2063 83.0483C83.2194 79.1966 79.7573 77.2278 76.7357 76.5317C73.0383 75.6761 69.1486 76.0318 65.6309 74.1826C64.1886 73.4714 62.9109 72.3452 61.9083 70.9013C60.859 69.311 60.3318 67.3068 60.4278 65.274C60.6353 60.4932 63.4166 56.7519 64.3681 52.2408C64.7604 50.3825 64.7604 48.4443 64.0619 46.6902C63.4697 45.1998 62.4068 43.8904 60.9896 43.7064C60.9324 43.7013 60.877 43.6801 60.8278 43.6444C60.7786 43.6087 60.7369 43.5596 60.7062 43.5009C60.8935 43.274 61.0858 43.0532 61.2832 42.8354C61.5399 42.8819 61.7918 42.9611 62.0348 43.0716C63.4216 43.7156 64.3858 45.1722 64.9274 46.8067C65.5525 48.6989 65.4943 50.7351 65.059 52.6763C64.0442 57.2026 61.063 61.131 61.1794 66.01C61.2807 70.2389 64.3276 72.8762 67.3999 73.9925C71.201 75.3725 75.3185 74.7193 79.0791 76.317C82.0375 77.5743 84.9099 80.3864 85.1857 84.4129Z" fill="#3F3D56"/>
<path d="M88.2058 82.692C87.9864 82.9111 87.7645 83.1209 87.5401 83.3244C87.51 83.2836 87.4872 83.2351 87.4732 83.1822C87.4592 83.1293 87.4542 83.0731 87.4587 83.0176C87.582 78.9681 86.4821 75.0117 84.384 71.9576C83.4756 70.6164 82.3952 69.4797 81.1885 68.5955C79.9261 67.6783 78.5404 67.1868 77.167 66.6171C75.8158 66.0567 74.4424 65.3774 73.4093 64.0971C72.3565 62.7916 71.8387 61.0229 71.6809 59.1947C71.3085 54.8622 73.0173 50.8802 73.1553 46.6134C73.217 44.7101 72.8866 42.86 71.957 41.3292C71.1532 40.0081 69.9672 39.1065 68.6234 39.3069C68.1796 39.3758 68.1574 38.5493 68.542 38.3897C68.5685 38.3788 68.5958 38.3714 68.6234 38.3678C70.1867 38.1361 71.6044 39.2255 72.534 40.7532C73.6164 42.5281 73.9912 44.6913 73.8827 46.9045C73.6707 51.187 71.8954 55.3036 72.4723 59.6549C72.5714 60.5703 72.8207 61.449 73.2043 62.2341C73.5878 63.0193 74.097 63.6935 74.6988 64.2129C75.9366 65.2491 77.3988 65.7155 78.7943 66.2915C80.1868 66.8312 81.5027 67.6491 82.6926 68.7145C83.8569 69.7966 84.8774 71.1081 85.7155 72.5994C87.3876 75.5305 88.2618 79.0736 88.2058 82.692V82.692Z" fill="#3F3D56"/>
<path d="M92.3996 76.5447C92.1118 77.0696 91.8073 77.5799 91.4862 78.0757C91.8208 75.6483 91.7467 73.1605 91.2685 70.7709C90.6842 67.7626 89.5015 64.9869 87.83 62.7006C86.9926 61.5627 86.0284 60.5809 84.9671 59.7856C83.7534 58.8795 82.4271 58.114 81.5688 56.6518C79.7069 53.4775 80.9631 49.3345 81.5637 45.9227C81.8791 44.1418 82.0492 42.2453 81.4661 40.5207C81.0132 39.1834 80.1173 37.9305 78.9011 37.7775C78.4231 37.7181 78.4206 36.7777 78.9011 36.8401C78.9912 36.8526 79.0813 36.8683 79.1714 36.887C80.5002 37.1869 81.5237 38.4242 82.0793 39.9489C82.8 41.9391 82.6573 44.0887 82.2895 46.1727C81.6839 49.6001 80.28 54.1398 82.79 56.9393C83.8485 58.1203 85.2224 58.7733 86.3635 59.8199C87.3861 60.7531 88.302 61.8557 89.0863 63.0974C91.4888 66.9114 92.6697 71.7043 92.3996 76.5447Z" fill="#3F3D56"/>
</svg>
