<svg xmlns="http://www.w3.org/2000/svg" version="1.1" xmlns:xlink="http://www.w3.org/1999/xlink" xmlns:svgjs="http://svgjs.com/svgjs" width="1440" height="5000" preserveAspectRatio="none" viewBox="0 0 1440 5000"><g mask="url(&quot;#SvgjsMask1004&quot;)" fill="none"><rect width="1440" height="5000" x="0" y="0" fill="url(#SvgjsLinearGradient1005)"></rect><path d="M1464 5000L0 5000 L0 4743.88Q-308.33 4315.55, 120 4007.22Q246.87 4062.09, 192 4188.96Q113.95 3990.91, 312 3912.87Q6.5 3487.37, 432 3181.87Q1582.19 4212.06, 552 5362.25Q104.81 4843.06, 624 4395.87Q1373.52 5073.39, 696 5822.9Q666.8 5721.7, 768 5692.5Q-368.47 4436.03, 888 3299.56Q1452.57 3792.13, 960 4356.7Q1472.44 4749.14, 1080 5261.57Q-21.57 4088.01, 1152 2986.44Q2304.68 4019.13, 1272 5171.81Q1197.36 4977.18, 1392 4902.54Q684.22 4122.76, 1464 3414.97z" fill="rgba(255, 255, 255, 1)"></path></g><defs><mask id="SvgjsMask1004"><rect width="1440" height="5000" fill="#ffffff"></rect></mask><linearGradient x1="0%" y1="50%" x2="100%" y2="50%" gradientUnits="userSpaceOnUse" id="SvgjsLinearGradient1005"><stop stop-color="rgba(128, 188, 201, 1)" offset="0"></stop><stop stop-color="rgba(128, 188, 201, 1)" offset="0"></stop><stop stop-color="rgba(128, 188, 201, 1)" offset="1"></stop></linearGradient></defs></svg>