<svg width="233" height="38" viewBox="0 0 233 38" fill="none" xmlns="http://www.w3.org/2000/svg">
<g id="Coming Soon...">
<path d="M0.793945 20.0301V9.69508C0.793945 6.52308 1.65195 4.19608 3.36795 2.71408C5.10995 1.23208 7.37195 0.491082 10.1539 0.491082C13.0139 0.491082 15.3539 1.18008 17.1739 2.55808C19.0199 3.93608 19.9429 5.83408 19.9429 8.25208C19.9429 9.37008 19.7089 10.1371 19.2409 10.5531C18.7729 10.9431 17.9929 11.1381 16.9009 11.1381C14.9509 11.1381 13.9369 10.5271 13.8589 9.30508C13.7809 6.96508 12.6239 5.79508 10.3879 5.79508C8.04795 5.79508 6.87795 7.09508 6.87795 9.69508V20.0301C6.87795 22.6301 8.06094 23.9301 10.4269 23.9301C11.1549 23.9301 11.7529 23.8131 12.2209 23.5791C12.7149 23.3451 13.0659 22.9941 13.2739 22.5261C13.4819 22.0321 13.6119 21.6291 13.6639 21.3171C13.7419 21.0051 13.8069 20.5761 13.8589 20.0301C13.9629 18.8081 14.9639 18.1971 16.8619 18.1971C17.9799 18.1971 18.7729 18.4051 19.2409 18.8211C19.7089 19.2111 19.9429 19.9651 19.9429 21.0831C19.9429 23.6051 19.0199 25.5941 17.1739 27.0501C15.3539 28.5061 13.0139 29.2341 10.1539 29.2341C7.37195 29.2341 5.10995 28.4931 3.36795 27.0111C1.65195 25.5291 0.793945 23.2021 0.793945 20.0301Z" fill="#6C63FF"/>
<path d="M21.9524 21.1221V18.3921C21.9524 16.1821 22.8234 14.2711 24.5654 12.6591C26.3074 11.0211 28.3874 10.2021 30.8054 10.2021C33.1974 10.2021 35.2774 11.0081 37.0454 12.6201C38.8134 14.2321 39.6974 16.1561 39.6974 18.3921V21.1221C39.6974 23.3061 38.8004 25.2301 37.0064 26.8941C35.2384 28.5581 33.1714 29.3901 30.8054 29.3901C28.4394 29.3901 26.3724 28.5581 24.6044 26.8941C22.8364 25.2301 21.9524 23.3061 21.9524 21.1221ZM27.9974 21.1221C27.9974 21.9021 28.2704 22.6041 28.8164 23.2281C29.3624 23.8261 30.0254 24.1251 30.8054 24.1251C31.5854 24.1251 32.2484 23.8261 32.7944 23.2281C33.3664 22.6041 33.6524 21.9021 33.6524 21.1221V18.3921C33.6524 17.6381 33.3664 16.9621 32.7944 16.3641C32.2224 15.7661 31.5594 15.4671 30.8054 15.4671C30.0514 15.4671 29.3884 15.7661 28.8164 16.3641C28.2704 16.9621 27.9974 17.6381 27.9974 18.3921V21.1221Z" fill="#6C63FF"/>
<path d="M42.4971 27.1281V12.2691C42.4971 11.7231 42.7701 11.2811 43.3161 10.9431C43.8881 10.6051 44.6161 10.4361 45.5001 10.4361C46.2281 10.4361 46.8521 10.6051 47.3721 10.9431C47.8921 11.2811 48.1521 11.7231 48.1521 12.2691V13.1661C49.2701 11.1901 50.9861 10.2021 53.3001 10.2021C54.3401 10.2021 55.2631 10.5661 56.0691 11.2941C56.9011 11.9961 57.5121 12.9321 57.9021 14.1021C58.5521 12.8281 59.3971 11.8661 60.4371 11.2161C61.4771 10.5401 62.5821 10.2021 63.7521 10.2021C65.7021 10.2021 67.3661 10.9431 68.7441 12.4251C70.1481 13.9071 70.8501 15.8961 70.8501 18.3921V27.1281C70.8501 27.5961 70.5511 28.0251 69.9531 28.4151C69.3551 28.8051 68.6401 29.0001 67.8081 29.0001C67.0281 29.0001 66.3261 28.8051 65.7021 28.4151C65.1041 28.0251 64.8051 27.5961 64.8051 27.1281V18.3921C64.8051 17.4561 64.5451 16.7281 64.0251 16.2081C63.5051 15.6881 62.8941 15.4281 62.1921 15.4281C61.5161 15.4281 60.9311 15.6881 60.4371 16.2081C59.9431 16.7281 59.6961 17.4561 59.6961 18.3921V27.1671C59.6961 27.7651 59.3971 28.2201 58.7991 28.5321C58.2011 28.8441 57.4861 29.0001 56.6541 29.0001C55.8741 29.0001 55.1721 28.8441 54.5481 28.5321C53.9501 28.2201 53.6511 27.7651 53.6511 27.1671V18.4311C53.6511 17.5211 53.3781 16.8061 52.8321 16.2861C52.3121 15.7401 51.7011 15.4671 50.9991 15.4671C50.3231 15.4671 49.7381 15.7271 49.2441 16.2471C48.7761 16.7411 48.5421 17.4561 48.5421 18.3921V27.1281C48.5421 27.5961 48.2301 28.0251 47.6061 28.4151C47.0081 28.8051 46.3061 29.0001 45.5001 29.0001C44.6421 29.0001 43.9271 28.8181 43.3551 28.4541C42.7831 28.0641 42.4971 27.6221 42.4971 27.1281Z" fill="#6C63FF"/>
<path d="M74.9637 6.02908C74.3397 5.45708 74.0277 4.79408 74.0277 4.04008C74.0277 3.28608 74.3397 2.63608 74.9637 2.09008C75.5877 1.54408 76.3417 1.27108 77.2257 1.27108C78.0837 1.27108 78.8247 1.54408 79.4487 2.09008C80.0727 2.63608 80.3847 3.28608 80.3847 4.04008C80.3847 4.79408 80.0727 5.45708 79.4487 6.02908C78.8247 6.57508 78.0837 6.84808 77.2257 6.84808C76.3417 6.84808 75.5877 6.57508 74.9637 6.02908ZM74.2227 27.1281V12.2691C74.2227 11.7231 74.4957 11.2811 75.0417 10.9431C75.6137 10.6051 76.3417 10.4361 77.2257 10.4361C78.0837 10.4361 78.7987 10.6051 79.3707 10.9431C79.9687 11.2811 80.2677 11.7231 80.2677 12.2691V27.1281C80.2677 27.5961 79.9687 28.0251 79.3707 28.4151C78.7727 28.8051 78.0577 29.0001 77.2257 29.0001C76.3677 29.0001 75.6527 28.8181 75.0807 28.4541C74.5087 28.0641 74.2227 27.6221 74.2227 27.1281Z" fill="#6C63FF"/>
<path d="M83.7442 27.1281V12.2691C83.7442 11.7231 84.0172 11.2811 84.5632 10.9431C85.1352 10.6051 85.8632 10.4361 86.7472 10.4361C87.4752 10.4361 88.0992 10.6051 88.6192 10.9431C89.1392 11.2811 89.3992 11.7231 89.3992 12.2691V13.1661C89.8152 12.3341 90.4782 11.6321 91.3882 11.0601C92.3242 10.4881 93.4032 10.2021 94.6252 10.2021C96.4192 10.2021 97.9662 11.0081 99.2662 12.6201C100.592 14.2321 101.255 16.1561 101.255 18.3921V27.1281C101.255 27.7261 100.956 28.1941 100.358 28.5321C99.7602 28.8441 99.0452 29.0001 98.2132 29.0001C97.4332 29.0001 96.7312 28.8311 96.1072 28.4931C95.5092 28.1551 95.2102 27.7001 95.2102 27.1281V18.3921C95.2102 17.6381 94.9242 16.9621 94.3522 16.3641C93.8062 15.7661 93.1562 15.4671 92.4022 15.4671C91.7262 15.4671 91.1152 15.7401 90.5692 16.2861C90.0492 16.8061 89.7892 17.5081 89.7892 18.3921V27.1281C89.7892 27.5961 89.4772 28.0251 88.8532 28.4151C88.2552 28.8051 87.5532 29.0001 86.7472 29.0001C85.8892 29.0001 85.1742 28.8181 84.6022 28.4541C84.0302 28.0641 83.7442 27.6221 83.7442 27.1281Z" fill="#6C63FF"/>
<path d="M103.29 31.8081C103.29 30.0921 104.161 28.7401 105.903 27.7521C104.967 27.2061 104.499 26.4001 104.499 25.3341C104.499 24.1901 105.162 23.1371 106.488 22.1751C104.798 20.9271 103.953 19.2761 103.953 17.2221V16.6371C103.953 14.7391 104.681 13.1921 106.137 11.9961C107.619 10.8001 109.556 10.2021 111.948 10.2021C113.586 10.2021 115.055 10.5141 116.355 11.1381C116.797 10.0721 117.187 9.35708 117.525 8.99308C117.863 8.60308 118.214 8.40808 118.578 8.40808C119.254 8.40808 119.8 8.61608 120.216 9.03208C120.658 9.42208 120.879 9.81208 120.879 10.2021C120.879 10.6181 120.671 11.0081 120.255 11.3721L119.475 11.9961C119.085 12.3081 118.786 12.5681 118.578 12.7761C119.566 13.8421 120.06 15.1291 120.06 16.6371V17.2221C120.06 19.0941 119.293 20.6541 117.759 21.9021C116.251 23.1241 114.314 23.7351 111.948 23.7351C111.09 23.7351 110.31 23.6571 109.608 23.5011C109.504 23.6831 109.452 23.8521 109.452 24.0081C109.452 24.3721 109.842 24.6451 110.622 24.8271C111.428 25.0091 112.39 25.1781 113.508 25.3341C114.652 25.4901 115.783 25.7241 116.901 26.0361C118.045 26.3221 119.007 26.8941 119.787 27.7521C120.593 28.6101 120.996 29.7281 120.996 31.1061C120.996 33.2381 120.138 34.8241 118.422 35.8641C116.706 36.9301 114.626 37.4631 112.182 37.4631C109.738 37.4631 107.645 36.9561 105.903 35.9421C104.161 34.9281 103.29 33.5501 103.29 31.8081ZM108.984 31.1841C108.984 31.9381 109.283 32.5361 109.881 32.9781C110.505 33.4201 111.233 33.6411 112.065 33.6411C112.897 33.6411 113.612 33.4201 114.21 32.9781C114.834 32.5361 115.146 31.9641 115.146 31.2621C115.146 30.8201 115.029 30.4561 114.795 30.1701C114.561 29.8841 114.197 29.6501 113.703 29.4681C113.235 29.3121 112.767 29.1821 112.299 29.0781C111.857 29.0001 111.272 28.9221 110.544 28.8441C109.504 29.3901 108.984 30.1701 108.984 31.1841ZM109.803 17.1831C109.803 18.0671 109.998 18.7951 110.388 19.3671C110.778 19.9391 111.324 20.2251 112.026 20.2251C112.702 20.2251 113.235 19.9521 113.625 19.4061C114.015 18.8341 114.21 18.1061 114.21 17.2221V16.6371C114.21 15.8051 114.015 15.1161 113.625 14.5701C113.235 13.9981 112.689 13.7121 111.987 13.7121C111.311 13.7121 110.778 13.9981 110.388 14.5701C109.998 15.1161 109.803 15.8051 109.803 16.6371V17.1831Z" fill="#6C63FF"/>
<path d="M129.995 24.3201C129.995 23.5921 130.255 22.8641 130.775 22.1361C131.321 21.4081 131.945 21.0441 132.647 21.0441C133.037 21.0441 133.466 21.2001 133.934 21.5121C134.428 21.7981 134.87 22.1231 135.26 22.4871C135.676 22.8511 136.248 23.1891 136.976 23.5011C137.704 23.7871 138.471 23.9301 139.277 23.9301C140.291 23.9301 141.175 23.7221 141.929 23.3061C142.683 22.8641 143.06 22.2141 143.06 21.3561C143.06 20.4981 142.631 19.7441 141.773 19.0941C140.941 18.4441 139.914 17.8591 138.692 17.3391C137.496 16.7931 136.287 16.1951 135.065 15.5451C133.843 14.8691 132.803 13.9201 131.945 12.6981C131.113 11.4761 130.697 10.0201 130.697 8.33008C130.697 5.62608 131.672 3.61108 133.622 2.28508C135.572 0.93308 137.925 0.25708 140.681 0.25708C141.357 0.25708 142.059 0.29608 142.787 0.374081C143.541 0.452081 144.373 0.608081 145.283 0.842079C146.219 1.05008 146.973 1.40108 147.545 1.89508C148.143 2.38908 148.442 2.98708 148.442 3.68908C148.442 4.36508 148.221 5.06708 147.779 5.79508C147.363 6.52308 146.778 6.88708 146.024 6.88708C145.712 6.88708 145.049 6.64008 144.035 6.14608C143.021 5.65208 141.903 5.40508 140.681 5.40508C139.381 5.40508 138.406 5.63908 137.756 6.10708C137.106 6.54908 136.781 7.09508 136.781 7.74508C136.781 8.34308 137.08 8.88908 137.678 9.38308C138.302 9.87708 139.069 10.3061 139.979 10.6701C140.889 11.0081 141.877 11.4631 142.943 12.0351C144.035 12.5811 145.036 13.1921 145.946 13.8681C146.856 14.5181 147.61 15.4411 148.208 16.6371C148.832 17.8331 149.144 19.1981 149.144 20.7321C149.144 23.4621 148.247 25.5941 146.453 27.1281C144.659 28.6361 142.306 29.3901 139.394 29.3901C136.872 29.3901 134.675 28.8701 132.803 27.8301C130.931 26.7901 129.995 25.6201 129.995 24.3201Z" fill="#6C63FF"/>
<path d="M151.102 21.1221V18.3921C151.102 16.1821 151.973 14.2711 153.715 12.6591C155.457 11.0211 157.537 10.2021 159.955 10.2021C162.347 10.2021 164.427 11.0081 166.195 12.6201C167.963 14.2321 168.847 16.1561 168.847 18.3921V21.1221C168.847 23.3061 167.95 25.2301 166.156 26.8941C164.388 28.5581 162.321 29.3901 159.955 29.3901C157.589 29.3901 155.522 28.5581 153.754 26.8941C151.986 25.2301 151.102 23.3061 151.102 21.1221ZM157.147 21.1221C157.147 21.9021 157.42 22.6041 157.966 23.2281C158.512 23.8261 159.175 24.1251 159.955 24.1251C160.735 24.1251 161.398 23.8261 161.944 23.2281C162.516 22.6041 162.802 21.9021 162.802 21.1221V18.3921C162.802 17.6381 162.516 16.9621 161.944 16.3641C161.372 15.7661 160.709 15.4671 159.955 15.4671C159.201 15.4671 158.538 15.7661 157.966 16.3641C157.42 16.9621 157.147 17.6381 157.147 18.3921V21.1221Z" fill="#6C63FF"/>
<path d="M170.945 21.1221V18.3921C170.945 16.1821 171.816 14.2711 173.558 12.6591C175.3 11.0211 177.38 10.2021 179.798 10.2021C182.19 10.2021 184.27 11.0081 186.038 12.6201C187.806 14.2321 188.69 16.1561 188.69 18.3921V21.1221C188.69 23.3061 187.793 25.2301 185.999 26.8941C184.231 28.5581 182.164 29.3901 179.798 29.3901C177.432 29.3901 175.365 28.5581 173.597 26.8941C171.829 25.2301 170.945 23.3061 170.945 21.1221ZM176.99 21.1221C176.99 21.9021 177.263 22.6041 177.809 23.2281C178.355 23.8261 179.018 24.1251 179.798 24.1251C180.578 24.1251 181.241 23.8261 181.787 23.2281C182.359 22.6041 182.645 21.9021 182.645 21.1221V18.3921C182.645 17.6381 182.359 16.9621 181.787 16.3641C181.215 15.7661 180.552 15.4671 179.798 15.4671C179.044 15.4671 178.381 15.7661 177.809 16.3641C177.263 16.9621 176.99 17.6381 176.99 18.3921V21.1221Z" fill="#6C63FF"/>
<path d="M191.489 27.1281V12.2691C191.489 11.7231 191.762 11.2811 192.308 10.9431C192.88 10.6051 193.608 10.4361 194.492 10.4361C195.22 10.4361 195.844 10.6051 196.364 10.9431C196.884 11.2811 197.144 11.7231 197.144 12.2691V13.1661C197.56 12.3341 198.223 11.6321 199.133 11.0601C200.069 10.4881 201.148 10.2021 202.37 10.2021C204.164 10.2021 205.711 11.0081 207.011 12.6201C208.337 14.2321 209 16.1561 209 18.3921V27.1281C209 27.7261 208.701 28.1941 208.103 28.5321C207.505 28.8441 206.79 29.0001 205.958 29.0001C205.178 29.0001 204.476 28.8311 203.852 28.4931C203.254 28.1551 202.955 27.7001 202.955 27.1281V18.3921C202.955 17.6381 202.669 16.9621 202.097 16.3641C201.551 15.7661 200.901 15.4671 200.147 15.4671C199.471 15.4671 198.86 15.7401 198.314 16.2861C197.794 16.8061 197.534 17.5081 197.534 18.3921V27.1281C197.534 27.5961 197.222 28.0251 196.598 28.4151C196 28.8051 195.298 29.0001 194.492 29.0001C193.634 29.0001 192.919 28.8181 192.347 28.4541C191.775 28.0641 191.489 27.6221 191.489 27.1281Z" fill="#6C63FF"/>
<path d="M211.464 26.2311C211.464 25.3991 211.75 24.6971 212.322 24.1251C212.894 23.5271 213.609 23.2281 214.467 23.2281C215.273 23.2281 215.962 23.5271 216.534 24.1251C217.132 24.7231 217.431 25.4251 217.431 26.2311C217.431 27.0371 217.132 27.7391 216.534 28.3371C215.962 28.9351 215.273 29.2341 214.467 29.2341C213.635 29.2341 212.92 28.9351 212.322 28.3371C211.75 27.7391 211.464 27.0371 211.464 26.2311Z" fill="#6C63FF"/>
<path d="M219.234 26.2311C219.234 25.3991 219.52 24.6971 220.092 24.1251C220.664 23.5271 221.379 23.2281 222.237 23.2281C223.043 23.2281 223.732 23.5271 224.304 24.1251C224.902 24.7231 225.201 25.4251 225.201 26.2311C225.201 27.0371 224.902 27.7391 224.304 28.3371C223.732 28.9351 223.043 29.2341 222.237 29.2341C221.405 29.2341 220.69 28.9351 220.092 28.3371C219.52 27.7391 219.234 27.0371 219.234 26.2311Z" fill="#6C63FF"/>
<path d="M227.003 26.2311C227.003 25.3991 227.289 24.6971 227.861 24.1251C228.433 23.5271 229.148 23.2281 230.006 23.2281C230.812 23.2281 231.501 23.5271 232.073 24.1251C232.671 24.7231 232.97 25.4251 232.97 26.2311C232.97 27.0371 232.671 27.7391 232.073 28.3371C231.501 28.9351 230.812 29.2341 230.006 29.2341C229.174 29.2341 228.459 28.9351 227.861 28.3371C227.289 27.7391 227.003 27.0371 227.003 26.2311Z" fill="#6C63FF"/>
</g>
</svg>
