<svg width="209" height="65" viewBox="0 0 209 65" fill="none" xmlns="http://www.w3.org/2000/svg">
<g filter="url(#filter0_d_47:8)">
<path d="M22 29.2727V40.7477C22 41.3444 22.2371 41.9167 22.659 42.3387C23.081 42.7606 23.6533 42.9977 24.25 42.9977C24.8467 42.9977 25.419 42.7606 25.841 42.3387C26.2629 41.9167 26.5 41.3444 26.5 40.7477V29.2727C29.2316 28.7151 31.6588 27.1631 33.3112 24.9176C34.9635 22.6721 35.7232 19.8931 35.443 17.1193C35.1628 14.3455 33.8626 11.7745 31.7946 9.90485C29.7265 8.03518 27.0379 7 24.25 7C21.4621 7 18.7735 8.03518 16.7054 9.90485C14.6373 11.7745 13.3372 14.3455 13.057 17.1193C12.7768 19.8931 13.5365 22.6721 15.1888 24.9176C16.8411 27.1631 19.2684 28.7151 22 29.2727ZM33.7225 34.9427C33.427 34.8806 33.1222 34.8774 32.8255 34.9332C32.5288 34.9889 32.2459 35.1025 31.9931 35.2676C31.7403 35.4327 31.5225 35.6459 31.3521 35.8951C31.1817 36.1444 31.062 36.4247 31 36.7202C30.9379 37.0157 30.9347 37.3205 30.9904 37.6172C31.0462 37.9139 31.1598 38.1968 31.3249 38.4496C31.49 38.7024 31.7032 38.9202 31.9524 39.0906C32.2017 39.261 32.482 39.3806 32.7775 39.4427C37.885 40.4552 40 42.2777 40 42.9977C40 44.3027 34.4875 47.4977 24.25 47.4977C14.0125 47.4977 8.5 44.3027 8.5 42.9977C8.5 42.2777 10.615 40.4552 15.7225 39.3527C16.018 39.2906 16.2983 39.171 16.5476 39.0006C16.7968 38.8302 17.01 38.6124 17.1751 38.3596C17.3402 38.1068 17.4538 37.8239 17.5095 37.5272C17.5653 37.2305 17.562 36.9257 17.5 36.6302C17.4379 36.3347 17.3183 36.0544 17.1479 35.8051C16.9775 35.5559 16.7597 35.3427 16.5069 35.1776C16.2541 35.0125 15.9712 34.8989 15.6745 34.8432C15.3778 34.7874 15.073 34.7906 14.7775 34.8527C7.9375 36.4277 4 39.3752 4 42.9977C4 48.9152 14.1925 51.9977 24.25 51.9977C34.3075 51.9977 44.5 48.9152 44.5 42.9977C44.5 39.3752 40.5625 36.4277 33.7225 34.9427Z" fill="url(#paint0_linear_47:8)"/>
</g>
<path d="M67.204 23.009V31.171H83.581V39.28H67.204V52H56.71V14.9H85.807V23.009H67.204ZM99.3133 26.719C100.338 25.4117 101.663 24.44 103.288 23.804C104.949 23.1327 106.839 22.797 108.959 22.797V31.86C108.041 31.754 107.281 31.701 106.68 31.701C104.525 31.701 102.829 32.284 101.592 33.45C100.391 34.616 99.7903 36.4003 99.7903 38.803V52H89.7203V23.274H99.3133V26.719ZM113.115 23.274H123.185V52H113.115V23.274ZM118.15 20.094C116.313 20.094 114.829 19.5817 113.698 18.557C112.567 17.5323 112.002 16.2603 112.002 14.741C112.002 13.2217 112.567 11.9497 113.698 10.925C114.829 9.90033 116.313 9.388 118.15 9.388C119.987 9.388 121.471 9.88267 122.602 10.872C123.733 11.826 124.298 13.0627 124.298 14.582C124.298 16.172 123.733 17.497 122.602 18.557C121.471 19.5817 119.987 20.094 118.15 20.094ZM159.992 23.274L148.12 52H137.732L125.913 23.274H136.248L143.138 40.817L150.399 23.274H159.992ZM162.595 23.274H172.665V52H162.595V23.274ZM167.63 20.094C165.793 20.094 164.309 19.5817 163.178 18.557C162.048 17.5323 161.482 16.2603 161.482 14.741C161.482 13.2217 162.048 11.9497 163.178 10.925C164.309 9.90033 165.793 9.388 167.63 9.388C169.468 9.388 170.952 9.88267 172.082 10.872C173.213 11.826 173.778 13.0627 173.778 14.582C173.778 16.172 173.213 17.497 172.082 18.557C170.952 19.5817 169.468 20.094 167.63 20.094ZM197.442 52L192.301 44.474L186.789 52H175.871L186.789 37.637L176.189 23.274H187.531L192.619 30.535L197.919 23.274H208.572L197.972 37.266L208.943 52H197.442Z" fill="white"/>
<defs>
<filter id="filter0_d_47:8" x="0" y="7" width="48.5" height="52.9977" filterUnits="userSpaceOnUse" color-interpolation-filters="sRGB">
<feFlood flood-opacity="0" result="BackgroundImageFix"/>
<feColorMatrix in="SourceAlpha" type="matrix" values="0 0 0 0 0 0 0 0 0 0 0 0 0 0 0 0 0 0 127 0" result="hardAlpha"/>
<feOffset dy="4"/>
<feGaussianBlur stdDeviation="2"/>
<feComposite in2="hardAlpha" operator="out"/>
<feColorMatrix type="matrix" values="0 0 0 0 0 0 0 0 0 0 0 0 0 0 0 0 0 0 0.25 0"/>
<feBlend mode="normal" in2="BackgroundImageFix" result="effect1_dropShadow_47:8"/>
<feBlend mode="normal" in="SourceGraphic" in2="effect1_dropShadow_47:8" result="shape"/>
</filter>
<linearGradient id="paint0_linear_47:8" x1="24.25" y1="7" x2="24.25" y2="51.9977" gradientUnits="userSpaceOnUse">
<stop stop-color="#FFB168"/>
<stop offset="1" stop-color="#9665FD"/>
</linearGradient>
</defs>
</svg>
