<svg width="500" height="398" viewBox="0 0 600 498" fill="none" xmlns="http://www.w3.org/2000/svg">
<g clip-path="url(#clip0_172_3560)">
<path d="M33.1861 159.809C33.1861 180.503 38.1198 197.537 46.6783 212.129C49.503 216.935 52.7095 221.51 56.2673 225.809C87.7294 264.036 146.223 284.96 199.09 318.851C355.145 418.889 372.049 258.588 365.001 159.809C362.158 119.951 346.533 83.4417 321.711 55.4872C316.498 49.6079 310.866 44.108 304.86 39.0299C276.679 15.1883 240.272 0.760986 199.09 0.760986C128.437 0.760986 68.1012 43.0957 44.1789 102.753C36.9059 120.907 33.1754 140.27 33.1861 159.809Z" fill="#9E99FF"/>
<path d="M163.743 36.6057L321.711 55.4872C316.498 49.6079 310.866 44.108 304.86 39.0299L163.743 36.6057Z" fill="#CFCFDE"/>
<path d="M46.6784 212.129C49.5031 216.935 52.7096 221.509 56.2674 225.809L191.58 209.64L46.6784 212.129Z" fill="#CFCFDE"/>
<path d="M38.6589 119.157L267.985 89.6079L44.179 102.753C42.0295 108.113 40.1866 113.59 38.6589 119.157Z" fill="#CFCFDE"/>
<path d="M349.445 43.1264C349.445 43.5324 349.457 43.9325 349.492 44.3267C349.672 46.7702 350.397 49.1431 351.616 51.2727C352.836 53.4023 354.518 55.2349 356.54 56.6371C358.562 58.0392 360.874 58.9756 363.307 59.3781C365.739 59.7805 368.232 59.6388 370.602 58.9633C372.973 58.2879 375.162 57.0956 377.01 55.4734C378.858 53.8512 380.319 51.84 381.285 49.5861C382.252 47.3322 382.701 44.8925 382.598 42.4447C382.496 39.9969 381.845 37.6026 380.694 35.4361C380.337 34.7572 379.929 34.1062 379.473 33.4886C377.49 30.7559 374.711 28.6933 371.511 27.5788C368.311 26.4643 364.844 26.3516 361.577 27.2559C358.31 28.1602 355.401 30.038 353.243 32.6359C351.084 35.2339 349.779 38.4271 349.504 41.7849C349.463 42.2262 349.445 42.6733 349.445 43.1264Z" fill="#9E99FF"/>
<path d="M349.445 43.1264C349.445 43.5324 349.457 43.9325 349.492 44.3267L374.321 41.3612L349.504 41.7848C349.463 42.2261 349.445 42.6733 349.445 43.1264Z" fill="#CFCFDE"/>
<path d="M355.367 51.4286L378.336 54.1764C378.988 53.4543 379.575 52.6766 380.089 51.8522L355.367 51.4286Z" fill="#CFCFDE"/>
<path d="M361.883 33.1885L380.693 35.4361C380.337 34.7572 379.929 34.1062 379.473 33.4886L361.883 33.1885Z" fill="#CFCFDE"/>
<path d="M122.166 339.749C122.358 340.108 122.557 340.456 122.774 340.788C124.086 342.862 125.847 344.62 127.929 345.934C130.01 347.247 132.361 348.083 134.809 348.379C137.257 348.676 139.741 348.427 142.079 347.649C144.418 346.872 146.553 345.586 148.328 343.885C150.103 342.185 151.474 340.112 152.341 337.819C153.208 335.525 153.549 333.068 153.34 330.627C153.13 328.186 152.375 325.822 151.13 323.708C149.884 321.593 148.18 319.781 146.14 318.404C145.505 317.97 144.837 317.585 144.143 317.252C141.102 315.762 137.674 315.234 134.321 315.74C130.968 316.246 127.853 317.761 125.394 320.081C122.935 322.401 121.252 325.414 120.571 328.714C119.89 332.014 120.244 335.443 121.585 338.537C121.757 338.946 121.952 339.349 122.166 339.749Z" fill="#9E99FF"/>
<path d="M122.166 339.749C122.358 340.108 122.557 340.456 122.775 340.787L143.307 326.605L121.586 338.537C121.757 338.946 121.953 339.349 122.166 339.749Z" fill="#CFCFDE"/>
<path d="M131.316 344.325L152.901 336.055C153.136 335.114 153.287 334.154 153.353 333.186L131.316 344.325Z" fill="#CFCFDE"/>
<path d="M128.464 325.179L146.14 318.404C145.505 317.97 144.837 317.585 144.143 317.252L128.464 325.179Z" fill="#CFCFDE"/>
<path d="M4.70926 55.7476C4.42393 56.0383 4.15125 56.3329 3.89965 56.6398C2.31075 58.5135 1.16251 60.7157 0.538631 63.0859C-0.0852432 65.4562 -0.169067 67.9348 0.293247 70.3413C0.755558 72.7479 1.75242 75.0216 3.21113 76.997C4.66985 78.9725 6.55371 80.5998 8.72553 81.7605C10.8974 82.9211 13.3024 83.586 15.7656 83.7065C18.2288 83.827 20.688 83.4002 22.9641 82.4572C25.2402 81.5142 27.2761 80.0787 28.9231 78.2553C30.5702 76.4319 31.7871 74.2664 32.4853 71.9167C32.7072 71.1834 32.8728 70.4344 32.9806 69.6762C33.4814 66.3443 32.9414 62.9399 31.4337 59.9224C29.926 56.9049 27.523 54.4193 24.5488 52.8009C21.5747 51.1825 18.1725 50.5091 14.8011 50.8716C11.4296 51.2342 8.25125 52.6151 5.69457 54.8283C5.35474 55.1155 5.02769 55.4233 4.70926 55.7476Z" fill="#9E99FF"/>
<path d="M4.70921 55.7476C4.42388 56.0383 4.1512 56.3329 3.8996 56.6398L23.7585 71.7381L5.69452 54.8282C5.35467 55.1154 5.02764 55.4232 4.70921 55.7476Z" fill="#CFCFDE"/>
<path d="M3.11456 65.7993L17.6268 83.6978C18.601 83.6331 19.5675 83.4833 20.5153 83.25L3.11456 65.7993Z" fill="#CFCFDE"/>
<path d="M20.5981 57.2601L32.4853 71.9167C32.7071 71.1834 32.8727 70.4344 32.9806 69.6762L20.5981 57.2601Z" fill="#CFCFDE"/>
<path d="M315.834 359.358C315.834 359.358 279.441 360.864 279.441 369.903C279.441 378.941 320.383 369.903 320.383 369.903L315.834 359.358Z" fill="#9E616A"/>
<path d="M370.424 497.948L438.661 493.429L441.694 457.275L456.858 488.91L523.579 479.871C522.062 422.627 497.8 366.89 496.284 359.358C494.767 351.826 491.143 320.703 491.143 320.703C484.517 306.738 449.792 305.428 422.572 306.693C411.29 307.205 401.282 308.169 395.111 308.862C391.032 309.314 388.621 309.646 388.621 309.646C377.748 320.778 370.742 335.948 366.436 352.895C350.908 413.95 370.424 497.948 370.424 497.948Z" fill="#2F2E41"/>
<path d="M446.243 148.459C425.306 148.459 408.334 131.598 408.334 110.799C408.334 89.9996 425.306 73.1384 446.243 73.1384C467.18 73.1384 484.153 89.9996 484.153 110.799C484.153 131.598 467.18 148.459 446.243 148.459Z" fill="#9E616A"/>
<path d="M472.022 119.837C472.022 119.837 482.636 166.536 499.317 180.094C515.997 193.652 434.112 180.094 434.112 180.094C434.112 180.094 452.309 149.966 438.661 136.408C425.014 122.85 472.022 119.837 472.022 119.837Z" fill="#9E616A"/>
<path d="M511.448 192.145L591.816 258.428C591.816 258.428 622.143 279.518 566.037 294.582C509.931 309.646 505.382 318.684 505.382 318.684C505.382 318.684 499.317 299.101 491.735 302.114L556.939 270.479L503.866 238.844L511.448 192.145Z" fill="url(#paint0_linear_172_3560)"/>
<path d="M394.686 312.659L419.843 315.43L490.218 323.204C490.218 323.204 490.552 322.315 491.143 320.703C496.253 306.859 520.864 239.492 523.579 219.261C526.611 196.665 494.767 169.549 494.767 169.549C494.767 169.549 464.44 163.523 455.342 163.523C446.243 163.523 409.85 177.081 409.85 177.081L396.279 298.363L395.111 308.863L394.686 312.659Z" fill="url(#paint1_linear_172_3560)"/>
<path opacity="0.15" d="M366.436 352.895L417.432 323.204C417.432 323.204 418.327 320.311 419.843 315.43C420.601 312.99 421.526 310.038 422.572 306.693C428.456 287.923 438.328 256.951 446.243 234.325C458.374 199.677 399.235 296.088 399.235 296.088L396.278 298.363L395.111 308.863C391.032 309.314 388.621 309.646 388.621 309.646C377.748 320.778 370.742 335.948 366.436 352.895Z" fill="#2F2E41"/>
<path d="M434.112 180.094C434.112 180.094 449.276 199.677 437.145 234.325C425.014 268.973 408.334 323.204 408.334 323.204L320.383 374.422L308.252 359.358L390.137 296.088C390.137 296.088 393.17 181.6 408.334 177.081C423.497 172.562 434.112 180.094 434.112 180.094Z" fill="url(#paint2_linear_172_3560)"/>
<path d="M509.173 311.905C509.173 311.905 487.944 355.592 478.845 351.072C469.747 346.553 501.591 301.361 501.591 301.361L509.173 311.905Z" fill="#9E616A"/>
<path d="M543.748 141.709C539.53 139.634 530.216 135.446 522.282 130.4C522.838 113.986 520.804 99.0846 514.848 91.186C511.504 83.6449 504.484 76.0949 498.985 70.1492C485.483 55.548 455.625 47.3978 450.329 54.6931C410.276 55.4786 406.059 86.668 406.059 86.668C406.267 99.7137 419.916 100.127 431.872 99.6511C430.801 108.557 433.654 117.811 441.917 121.915C457.716 129.763 462.456 139.966 454.556 147.029C446.657 154.092 432.437 172.927 451.396 177.636C470.356 182.345 472.726 191.762 467.196 195.686C461.666 199.61 479.836 188.623 479.836 188.623C479.836 188.623 482.996 207.458 499.586 202.749C501.072 202.327 502.558 201.246 504.019 199.629C508.5 204.52 512.497 207.411 515.509 207.427C532.763 207.518 530.694 188.534 530.694 188.534C530.694 188.534 551.173 194.248 544.782 191.95C538.392 189.653 538.119 179.949 555.098 170.337C572.078 160.724 553.273 146.395 543.748 141.709Z" fill="#2F2E41"/>
<path d="M332.061 190.918L332.336 190.882L331.665 193.415C331.031 196.951 330.11 200.429 328.911 203.816L309.231 278.135C308.603 280.507 307.292 282.645 305.458 284.287C303.624 285.929 301.347 287.003 298.907 287.378L258.774 293.546C256.179 293.945 253.524 293.534 251.174 292.369C248.825 291.204 246.897 289.343 245.658 287.043L207.518 216.274C206.327 214.313 205.238 212.293 204.256 210.22L202.961 207.818L203.163 207.791C199.12 198.29 197.34 187.99 197.963 177.693C198.585 167.396 201.593 157.381 206.752 148.429C211.91 139.477 219.08 131.829 227.703 126.082C236.325 120.335 246.168 116.644 256.462 115.296C266.756 113.949 277.225 114.981 287.052 118.313C296.879 121.645 305.798 127.186 313.115 134.506C320.432 141.825 325.949 150.723 329.235 160.509C332.521 170.294 333.488 180.7 332.061 190.918H332.061Z" fill="#2F2E41"/>
<path d="M256.312 298.402C257.018 298.402 257.724 298.348 258.423 298.24L300.373 291.793C303.037 291.384 305.523 290.211 307.526 288.418C309.529 286.624 310.961 284.289 311.646 281.699L332.217 204.016C333.474 200.46 334.44 196.808 335.106 193.098L335.626 189.699C337.026 178.842 335.866 167.811 332.238 157.475C328.61 147.14 322.614 137.784 314.722 130.145C306.83 122.507 297.26 116.795 286.765 113.462C276.27 110.128 265.139 109.263 254.251 110.935L254.432 112.098C265.202 110.45 276.211 111.324 286.581 114.652C296.95 117.98 306.394 123.67 314.157 131.266C321.92 138.863 327.789 148.158 331.295 158.408C334.801 168.658 335.847 179.58 334.35 190.303L333.95 192.845C333.289 196.524 332.331 200.145 331.085 203.671L310.501 281.399C309.874 283.768 308.564 285.904 306.733 287.543C304.902 289.183 302.628 290.256 300.192 290.63L258.242 297.077C255.651 297.473 253 297.061 250.654 295.898C248.309 294.735 246.383 292.879 245.144 290.584L244.099 291.139C245.284 293.333 247.046 295.166 249.196 296.445C251.347 297.724 253.805 298.4 256.312 298.402Z" fill="#CFCFDE"/>
<path d="M245.67 207.81L271.195 277.046L269.757 277.57L244.232 208.333L245.67 207.81Z" fill="#CFCFDE"/>
<path d="M287.347 201.404L288.878 201.471L285.62 275.133L284.089 275.066L287.347 201.404Z" fill="#CFCFDE"/>
<path d="M259.858 333.62L313.612 325.359C314.012 325.295 314.37 325.077 314.608 324.751C314.846 324.426 314.945 324.021 314.883 323.623C314.821 323.226 314.604 322.869 314.278 322.63C313.952 322.392 313.544 322.291 313.144 322.35L259.39 330.612C259.19 330.641 258.998 330.71 258.825 330.813C258.652 330.916 258.501 331.053 258.381 331.214C258.261 331.376 258.175 331.559 258.127 331.754C258.079 331.949 258.07 332.152 258.101 332.35C258.132 332.548 258.202 332.738 258.307 332.91C258.412 333.081 258.55 333.23 258.713 333.348C258.877 333.466 259.062 333.551 259.258 333.598C259.455 333.644 259.659 333.652 259.858 333.62Z" fill="#2F2E41"/>
<path d="M258.48 322.28L312.234 314.019C312.433 313.989 312.625 313.921 312.798 313.817C312.971 313.714 313.122 313.577 313.242 313.416C313.362 313.254 313.448 313.071 313.496 312.876C313.544 312.681 313.553 312.479 313.522 312.28C313.492 312.082 313.421 311.892 313.316 311.721C313.211 311.549 313.073 311.4 312.91 311.282C312.746 311.164 312.561 311.079 312.365 311.033C312.168 310.986 311.965 310.978 311.765 311.01L258.011 319.271C257.811 319.301 257.619 319.369 257.446 319.473C257.273 319.576 257.123 319.713 257.003 319.874C256.883 320.036 256.797 320.219 256.748 320.414C256.7 320.609 256.691 320.812 256.722 321.01C256.753 321.208 256.823 321.398 256.928 321.57C257.034 321.741 257.172 321.89 257.335 322.008C257.498 322.126 257.684 322.211 257.88 322.257C258.076 322.304 258.28 322.312 258.48 322.28Z" fill="#2F2E41"/>
<path d="M257.101 310.94L310.855 302.679C311.255 302.615 311.613 302.397 311.851 302.071C312.089 301.746 312.188 301.341 312.127 300.943C312.065 300.546 311.847 300.189 311.521 299.95C311.195 299.712 310.787 299.611 310.387 299.67L256.633 307.932C256.233 307.995 255.875 308.214 255.637 308.539C255.399 308.864 255.3 309.27 255.362 309.667C255.424 310.065 255.641 310.422 255.967 310.66C256.293 310.899 256.701 310.999 257.101 310.94H257.101Z" fill="#2F2E41"/>
<path d="M288.406 340.219C277.743 341.858 268.18 337.283 267.046 330L305.658 324.066C306.793 331.348 299.068 338.58 288.406 340.219Z" fill="#2F2E41"/>
<path d="M269.084 193.223C271.377 192.871 273.275 191.07 274.315 189.863C274.656 189.467 274.988 189.057 275.321 188.645C276.533 187.147 277.677 185.732 279.27 184.994C282.786 183.365 286.929 185.641 290.516 188.083L291.383 186.828C287.439 184.142 282.84 181.661 278.622 183.615C276.706 184.503 275.394 186.124 274.127 187.692C273.804 188.091 273.482 188.489 273.151 188.873C272.07 190.128 269.912 192.161 267.601 191.692C266.626 191.41 265.721 190.934 264.938 190.292C264.342 189.85 263.712 189.455 263.054 189.111C261.719 188.475 260.225 188.246 258.759 188.452C257.294 188.657 255.922 189.289 254.817 190.268C254.423 190.638 254.05 191.03 253.699 191.442C253.01 192.222 252.359 192.959 251.512 193.227C250.26 193.625 248.936 192.913 247.534 192.162C246.088 191.387 244.593 190.585 242.896 190.783C242.841 190.789 242.786 190.797 242.731 190.805C239.713 191.269 238.322 194.585 237.534 197.059L238.996 197.518C240.065 194.154 241.368 192.481 243.076 192.295C244.291 192.153 245.513 192.808 246.806 193.501C248.428 194.371 250.106 195.27 251.977 194.677C253.23 194.281 254.054 193.348 254.851 192.446C255.165 192.077 255.499 191.724 255.851 191.391C256.731 190.625 257.817 190.131 258.975 189.968C260.133 189.806 261.314 189.982 262.374 190.475C262.96 190.785 263.522 191.139 264.054 191.535C265.004 192.305 266.108 192.867 267.293 193.184C267.883 193.303 268.489 193.316 269.084 193.223Z" fill="#CFCFDE"/>
</g>
<defs>
<linearGradient id="paint0_linear_172_3560" x1="545.867" y1="192.145" x2="545.867" y2="318.684" gradientUnits="userSpaceOnUse">
<stop stop-color="#6C63FF"/>
<stop offset="1" stop-color="#653623"/>
</linearGradient>
<linearGradient id="paint1_linear_172_3560" x1="459.234" y1="163.523" x2="459.234" y2="323.204" gradientUnits="userSpaceOnUse">
<stop stop-color="#6C63FF"/>
<stop offset="1" stop-color="#653623"/>
</linearGradient>
<linearGradient id="paint2_linear_172_3560" x1="375.051" y1="175.637" x2="375.051" y2="374.422" gradientUnits="userSpaceOnUse">
<stop stop-color="#6C5FE7"/>
<stop offset="1" stop-color="#66382D"/>
</linearGradient>
<clipPath id="clip0_172_3560">
<rect width="600" height="497.187" fill="white" transform="matrix(-1 0 0 1 600 0.760986)"/>
</clipPath>
</defs>
</svg>
