<svg width="600" height="408" viewBox="0 0 600 408" fill="none" xmlns="http://www.w3.org/2000/svg">
<g clip-path="url(#clip0_172_3597)">
<path d="M93.5 116L88.5895 119.821L86.7729 122.11C86.7729 122.11 83.834 133.646 87.1819 141.709C90.5297 149.771 114.735 230.81 114.735 230.81L132.121 231.315L118.578 165.609L93.5 116Z" fill="url(#paint0_linear_172_3597)"/>
<path d="M154.061 107.89L157.065 107.303L159.603 108.749C159.603 108.749 166.628 118.357 166.525 127.087C166.422 135.817 174.155 220.045 174.155 220.045L158.211 227L146.298 160.979L154.061 107.89Z" fill="url(#paint1_linear_172_3597)"/>
<path d="M40.3785 306.952C37.5294 306.952 34.6745 307.069 31.8864 307.306L31.4806 307.341C12.9873 308.977 -0.539792 318.469 0.016538 329.42L0.124089 331.401C0.195014 332.652 0.270582 333.998 0.332782 335.491C0.366471 336.228 1.37047 336.793 2.61976 336.793H457.512C489.584 336.598 521.54 336.353 552.487 336.064C558.291 336.076 564.091 335.775 569.863 335.163C578.463 334.144 584.432 332.125 588.113 328.99H588.114C592.692 325.102 592.836 320.206 592.559 314.675C591.996 303.506 591.436 291.773 590.878 280.075C590.385 269.766 589.895 259.484 589.404 249.64C589.1 243.798 588.426 238.642 583.228 234.701C577.593 230.439 567.318 228.278 552.686 228.278C552.509 228.278 552.333 228.278 552.154 228.279C506.299 228.442 460.863 244.222 439.094 267.545C436.588 270.23 434.252 273.106 431.993 275.887C428.655 279.995 425.204 284.242 421.086 288.041C418.856 290.125 416.445 292.006 413.881 293.661C413.704 293.784 413.502 293.915 413.288 294.039C412.798 294.358 412.287 294.666 411.788 294.94C408.867 296.628 405.79 298.028 402.599 299.121L402.277 299.229C402.035 299.316 401.772 299.403 401.509 299.482C399.666 300.074 397.752 300.586 395.834 301C387.536 302.83 378.101 303.269 367.791 302.303C358.323 301.392 348.977 299.486 339.907 296.616C330.36 293.596 321.424 289.831 312.782 286.191C308.985 284.591 305.059 282.937 301.138 281.37C300.401 281.075 299.676 280.787 298.94 280.499C294.151 278.631 289.809 277.088 285.666 275.783C275.403 272.535 264.779 270.566 254.035 269.919C242.63 269.294 232.58 270.473 224.171 273.414C221.852 274.222 219.595 275.195 217.415 276.327C207.455 281.504 201.314 289.143 195.377 296.532C187.99 305.722 180.352 315.226 165.27 320.152C147.867 325.842 122.463 323.479 104.491 319.368C98.8403 318.075 93.1967 316.588 87.7386 315.149C85.5342 314.568 83.3282 313.991 81.1207 313.418C76.7828 312.297 73.2326 311.438 69.9481 310.713L68.9092 310.482C68.3313 310.356 67.7529 310.231 67.164 310.111C63.2627 309.291 59.6299 308.646 56.0524 308.139L55.206 308.015C53.5091 307.792 51.9226 307.605 50.3658 307.449L49.7444 307.387C46.6953 307.097 43.5398 306.952 40.3785 306.952Z" fill="white"/>
<path d="M510.764 319.174C523.564 307.631 542.602 301.827 558.572 308.3C542.19 317.402 529.554 332.01 522.898 349.538C520.356 356.308 518.232 364.102 511.979 367.726C508.088 369.981 503.247 370.091 498.884 369.003C494.522 367.914 490.523 365.732 486.578 363.571L485.456 363.546C490.494 347.056 497.964 330.718 510.764 319.174Z" fill="#CFCFDE"/>
<path d="M558.483 308.65C544.339 310.479 531.13 316.722 520.734 326.492C518.458 328.555 516.522 330.965 514.996 333.632C513.593 336.278 512.925 339.251 513.059 342.243C513.128 345.036 513.522 347.884 512.911 350.644C512.578 352.053 511.951 353.375 511.071 354.524C510.191 355.673 509.079 356.622 507.807 357.311C504.681 359.109 501.097 359.676 497.572 360.108C493.659 360.588 489.587 361.024 486.199 363.221C485.789 363.487 485.4 362.834 485.81 362.569C491.704 358.747 499.161 360.137 505.499 357.587C508.456 356.396 511.072 354.307 511.998 351.148C512.808 348.386 512.405 345.449 512.31 342.622C512.137 339.705 512.679 336.79 513.891 334.131C515.276 331.395 517.116 328.915 519.333 326.797C524.247 321.949 529.893 317.904 536.063 314.811C543.085 311.242 550.665 308.901 558.476 307.89C558.959 307.828 558.963 308.588 558.483 308.65H558.483Z" fill="white"/>
<path d="M523.896 323.149C522.495 321.181 521.839 318.778 522.044 316.37C522.25 313.962 523.304 311.706 525.019 310.004C525.367 309.661 525.916 310.186 525.567 310.53C523.968 312.112 522.986 314.214 522.799 316.456C522.612 318.699 523.233 320.934 524.548 322.759C524.834 323.156 524.18 323.544 523.896 323.149V323.149Z" fill="white"/>
<path d="M512.837 340.832C517.698 341.694 522.704 340.691 526.859 338.022C527.27 337.758 527.659 338.411 527.248 338.675C522.92 341.444 517.708 342.477 512.652 341.569C512.17 341.482 512.358 340.746 512.837 340.832Z" fill="white"/>
<path d="M543.146 312.248C543.53 313.122 544.125 313.888 544.877 314.476C545.629 315.063 546.515 315.455 547.456 315.615C547.939 315.696 547.75 316.432 547.27 316.352C546.232 316.17 545.253 315.737 544.421 315.089C543.588 314.441 542.927 313.6 542.494 312.637C542.446 312.55 542.433 312.448 542.457 312.351C542.481 312.254 542.542 312.17 542.626 312.116C542.712 312.065 542.816 312.05 542.913 312.075C543.011 312.099 543.094 312.162 543.146 312.248Z" fill="white"/>
<path d="M576.158 363.967C575.855 363.925 575.552 363.883 575.245 363.846C571.17 363.305 567.059 363.096 562.95 363.221C562.633 363.226 562.311 363.235 561.994 363.249C552.099 363.656 542.366 365.898 533.289 369.861C529.679 371.442 526.194 373.295 522.865 375.404C518.267 378.317 513.513 381.843 508.373 383.031C507.838 383.161 507.296 383.258 506.749 383.32L485.512 364.918C485.485 364.852 485.453 364.79 485.426 364.724L484.544 364.028C484.708 363.907 484.881 363.786 485.045 363.665C485.14 363.594 485.24 363.528 485.335 363.458C485.399 363.412 485.465 363.366 485.52 363.321C485.542 363.306 485.564 363.291 485.581 363.281C485.637 363.236 485.693 363.2 485.745 363.16C486.709 362.477 487.68 361.799 488.657 361.127C488.661 361.122 488.661 361.122 488.67 361.121C496.066 355.929 504.052 351.633 512.459 348.324C512.711 348.228 512.967 348.128 513.229 348.041C517.016 346.632 520.911 345.535 524.875 344.761C527.048 344.345 529.24 344.038 531.443 343.843C537.137 343.351 542.873 343.757 548.441 345.049C559.54 347.624 569.692 353.724 575.705 363.236C575.859 363.479 576.008 363.719 576.158 363.967Z" fill="#CFCFDE"/>
<path d="M575.877 364.195C563.483 357.133 549.181 354.159 535.002 355.695C531.944 355.972 528.948 356.729 526.126 357.939C523.414 359.207 521.091 361.178 519.398 363.648C517.774 365.919 516.375 368.43 514.227 370.267C513.113 371.19 511.817 371.868 510.423 372.255C509.03 372.643 507.57 372.731 506.14 372.514C502.563 372.066 499.36 370.359 496.286 368.58C492.873 366.606 489.358 364.501 485.332 364.213C484.844 364.179 484.927 363.423 485.414 363.458C492.419 363.957 497.537 369.561 504.131 371.343C507.209 372.175 510.555 372.083 513.194 370.119C515.503 368.401 516.948 365.813 518.573 363.499C520.189 361.065 522.376 359.065 524.943 357.672C527.695 356.322 530.656 355.451 533.701 355.095C540.541 354.185 547.482 354.357 554.269 355.605C562.023 356.987 569.484 359.685 576.328 363.584C576.752 363.826 576.297 364.435 575.877 364.195V364.195Z" fill="white"/>
<path d="M539.539 354.932C539.604 352.516 540.525 350.202 542.138 348.404C543.751 346.605 545.95 345.439 548.342 345.113C548.827 345.049 548.949 345.799 548.464 345.863C546.236 346.162 544.187 347.249 542.689 348.927C541.191 350.605 540.341 352.764 540.294 355.014C540.283 355.503 539.528 355.418 539.539 354.932V354.932Z" fill="white"/>
<path d="M520.071 362.388C523.433 366.004 528.034 368.22 532.956 368.593C533.444 368.629 533.361 369.385 532.874 369.348C527.753 368.951 522.97 366.635 519.479 362.864C519.146 362.504 519.74 362.03 520.071 362.388H520.071Z" fill="white"/>
<path d="M561.467 357.827C561.247 358.756 561.261 359.726 561.508 360.648C561.755 361.571 562.227 362.418 562.882 363.113C563.219 363.468 562.625 363.942 562.29 363.589C561.571 362.818 561.05 361.882 560.775 360.863C560.5 359.845 560.478 358.774 560.712 357.745C560.726 357.646 560.777 357.556 560.855 357.494C560.932 357.431 561.031 357.401 561.13 357.408C561.23 357.419 561.322 357.47 561.385 357.548C561.448 357.627 561.477 357.727 561.467 357.827Z" fill="white"/>
<path d="M175.692 330.655C186.173 314.745 204.922 303.237 223.801 305.713C208.811 320.009 199.356 339.151 197.11 359.752C196.273 367.7 196.168 376.627 190.488 382.244C186.953 385.739 181.806 387.205 176.838 387.255C171.869 387.306 166.985 386.085 162.166 384.872L160.959 385.157C161.763 366.118 165.211 346.564 175.692 330.655Z" fill="#CFCFDE"/>
<path d="M223.803 306.113C209.184 312.007 196.793 322.362 188.389 335.705C186.529 338.546 185.127 341.662 184.237 344.939C183.472 348.159 183.584 351.526 184.559 354.689C185.409 357.656 186.622 360.593 186.737 363.715C186.772 365.314 186.468 366.903 185.847 368.376C185.225 369.85 184.3 371.176 183.13 372.266C180.287 375.059 176.611 376.663 172.962 378.107C168.91 379.71 164.676 381.311 161.663 384.603C161.298 385.002 160.701 384.412 161.066 384.014C166.307 378.285 174.669 377.696 180.738 373.204C183.57 371.108 185.788 368.144 185.9 364.508C185.999 361.328 184.75 358.299 183.864 355.302C182.867 352.231 182.637 348.962 183.194 345.781C183.915 342.469 185.194 339.304 186.976 336.421C190.884 329.868 195.798 323.97 201.537 318.944C208.055 313.172 215.511 308.558 223.584 305.302C224.084 305.101 224.3 305.913 223.803 306.113L223.803 306.113Z" fill="white"/>
<path d="M190.842 331.249C188.796 329.534 187.427 327.147 186.977 324.515C186.528 321.882 187.028 319.176 188.388 316.878C188.665 316.414 189.399 316.823 189.121 317.288C187.851 319.425 187.385 321.946 187.808 324.397C188.232 326.847 189.517 329.065 191.431 330.651C191.847 330.996 191.255 331.592 190.842 331.249Z" fill="white"/>
<path d="M183.93 353.241C189.368 352.809 194.444 350.343 198.145 346.332C198.511 345.935 199.109 346.525 198.743 346.922C194.883 351.088 189.596 353.644 183.936 354.081C183.397 354.122 183.393 353.282 183.93 353.241H183.93Z" fill="white"/>
<path d="M208.4 314.231C209.054 315.059 209.902 315.712 210.87 316.132C211.838 316.551 212.895 316.723 213.946 316.632C214.485 316.584 214.487 317.425 213.952 317.472C212.791 317.567 211.624 317.375 210.553 316.915C209.483 316.454 208.542 315.738 207.811 314.829C207.735 314.749 207.693 314.643 207.692 314.533C207.691 314.422 207.732 314.316 207.807 314.235C207.885 314.156 207.992 314.111 208.103 314.111C208.214 314.11 208.321 314.153 208.4 314.231H208.4Z" fill="white"/>
<path d="M258.084 360.355C257.748 360.394 257.413 360.434 257.074 360.48C252.566 361.035 248.11 361.957 243.751 363.234C243.412 363.328 243.071 363.428 242.735 363.53C232.266 366.721 222.48 371.829 213.874 378.594C210.451 381.29 207.239 384.242 204.265 387.425C200.157 391.821 196.053 396.915 190.886 399.617C190.35 399.905 189.796 400.159 189.229 400.379L161.4 386.609C161.353 386.546 161.302 386.489 161.254 386.426L160.118 385.927C160.26 385.752 160.411 385.574 160.553 385.399C160.634 385.297 160.723 385.198 160.804 385.097C160.861 385.03 160.918 384.963 160.965 384.899C160.984 384.877 161.003 384.855 161.019 384.839C161.066 384.775 161.117 384.721 161.161 384.664C162.002 383.665 162.852 382.67 163.71 381.679C163.713 381.673 163.713 381.673 163.722 381.669C170.28 374.136 177.525 367.085 185.608 361.359C185.851 361.187 186.097 361.008 186.353 360.842C190.011 358.281 193.872 356.023 197.897 354.092C200.105 353.041 202.364 352.103 204.666 351.281C210.619 349.169 216.867 348.007 223.181 347.838C235.768 347.502 248.321 351.199 257.397 359.699C257.629 359.916 257.855 360.131 258.084 360.355Z" fill="#CFCFDE"/>
<path d="M257.847 360.677C242.628 356.575 226.505 357.376 211.768 362.967C208.574 364.114 205.58 365.758 202.898 367.838C200.35 369.948 198.413 372.703 197.289 375.816C196.183 378.698 195.385 381.773 193.598 384.335C192.664 385.633 191.466 386.719 190.083 387.521C188.7 388.323 187.164 388.824 185.574 388.99C181.624 389.507 177.724 388.573 173.941 387.527C169.742 386.365 165.398 385.092 161.012 385.906C160.48 386.005 160.359 385.174 160.889 385.075C168.52 383.659 175.552 388.228 183.1 388.297C186.622 388.33 190.176 387.3 192.453 384.465C194.444 381.985 195.27 378.814 196.365 375.887C197.417 372.834 199.2 370.085 201.558 367.881C204.126 365.671 207.052 363.915 210.209 362.687C217.272 359.809 224.743 358.061 232.349 357.506C241.026 356.825 249.755 357.634 258.16 359.898C258.68 360.038 258.363 360.817 257.847 360.677Z" fill="white"/>
<path d="M216.407 360.887C215.806 358.285 216.148 355.554 217.373 353.181C218.597 350.809 220.625 348.949 223.094 347.934C223.594 347.731 223.933 348.499 223.433 348.703C221.132 349.643 219.244 351.376 218.108 353.588C216.971 355.799 216.663 358.345 217.237 360.764C217.362 361.29 216.531 361.41 216.407 360.887H216.407Z" fill="white"/>
<path d="M197.658 374.281C202.26 377.213 207.796 378.302 213.164 377.33C213.696 377.233 213.818 378.064 213.287 378.161C207.699 379.162 201.94 378.017 197.158 374.956C196.702 374.663 197.205 373.991 197.658 374.281V374.281Z" fill="white"/>
<path d="M240.665 357.878C240.688 358.933 240.973 359.966 241.494 360.884C242.014 361.802 242.754 362.576 243.648 363.137C244.107 363.424 243.604 364.096 243.148 363.812C242.163 363.187 241.347 362.331 240.769 361.318C240.192 360.305 239.871 359.166 239.835 358.001C239.822 357.891 239.852 357.781 239.918 357.692C239.983 357.604 240.08 357.544 240.189 357.524C240.299 357.508 240.41 357.537 240.5 357.603C240.589 357.669 240.648 357.768 240.665 357.878V357.878Z" fill="white"/>
<path d="M250.285 211.376C250.98 210.684 251.515 209.847 251.853 208.925C252.19 208.003 252.322 207.019 252.238 206.04C252.154 205.062 251.856 204.114 251.367 203.264C250.877 202.413 250.207 201.68 249.404 201.116L260.357 148.062L248.54 151.794L239.727 203.119C238.87 204.532 238.561 206.211 238.859 207.837C239.156 209.463 240.04 210.923 241.341 211.941C242.642 212.959 244.272 213.463 245.92 213.359C247.568 213.255 249.121 212.55 250.285 211.376Z" fill="#FFB6B6"/>
<path d="M275.603 69.5607L268.283 64.0305C268.283 64.0305 261.825 63.5728 260.681 75.2278C259.538 86.8828 252.377 131.614 252.377 131.614L241.175 183.537L256.681 186.944L268.679 130.91L280.689 92.2516L275.603 69.5607Z" fill="url(#paint2_linear_172_3597)"/>
<path d="M270.026 165.637L234.911 138.312C234.364 137.885 234.009 137.259 233.923 136.57C233.836 135.881 234.027 135.187 234.452 134.638L258.344 103.887C258.77 103.34 259.396 102.984 260.084 102.898C260.772 102.812 261.466 103.002 262.014 103.427L297.129 130.753C297.676 131.179 298.032 131.806 298.118 132.494C298.204 133.183 298.014 133.877 297.589 134.426L273.697 165.177C273.27 165.725 272.645 166.08 271.956 166.166C271.268 166.253 270.574 166.062 270.026 165.637V165.637Z" fill="#2F2E41"/>
<path d="M269.833 162.809L237.697 137.802C237.211 137.423 236.896 136.867 236.819 136.256C236.743 135.644 236.912 135.028 237.289 134.541L258.948 106.663C259.327 106.177 259.883 105.861 260.494 105.785C261.104 105.708 261.721 105.877 262.207 106.255L294.344 131.262C294.829 131.641 295.145 132.197 295.221 132.809C295.298 133.42 295.129 134.037 294.752 134.524L273.092 162.401C272.714 162.887 272.158 163.203 271.547 163.28C270.936 163.356 270.32 163.187 269.833 162.809Z" fill="white"/>
<path d="M241.91 137.093C241.789 136.998 241.71 136.859 241.691 136.706C241.672 136.554 241.714 136.399 241.808 136.278L252.735 122.214C252.829 122.093 252.968 122.014 253.121 121.994C253.196 121.985 253.273 121.991 253.347 122.011C253.42 122.031 253.489 122.065 253.549 122.112C253.609 122.159 253.66 122.217 253.697 122.284C253.735 122.35 253.759 122.423 253.769 122.499C253.778 122.575 253.773 122.651 253.753 122.725C253.732 122.799 253.698 122.867 253.651 122.928L242.725 136.991C242.63 137.112 242.491 137.191 242.338 137.211C242.186 137.23 242.032 137.187 241.91 137.093Z" fill="white"/>
<path d="M243.721 138.502C243.6 138.407 243.521 138.268 243.502 138.115C243.482 137.963 243.525 137.808 243.619 137.687L254.546 123.623C254.64 123.502 254.779 123.423 254.932 123.403C255.084 123.384 255.239 123.427 255.36 123.521C255.482 123.616 255.561 123.755 255.58 123.908C255.599 124.061 255.557 124.215 255.462 124.337L244.536 138.4C244.441 138.521 244.302 138.6 244.149 138.62C243.997 138.639 243.843 138.596 243.721 138.502Z" fill="white"/>
<path d="M251.722 131.944C251.601 131.85 251.522 131.71 251.503 131.558C251.484 131.405 251.526 131.251 251.62 131.129L256.356 125.033C256.403 124.972 256.461 124.922 256.528 124.884C256.594 124.846 256.667 124.822 256.743 124.812C256.819 124.803 256.895 124.808 256.969 124.828C257.043 124.849 257.112 124.883 257.172 124.93C257.232 124.977 257.282 125.035 257.32 125.102C257.358 125.168 257.382 125.241 257.392 125.317C257.401 125.393 257.395 125.47 257.375 125.543C257.355 125.617 257.32 125.686 257.273 125.746L252.537 131.842C252.442 131.964 252.303 132.043 252.151 132.062C251.998 132.081 251.844 132.039 251.722 131.944Z" fill="white"/>
<path d="M254.164 143.907C254.042 143.812 253.963 143.673 253.944 143.521C253.925 143.368 253.967 143.213 254.062 143.092L271.311 120.89C271.358 120.83 271.416 120.779 271.483 120.742C271.549 120.704 271.622 120.68 271.698 120.67C271.773 120.661 271.85 120.666 271.923 120.687C271.997 120.707 272.066 120.741 272.126 120.788C272.186 120.835 272.237 120.893 272.274 120.959C272.312 121.026 272.336 121.099 272.346 121.175C272.355 121.25 272.35 121.327 272.329 121.401C272.309 121.474 272.275 121.543 272.228 121.603L254.978 143.805C254.884 143.927 254.745 144.006 254.592 144.025C254.439 144.044 254.285 144.001 254.164 143.907Z" fill="white"/>
<path d="M255.975 145.316C255.853 145.221 255.774 145.082 255.755 144.93C255.736 144.777 255.778 144.622 255.873 144.501L273.122 122.299C273.169 122.239 273.227 122.188 273.294 122.151C273.36 122.113 273.433 122.089 273.509 122.079C273.584 122.07 273.661 122.075 273.734 122.095C273.808 122.116 273.877 122.15 273.937 122.197C273.997 122.244 274.048 122.302 274.085 122.368C274.123 122.435 274.147 122.508 274.157 122.584C274.166 122.659 274.161 122.736 274.14 122.81C274.12 122.883 274.086 122.952 274.039 123.012L256.789 145.214C256.695 145.336 256.556 145.415 256.403 145.434C256.25 145.453 256.096 145.411 255.975 145.316Z" fill="white"/>
<path d="M260.085 148.515C259.964 148.42 259.885 148.281 259.866 148.128C259.847 147.976 259.889 147.821 259.984 147.7L277.233 125.498C277.28 125.438 277.338 125.387 277.404 125.35C277.471 125.312 277.544 125.288 277.619 125.278C277.695 125.269 277.772 125.274 277.845 125.294C277.919 125.315 277.988 125.349 278.048 125.396C278.108 125.443 278.158 125.501 278.196 125.567C278.234 125.634 278.258 125.707 278.267 125.783C278.277 125.858 278.271 125.935 278.251 126.009C278.231 126.082 278.196 126.151 278.15 126.211L260.9 148.413C260.806 148.534 260.667 148.613 260.514 148.633C260.361 148.652 260.207 148.609 260.085 148.515Z" fill="white"/>
<path d="M261.896 149.924C261.775 149.83 261.696 149.691 261.677 149.538C261.658 149.385 261.7 149.231 261.794 149.109L279.044 126.907C279.091 126.847 279.149 126.797 279.215 126.759C279.281 126.721 279.355 126.697 279.43 126.687C279.506 126.678 279.583 126.683 279.656 126.704C279.73 126.724 279.798 126.758 279.859 126.805C279.919 126.852 279.969 126.91 280.007 126.977C280.045 127.043 280.069 127.116 280.078 127.192C280.088 127.267 280.082 127.344 280.062 127.418C280.042 127.491 280.007 127.56 279.961 127.621L262.711 149.822C262.617 149.944 262.478 150.023 262.325 150.042C262.172 150.061 262.018 150.019 261.896 149.924Z" fill="white"/>
<path d="M266.007 153.123C265.886 153.029 265.807 152.889 265.788 152.737C265.769 152.584 265.811 152.43 265.905 152.308L283.155 130.106C283.202 130.046 283.26 129.996 283.326 129.958C283.392 129.92 283.465 129.896 283.541 129.886C283.617 129.877 283.693 129.882 283.767 129.903C283.84 129.923 283.909 129.957 283.969 130.004C284.03 130.051 284.08 130.109 284.118 130.176C284.155 130.242 284.18 130.315 284.189 130.391C284.199 130.466 284.193 130.543 284.173 130.617C284.153 130.69 284.118 130.759 284.071 130.819L266.822 153.021C266.727 153.143 266.588 153.222 266.436 153.241C266.283 153.26 266.129 153.218 266.007 153.123Z" fill="white"/>
<path d="M267.818 154.532C267.697 154.438 267.618 154.299 267.599 154.146C267.58 153.993 267.622 153.839 267.716 153.717L284.966 131.515C285.06 131.394 285.199 131.316 285.352 131.297C285.504 131.278 285.658 131.32 285.779 131.415C285.901 131.509 285.98 131.648 285.999 131.8C286.018 131.953 285.976 132.107 285.882 132.229L268.633 154.43C268.538 154.552 268.399 154.631 268.247 154.65C268.094 154.669 267.94 154.627 267.818 154.532Z" fill="white"/>
<path d="M238.989 180.316C239.12 180.316 239.227 180.209 239.227 180.078C239.227 179.946 239.12 179.839 238.989 179.839C238.857 179.839 238.75 179.946 238.75 180.078C238.75 180.209 238.857 180.316 238.989 180.316Z" fill="white"/>
<path d="M273.722 15.9452C272.883 20.4532 271.509 24.8445 269.627 29.0253C258.851 51.8391 289.538 44.4029 300.505 44.4029C312.495 44.4029 323.968 50.713 322.215 22.6755C321.467 10.6991 312.495 0.947998 300.505 0.947998C290.263 0.947998 275.863 5.50382 273.722 15.9452Z" fill="#2F2E41"/>
<path d="M311.682 350.541H301.466L296.604 311.106H311.682V350.541Z" fill="#FFB6B6"/>
<path d="M317.073 368.255H309.747L308.44 361.333L305.09 368.255H285.66C284.728 368.255 283.821 367.957 283.071 367.405C282.321 366.852 281.767 366.074 281.489 365.184C281.212 364.294 281.227 363.339 281.53 362.458C281.834 361.577 282.411 360.816 283.178 360.286L298.695 349.562V342.563L315.016 343.538L317.073 368.255Z" fill="#2F2E41"/>
<path d="M372.374 337.638L364.176 343.739L336.762 314.998L348.861 305.994L372.374 337.638Z" fill="#FFB6B6"/>
<path d="M387.263 348.633L381.384 353.008L376.207 348.234L377.647 355.789L362.055 367.393C361.307 367.949 360.402 368.252 359.47 368.256C358.539 368.261 357.631 367.968 356.878 367.419C356.125 366.871 355.566 366.096 355.285 365.207C355.003 364.319 355.013 363.363 355.312 362.481L361.369 344.608L357.196 338.993L370.874 330.028L387.263 348.633Z" fill="#2F2E41"/>
<path d="M278.223 169.05L326.718 161.491L317.074 132.456H278.223V169.05Z" fill="#FFB6B6"/>
<path d="M323.575 147.08C323.575 147.08 342.958 163.839 334.015 211.615L323.097 258.427L352.844 310.111L337.718 318.368L301.061 267.379L284.287 228.002L275.414 158.989L323.575 147.08Z" fill="#2F2E41"/>
<path d="M293.532 239.224L292.366 257.293L295.779 310.8L312.722 316.638L315.931 261.815L293.532 239.224Z" fill="#2F2E41"/>
<path d="M288.323 50.4165L307.069 51.1484L314.539 63.5593L331.584 66.8894L321.409 118.406L323.28 147.729L306.308 147.626C294.076 147.551 282.248 151.998 273.091 160.114L273.599 122.051L266.298 93.6371L267.939 63.8433L281.651 62.128L288.323 50.4165Z" fill="url(#paint3_linear_172_3597)"/>
<path d="M298.708 44.3975C308.452 44.3975 316.351 36.4926 316.351 26.7415C316.351 16.9903 308.452 9.08545 298.708 9.08545C288.965 9.08545 281.066 16.9903 281.066 26.7415C281.066 36.4926 288.965 44.3975 298.708 44.3975Z" fill="#FFB6B6"/>
<path d="M286.728 8.74356C289.819 6.85742 293.36 5.83712 296.98 5.78936C300.601 5.74159 304.167 6.66811 307.308 8.47204C310.448 10.276 313.046 12.891 314.83 16.0438C316.615 19.1966 317.52 22.7713 317.452 26.3941C308.462 28.6529 299.018 30.3815 289.431 26.9344L287.167 21.3892L285.832 26.9385C282.913 28.1328 279.986 29.1432 277.059 26.927C276.939 23.3144 277.769 19.7336 279.466 16.5427C281.163 13.3518 283.667 10.6625 286.728 8.74356Z" fill="#2F2E41"/>
<path d="M328.321 183.326L330.699 204.926C330.865 205.465 331.199 205.936 331.652 206.271C332.105 206.606 332.654 206.787 333.217 206.787H344.18C344.744 206.787 345.292 206.607 345.746 206.272C346.199 205.937 346.533 205.465 346.698 204.926L348.668 188.371C349.237 188.65 349.863 188.79 350.497 188.779C351.13 188.768 351.751 188.607 352.31 188.31C352.869 188.012 353.349 187.585 353.712 187.065C354.074 186.546 354.307 185.947 354.393 185.319C354.479 184.691 354.415 184.052 354.206 183.454C353.997 182.856 353.649 182.316 353.191 181.878C352.733 181.441 352.178 181.118 351.571 180.938C350.964 180.757 350.323 180.723 349.7 180.839C349.454 180.548 349.148 180.315 348.803 180.155C348.457 179.995 348.081 179.913 347.701 179.914H330.84C330.427 179.914 330.021 180.011 329.653 180.197C329.285 180.382 328.965 180.652 328.72 180.984C328.475 181.316 328.312 181.701 328.242 182.108C328.173 182.514 328.2 182.932 328.321 183.326V183.326ZM349.013 187.251L350.219 183.326C350.359 182.873 350.373 182.391 350.259 181.93C350.311 181.928 350.359 181.915 350.411 181.915V187.633Cnan nan nan nan 350.411 187.633C349.92 187.63 349.438 187.498 349.013 187.251V187.251Z" fill="url(#paint4_linear_172_3597)"/>
<path d="M344.852 206.802C344.16 206.106 343.629 205.267 343.296 204.343C342.964 203.42 342.837 202.434 342.926 201.456C343.015 200.479 343.317 199.532 343.811 198.684C344.305 197.836 344.979 197.106 345.785 196.547L335.101 143.438L346.9 147.229L355.452 198.599C356.301 200.016 356.601 201.697 356.296 203.321C355.99 204.945 355.099 206.401 353.793 207.412C352.486 208.423 350.854 208.92 349.207 208.807C347.559 208.695 346.009 207.981 344.852 206.802Z" fill="#FFB6B6"/>
<path d="M326.5 75L331.584 66.8894C331.584 66.8894 338.042 66.4317 339.186 78.0867C340.33 89.7417 347.491 134.473 347.491 134.473L358.693 186.396L343.186 189.802L331.188 133.768L319.178 95.1105L326.5 75Z" fill="url(#paint5_linear_172_3597)"/>
<path d="M261.083 120.765C263.372 120.765 265.227 118.908 265.227 116.618C265.227 114.327 263.372 112.471 261.083 112.471C258.795 112.471 256.939 114.327 256.939 116.618C256.939 118.908 258.795 120.765 261.083 120.765Z" fill="#6C63FF"/>
<path d="M128.941 398.65L137.577 398.65L141.686 365.314L128.94 365.315L128.941 398.65Z" fill="#FFB6B6"/>
<path d="M126.739 395.829L129.169 395.828L138.659 391.966L143.746 395.828H143.747C146.621 395.828 149.378 396.971 151.41 399.005C153.443 401.039 154.585 403.798 154.585 406.675V407.027L126.739 407.028L126.739 395.829Z" fill="#2F2E41"/>
<path d="M162.407 393.204L170.832 395.108L182.176 363.496L169.743 360.687L162.407 393.204Z" fill="#FFB6B6"/>
<path d="M160.88 389.966L163.251 390.502L173.358 388.826L177.469 393.714L177.47 393.715C180.274 394.348 182.711 396.071 184.246 398.503C185.781 400.935 186.288 403.878 185.655 406.684L185.577 407.028L158.415 400.89L160.88 389.966Z" fill="#2F2E41"/>
<path d="M113.132 227.175L120.941 314.738C120.941 314.738 118.015 367.306 127.457 385.804H141.15L147.93 309.937L148.781 259.014L178.138 301.976L159.439 384.564L176.293 386.072L206.635 296.444L173.3 212.305L113.132 227.175Z" fill="#2F2E41"/>
<path d="M121.31 87.734C132.433 87.734 141.45 78.7101 141.45 67.5787C141.45 56.4472 132.433 47.4233 121.31 47.4233C110.188 47.4233 101.171 56.4472 101.171 67.5787C101.171 78.7101 110.188 87.734 121.31 87.734Z" fill="#FFB6B6"/>
<path d="M156.714 106.941L140.192 99.8461L132.149 91.3083L112.056 94.5514L106.725 103.699L89.4672 119.759L109.686 211.252L109.074 231.236C109.074 231.236 122.015 237.066 178.138 223.642C178.811 223.481 177.402 222.776 177.402 222.776L156.714 106.941Z" fill="url(#paint6_linear_172_3597)"/>
<path d="M100.368 79.0153C100.228 78.8237 100.089 78.6304 99.9515 78.4355C99.8961 78.5526 99.8521 78.6735 99.7888 78.7878L100.368 79.0153Z" fill="#2F2E41"/>
<path d="M141.344 52.8359C139.998 49.901 137.598 47.5803 134.62 46.3351C131.669 45.1439 128.371 45.1468 125.422 46.3432C122.759 44.6597 119.801 43.3251 116.686 43.1598C113.57 42.9945 110.276 44.1512 108.356 46.6975C107.927 47.3696 107.441 48.0027 106.901 48.5895C105.358 50.0198 103.012 49.8135 100.961 49.521C101.881 50.3102 102.801 51.0994 103.722 51.8885C102.608 52.1797 101.494 52.4709 100.38 52.7621C101.68 53.551 102.98 54.3399 104.279 55.1288C100.506 57.3953 98.7914 62.3421 99.2444 66.8349C99.6729 71.0886 101.725 74.9782 104.178 78.4355C105.156 76.3689 104.946 73.8961 104.929 71.5685C104.913 69.1092 105.347 66.3165 107.317 64.9421C108.645 64.0149 110.353 63.9735 111.955 63.9823C120.034 64.0267 128.105 64.5309 136.127 65.4926C137.216 65.5397 138.277 65.8478 139.222 66.3909C140.996 67.6022 141.342 70.1019 141.52 72.2948C142.457 68.6739 142.916 64.9456 142.885 61.2052C142.964 58.3382 142.439 55.4866 141.344 52.8359V52.8359Z" fill="#2F2E41"/>
<path d="M147.614 288.557C165.121 288.557 179.313 274.354 179.313 256.834C179.313 239.314 165.121 225.111 147.614 225.111C130.108 225.111 115.916 239.314 115.916 256.834C115.916 274.354 130.108 288.557 147.614 288.557Z" fill="white"/>
<path d="M147.614 224.406C145.985 224.406 144.358 224.529 142.747 224.772C141.922 224.892 141.12 225.047 140.323 225.238C134.476 226.587 129.117 229.535 124.846 233.754C120.576 237.973 117.56 243.297 116.136 249.131C114.712 254.966 114.936 261.081 116.783 266.796C118.63 272.51 122.027 277.598 126.595 281.493C127.137 281.951 127.686 282.396 128.257 282.819C132.369 285.887 137.151 287.934 142.209 288.792C147.266 289.65 152.455 289.293 157.348 287.752C162.241 286.211 166.698 283.529 170.353 279.926C174.007 276.324 176.755 271.905 178.37 267.032C179.985 262.16 180.42 256.973 179.641 251.899C178.861 246.825 176.888 242.009 173.885 237.847C170.883 233.685 166.935 230.296 162.368 227.959C157.8 225.623 152.744 224.405 147.614 224.406V224.406ZM147.614 287.852C141.024 287.859 134.605 285.751 129.3 281.839C128.722 281.416 128.166 280.979 127.623 280.513C123.173 276.756 119.87 271.82 118.095 266.27C116.32 260.72 116.143 254.782 117.586 249.137C119.029 243.491 122.033 238.367 126.252 234.352C130.472 230.337 135.737 227.593 141.444 226.436C142.232 226.274 143.021 226.147 143.825 226.048C145.082 225.893 146.347 225.815 147.614 225.816V287.852Cnan nan nan nan 147.614 287.852V287.852Z" fill="#2F2E41"/>
<path d="M132.067 250.489H163.162C164.301 250.489 165.224 249.565 165.224 248.425V248.324C165.224 247.184 164.301 246.26 163.162 246.26H132.067C130.927 246.26 130.004 247.184 130.004 248.324V248.425C130.004 249.565 130.927 250.489 132.067 250.489Z" fill="#6C63FF"/>
<path d="M132.067 258.949H163.162C164.301 258.949 165.224 258.025 165.224 256.885V256.783C165.224 255.643 164.301 254.719 163.162 254.719H132.067C130.927 254.719 130.004 255.643 130.004 256.783V256.885C130.004 258.025 130.927 258.949 132.067 258.949Z" fill="#6C63FF"/>
<path d="M132.067 267.408H163.162C164.301 267.408 165.224 266.484 165.224 265.344V265.243C165.224 264.103 164.301 263.178 163.162 263.178H132.067C130.927 263.178 130.004 264.103 130.004 265.243V265.344C130.004 266.484 130.927 267.408 132.067 267.408Z" fill="#6C63FF"/>
<path d="M502.249 397.574L493.194 397.574L488.886 362.619L502.25 362.62L502.249 397.574Z" fill="#9E616A"/>
<path d="M459.409 397.574L450.354 397.574L446.046 362.619L459.411 362.62L459.409 397.574Z" fill="#9E616A"/>
<path d="M459.728 407.028L431.882 407.027V406.675C431.882 403.798 433.024 401.039 435.057 399.005C437.089 396.971 439.846 395.828 442.721 395.828H442.721L447.808 391.966L457.298 395.828L459.728 395.829L459.728 407.028Z" fill="#2F2E41"/>
<path d="M503.729 407.028L475.884 407.027V406.675C475.884 403.798 477.026 401.039 479.058 399.005C481.091 396.971 483.848 395.828 486.722 395.828H486.723L491.809 391.966L501.299 395.828L503.73 395.829L503.729 407.028Z" fill="#2F2E41"/>
<path d="M450.527 190.7L436.765 274.564L440.51 287.061L435.595 295.912L442.813 373.642L439.883 380.097L448.068 385.149H464.724L465.608 314.779L469.722 304.447V298.753L478.098 255.843L479.64 315.936L482.076 326.284L480.03 333.652L482.704 338.813L489.807 386.682H508.484L507.039 375.546C508.666 374.721 509.973 373.379 510.755 371.731C511.536 370.082 511.748 368.22 511.357 366.437L510.286 361.556L512.723 347.123L517.162 266.604L515.91 201.635L494.062 184.915L450.527 190.7Z" fill="#2F2E41"/>
<path d="M482.076 83.0094C491.66 83.0094 499.429 75.2345 499.429 65.6436C499.429 56.0528 491.66 48.2778 482.076 48.2778C472.493 48.2778 464.724 56.0528 464.724 65.6436C464.724 75.2345 472.493 83.0094 482.076 83.0094Z" fill="#9E616A"/>
<path d="M444.164 223.98C444.919 223.199 445.494 222.262 445.848 221.235C446.202 220.207 446.327 219.115 446.213 218.034C446.1 216.953 445.751 215.911 445.192 214.979C444.632 214.048 443.875 213.251 442.974 212.644L449.722 187.107L436.722 191.483L432.307 215.063C431.389 216.645 431.082 218.509 431.446 220.302C431.809 222.095 432.817 223.692 434.278 224.792C435.739 225.891 437.553 226.415 439.375 226.266C441.197 226.116 442.901 225.303 444.164 223.98H444.164Z" fill="#9E616A"/>
<path d="M451.265 101.371L448.474 100.792L446.095 102.11C446.095 102.11 439.447 110.981 439.447 119.112C439.447 127.243 431.322 205.597 431.322 205.597L446.095 212.25L457.912 150.897L451.265 101.371Z" fill="url(#paint7_linear_172_3597)"/>
<path d="M497.272 52.9113C497.272 52.9113 501.811 44.2285 491.826 43.4391C491.826 43.4391 483.314 35.7116 474.638 42.0264C474.638 42.0264 469.905 42.0264 467.318 47.3859C467.318 47.3859 463.596 45.9732 462.778 49.7539C462.778 49.7539 460.054 57.6475 462.778 64.7517C465.501 71.8559 466.406 72.6452 466.406 72.6452C466.406 72.6452 461.93 57.7509 472.824 56.9615C483.717 56.1722 495.907 49.3593 496.815 58.0422C497.723 66.725 499.089 68.8644 499.089 68.8644C499.089 68.8644 507.711 56.4634 497.272 52.9113Z" fill="#2F2E41"/>
<path d="M560.659 295.912C559.349 295.913 558.085 295.431 557.109 294.556L504.596 247.774C503.538 246.829 502.897 245.503 502.815 244.086C502.733 242.669 503.215 241.278 504.157 240.216L537.798 202.395C538.742 201.336 540.067 200.695 541.483 200.613C542.899 200.53 544.29 201.013 545.35 201.956L597.864 248.739C598.923 249.682 599.565 251.009 599.647 252.426C599.729 253.843 599.246 255.235 598.303 256.296L564.662 294.117C564.196 294.644 563.63 295.073 562.998 295.379C562.365 295.686 561.678 295.863 560.976 295.902C560.87 295.909 560.764 295.912 560.659 295.912Z" fill="white"/>
<path d="M560.658 296.256C559.265 296.258 557.919 295.744 556.881 294.814L504.367 248.032C503.241 247.026 502.559 245.614 502.472 244.106C502.384 242.598 502.898 241.117 503.9 239.987L537.541 202.166C538.546 201.039 539.956 200.357 541.463 200.27C542.97 200.182 544.45 200.696 545.579 201.699L598.092 248.481C599.22 249.486 599.903 250.898 599.99 252.406C600.078 253.915 599.563 255.396 598.559 256.525L564.918 294.346C564.423 294.906 563.821 295.363 563.148 295.689C562.474 296.015 561.743 296.205 560.996 296.246C560.883 296.252 560.771 296.256 560.658 296.256ZM541.796 201.635C541.186 201.634 540.583 201.762 540.027 202.011C539.47 202.261 538.973 202.625 538.568 203.081L504.927 240.902C504.167 241.759 503.777 242.883 503.844 244.026C503.91 245.17 504.427 246.241 505.282 247.004L557.795 293.786C558.219 294.163 558.712 294.453 559.248 294.64C559.784 294.826 560.351 294.905 560.917 294.872C561.483 294.839 562.037 294.695 562.547 294.448C563.058 294.2 563.514 293.855 563.891 293.431L597.532 255.61C598.294 254.754 598.684 253.63 598.618 252.486C598.551 251.342 598.033 250.271 597.178 249.509L544.664 202.727C543.875 202.022 542.853 201.633 541.795 201.635H541.796Z" fill="#2F2E41"/>
<path d="M579.702 260.093C579.135 260.094 578.587 259.885 578.164 259.508L536.943 222.785C536.715 222.583 536.528 222.338 536.395 222.064C536.262 221.79 536.184 221.492 536.166 221.188C536.147 220.884 536.189 220.579 536.289 220.291C536.389 220.003 536.545 219.737 536.747 219.51C536.95 219.282 537.195 219.096 537.469 218.964C537.744 218.831 538.042 218.754 538.346 218.737C538.65 218.72 538.954 218.763 539.242 218.864C539.529 218.965 539.794 219.121 540.021 219.325L581.242 256.047C581.593 256.359 581.84 256.771 581.952 257.227C582.063 257.683 582.033 258.163 581.866 258.602C581.699 259.041 581.403 259.418 581.016 259.685C580.629 259.951 580.171 260.093 579.702 260.093Z" fill="#6C63FF"/>
<path d="M571.839 268.932C571.272 268.933 570.724 268.725 570.301 268.347L529.08 231.624C528.853 231.422 528.668 231.177 528.536 230.903C528.403 230.63 528.326 230.332 528.309 230.029C528.291 229.725 528.333 229.421 528.433 229.134C528.533 228.846 528.688 228.582 528.89 228.354C529.093 228.127 529.337 227.942 529.611 227.81C529.885 227.677 530.182 227.6 530.485 227.582C530.788 227.565 531.092 227.607 531.379 227.707C531.667 227.807 531.931 227.962 532.158 228.165L573.38 264.887C573.73 265.199 573.978 265.611 574.089 266.067C574.201 266.523 574.171 267.003 574.004 267.442C573.836 267.88 573.54 268.258 573.153 268.524C572.767 268.791 572.308 268.933 571.839 268.932H571.839Z" fill="#6C63FF"/>
<path d="M563.977 277.773C563.409 277.774 562.861 277.565 562.438 277.187L521.217 240.465C520.989 240.263 520.804 240.018 520.671 239.744C520.539 239.47 520.461 239.173 520.443 238.869C520.426 238.565 520.468 238.26 520.568 237.973C520.667 237.685 520.823 237.42 521.025 237.193C521.228 236.966 521.473 236.78 521.746 236.648C522.02 236.515 522.318 236.438 522.621 236.421C522.925 236.403 523.229 236.446 523.516 236.546C523.804 236.646 524.068 236.802 524.295 237.005L565.516 273.727C565.867 274.039 566.115 274.451 566.226 274.907C566.338 275.363 566.308 275.843 566.141 276.282C565.974 276.721 565.677 277.098 565.291 277.365C564.904 277.631 564.446 277.773 563.976 277.773H563.977Z" fill="#6C63FF"/>
<path d="M516.837 225.487C516.308 224.538 515.993 223.484 515.915 222.401C515.837 221.317 515.997 220.229 516.384 219.214C516.772 218.199 517.377 217.281 518.157 216.525C518.937 215.769 519.874 215.194 520.9 214.839L520.945 188.424L532.382 196L530.586 219.923C531.067 221.688 530.884 223.568 530.072 225.208C529.26 226.847 527.876 228.131 526.181 228.817C524.486 229.503 522.599 229.543 520.876 228.929C519.154 228.315 517.717 227.09 516.837 225.487H516.837Z" fill="#9E616A"/>
<path d="M517.894 108.61L523.003 103.681L526.757 106.392C526.757 106.392 530.45 110.827 533.405 124.133C536.359 137.438 533.405 210.618 533.405 210.618L517.155 208.401L519.371 169.963L512.723 137.438L517.894 108.61Z" fill="url(#paint8_linear_172_3597)"/>
<path d="M525.439 104.883L508.224 96.6532L496.536 85.8039L475.223 85.6443L468.347 94.5891L450.197 100.759L453.222 163.395L451.159 168.211C451.159 168.211 452.596 169.511 453.253 170.237C453.909 170.964 452.346 177.047 452.346 177.047L451.464 183.664L453.909 185.413L450.73 189.171L449.941 195.095C449.941 195.095 505.435 181.291 515.92 204.159C516.474 205.367 515.11 193.559 515.11 193.559L513.746 184.915L515.099 177.156L517.162 175.092L513.702 171.63L515.92 155.203L525.439 104.883Z" fill="url(#paint9_linear_172_3597)"/>
<path d="M135.036 243.741C135.463 242.655 135.648 241.489 135.576 240.325C135.504 239.16 135.178 238.025 134.62 237.001C134.063 235.976 133.288 235.086 132.35 234.393C131.411 233.701 130.333 233.222 129.19 232.992L125.366 204.889L114.278 214.589L119.609 239.789C119.35 241.736 119.813 243.711 120.912 245.339C122.01 246.967 123.667 248.135 125.569 248.623C127.47 249.11 129.484 248.882 131.229 247.982C132.974 247.082 134.329 245.573 135.036 243.741V243.741Z" fill="#FFB6B6"/>
<path d="M160.135 239.618C159.335 238.77 158.729 237.757 158.362 236.65C157.995 235.542 157.875 234.368 158.01 233.209C158.145 232.05 158.533 230.935 159.146 229.942C159.758 228.949 160.581 228.103 161.556 227.463L154.634 199.96L168.536 204.823L172.978 230.195C173.944 231.905 174.249 233.91 173.837 235.831C173.424 237.751 172.322 239.454 170.739 240.615C169.156 241.777 167.202 242.317 165.248 242.133C163.294 241.949 161.475 241.055 160.135 239.618Z" fill="#FFB6B6"/>
</g>
<defs>
<linearGradient id="paint0_linear_172_3597" x1="108.851" y1="119.245" x2="108.851" y2="231.315" gradientUnits="userSpaceOnUse">
<stop stop-color="#6B58C9"/>
<stop offset="1" stop-color="#653623"/>
</linearGradient>
<linearGradient id="paint1_linear_172_3597" x1="160.227" y1="107.303" x2="160.227" y2="227" gradientUnits="userSpaceOnUse">
<stop stop-color="#6B5CDC"/>
<stop offset="1" stop-color="#653623"/>
</linearGradient>
<linearGradient id="paint2_linear_172_3597" x1="260.932" y1="64.0281" x2="260.932" y2="186.944" gradientUnits="userSpaceOnUse">
<stop stop-color="#6C63FF"/>
<stop offset="1" stop-color="#653623"/>
</linearGradient>
<linearGradient id="paint3_linear_172_3597" x1="298.941" y1="50.4165" x2="298.941" y2="160.114" gradientUnits="userSpaceOnUse">
<stop stop-color="#6C63FF"/>
<stop offset="0.171875" stop-color="#6B5FE9"/>
<stop offset="1" stop-color="#653623"/>
</linearGradient>
<linearGradient id="paint4_linear_172_3597" x1="341.318" y1="179.914" x2="341.318" y2="206.787" gradientUnits="userSpaceOnUse">
<stop stop-color="#6C63FF"/>
<stop offset="1" stop-color="#653623"/>
</linearGradient>
<linearGradient id="paint5_linear_172_3597" x1="338.935" y1="66.887" x2="338.935" y2="189.802" gradientUnits="userSpaceOnUse">
<stop stop-color="#6C63FF"/>
<stop offset="0.567708" stop-color="#653623"/>
</linearGradient>
<linearGradient id="paint6_linear_172_3597" x1="133.894" y1="91.3083" x2="133.894" y2="232.495" gradientUnits="userSpaceOnUse">
<stop stop-color="#6C63FF"/>
<stop offset="1" stop-color="#653623"/>
</linearGradient>
<linearGradient id="paint7_linear_172_3597" x1="444.617" y1="100.792" x2="444.617" y2="212.25" gradientUnits="userSpaceOnUse">
<stop stop-color="#6B5BD6"/>
<stop offset="1" stop-color="#653623"/>
</linearGradient>
<linearGradient id="paint8_linear_172_3597" x1="523.721" y1="103.681" x2="523.721" y2="210.618" gradientUnits="userSpaceOnUse">
<stop stop-color="#6B5ACF"/>
<stop offset="1" stop-color="#653623"/>
</linearGradient>
<linearGradient id="paint9_linear_172_3597" x1="487.69" y1="85.6443" x2="487.69" y2="204.245" gradientUnits="userSpaceOnUse">
<stop stop-color="#6C63FF"/>
<stop offset="1" stop-color="#653623"/>
</linearGradient>
<clipPath id="clip0_172_3597">
<rect width="600" height="406.08" fill="white" transform="translate(0 0.947998)"/>
</clipPath>
</defs>
</svg>

