<svg width="626" height="598" viewBox="0 0 726 598" fill="none" xmlns="http://www.w3.org/2000/svg">
<path d="M335.616 328.857C334.409 327.308 333.557 325.514 333.119 323.601C332.682 321.688 332.67 319.702 333.084 317.783C333.498 315.865 334.329 314.061 335.517 312.497C336.705 310.934 338.222 309.65 339.961 308.735L337.153 278.188L355.327 271.956L358.685 315.152C360.03 318.17 360.219 321.577 359.217 324.726C358.214 327.875 356.09 330.547 353.246 332.236C350.403 333.926 347.038 334.515 343.788 333.892C340.539 333.269 337.631 331.478 335.616 328.857V328.857Z" fill="#FFB8B8"/>
<path d="M355.126 153.53C355.126 153.53 367.598 127.394 378.68 136.588C389.762 145.781 363.487 223.062 363.487 223.062L359.49 298.084L338.428 295.982L332.473 222.89L355.126 153.53Z" fill="#FFB168"/>
<path d="M187.838 540.209L203.472 552.848L259.728 498.642L236.653 479.989L187.838 540.209Z" fill="#FFB8B8"/>
<path d="M187.982 531.888L218.772 556.777L218.774 556.778C223.977 560.985 227.294 567.084 227.995 573.733C228.696 580.382 226.723 587.037 222.511 592.234L221.995 592.871L171.582 552.12L187.982 531.888Z" fill="#BC80C9"/>
<path d="M405.123 575.292L425.239 575.291L434.808 497.814L405.12 497.815L405.123 575.292Z" fill="#FFB8B8"/>
<path d="M399.992 568.734L439.606 568.732H439.608C446.303 568.733 452.724 571.389 457.458 576.116C462.193 580.844 464.852 587.256 464.853 593.942V594.761L399.993 594.763L399.992 568.734Z" fill="#BC80C9"/>
<path d="M440.42 212.07C440.42 212.07 478.156 257.945 469.953 303.821C461.749 349.697 455.186 384.104 455.186 384.104L442.06 487.324C442.06 487.324 446.982 515.436 440.42 522.68C440.42 522.68 450.264 539.754 432.216 546.308C414.168 552.861 404.43 544.044 404.43 544.044C404.43 544.044 391.198 525.008 399.401 520.093L402.857 317.525L271.424 488.963C271.424 488.963 269.008 509.817 252.168 510.04L232.046 525.008L209.076 511.901L220.561 497.155C220.561 497.155 213.998 480.771 228.765 477.494L314.083 366.081L335.413 308.736C335.413 308.736 346.898 264.499 378.072 246.476V227.299L440.42 212.07Z" fill="#2F2E41"/>
<path d="M375.611 132.606C380.578 126.743 387.532 122.91 395.147 121.836C402.763 120.762 410.507 122.523 416.907 126.783L418.27 127.691C432.833 144.16 442.621 164.285 446.58 185.898L452.725 219.442L375.611 236.123L357.532 173.863C355.238 165.96 355.79 157.505 359.093 149.967C362.396 142.429 368.241 136.286 375.611 132.606V132.606Z" fill="#FFB269"/>
<path d="M502.305 335.989C500.167 335.291 498.208 334.134 496.567 332.598C494.925 331.063 493.641 329.187 492.804 327.102C491.968 325.017 491.599 322.774 491.724 320.532C491.849 318.289 492.465 316.101 493.528 314.122L471.283 286.935L484.531 269.406L515.405 308.24C518.616 310.244 520.979 313.355 522.047 316.984C523.115 320.612 522.812 324.505 521.198 327.925C519.583 331.346 516.768 334.056 513.286 335.542C509.804 337.028 505.897 337.187 502.305 335.989V335.989Z" fill="#FFB8B8"/>
<path d="M408.425 157.182C408.425 157.182 403.503 124.414 419.91 126.052C436.318 127.691 460.929 217.804 460.929 217.804L505.229 291.533L483.899 303.002L431.396 237.465L408.425 157.182Z" fill="#FFB269"/>
<path d="M438.471 109.276H360.34C358.733 109.274 357.192 108.636 356.056 107.501C354.919 106.366 354.28 104.828 354.278 103.223V69.5934C354.278 57.6417 359.033 46.1796 367.496 37.7286C375.959 29.2775 387.437 24.5297 399.406 24.5297C411.374 24.5297 422.852 29.2775 431.315 37.7286C439.778 46.1796 444.533 57.6417 444.533 69.5934V103.223C444.531 104.828 443.892 106.366 442.755 107.501C441.619 108.636 440.078 109.274 438.471 109.276V109.276Z" fill="#2F2E41"/>
<path d="M437.71 91.3018C446.475 75.291 440.582 55.2164 424.549 46.4641C408.515 37.7118 388.412 43.596 379.648 59.6068C370.883 75.6177 376.775 95.6923 392.809 104.445C408.842 113.197 428.945 107.313 437.71 91.3018Z" fill="#FFB8B8"/>
<path d="M455.209 72.9563H413.571L413.144 66.1069L411.009 72.9563H404.598L403.752 59.381L399.52 72.9563H387.115V72.2837C387.115 52.6275 401.071 36.6364 418.226 36.6364H424.097C441.252 36.6364 455.209 52.6275 455.209 72.2837L455.209 72.9563Z" fill="#2F2E41"/>
<path d="M415.294 115.554C414.785 115.553 414.277 115.514 413.774 115.437L364.214 107.814V56.2669C364.214 53.6595 364.729 51.0777 365.728 48.6689C366.727 46.26 368.192 44.0712 370.038 42.2275C371.884 40.3839 374.076 38.9214 376.488 37.9236C378.901 36.9258 381.486 36.4122 384.097 36.4122H418.77L417.42 37.785C398.627 56.8906 412.785 87.8704 422.897 104.636C423.639 105.842 423.974 107.253 423.853 108.662C423.732 110.072 423.161 111.406 422.225 112.467C421.364 113.454 420.298 114.242 419.101 114.775C417.904 115.308 416.605 115.574 415.294 115.554Z" fill="#2F2E41"/>
</svg>
