
<svg width="545" height="485" viewBox="0 0 545 565" fill="none" xmlns="http://www.w3.org/2000/svg">
<path fill-rule="evenodd" clip-rule="evenodd" d="M266.995 512.79C144.875 512.79 45.8755 524.293 45.8755 538.481C45.8755 552.669 144.875 564.17 266.995 564.17C389.117 564.17 488.115 552.669 488.115 538.481C488.115 524.293 389.117 512.79 266.995 512.79Z" fill="#4B5D61" fill-opacity="0.1"/>
<circle cx="272.5" cy="272.5" r="272.5" fill="url(#paint0_linear_324_445)"/>
<path fill-rule="evenodd" clip-rule="evenodd" d="M353.326 541.567H341.704L366.746 269.985H378.375L353.326 541.567Z" fill="#B6A68E"/>
<path fill-rule="evenodd" clip-rule="evenodd" d="M439.004 541.567H450.626L425.583 269.985H413.961L439.004 541.567Z" fill="#B6A68E"/>
<path fill-rule="evenodd" clip-rule="evenodd" d="M289.401 249.341L222.447 232.092C210.949 210.772 198.148 190.181 184.117 170.436C176.662 177.814 172.52 189.148 165.014 196.45L208.646 251.524C210.656 253.75 294.498 262.217 294.498 262.217L289.401 249.341Z" fill="url(#paint1_linear_324_445)"/>
<path d="M193.923 92.5914C194.687 79.8413 192.272 67.101 186.894 55.5152C182.003 45.336 169.904 39.5873 158.867 39.5506C123.83 39.5036 119.377 85.793 97.0637 103.659C90.2506 109.115 82.6301 113.56 76.1826 119.443C52.3685 141.169 63.0968 181.393 84.9643 200.445C100.139 213.657 123.981 221.176 142.687 210.843C152.449 205.448 159.862 196.456 165.147 186.653C172.643 172.707 177.479 156.62 182.802 141.761C188.467 125.948 193.22 109.479 193.923 92.5914Z" fill="#190C1A"/>
<path fill-rule="evenodd" clip-rule="evenodd" d="M174.121 209.83C174.121 209.83 147.829 182.87 141.067 171.161C134.306 159.452 145.691 167.05 157.289 163.993C161.693 162.826 160.577 137.043 168.886 145.424C182.531 159.173 199.688 183.188 199.688 183.188L174.121 209.83Z" fill="url(#paint2_linear_324_445)"/>
<path d="M180.35 523.276H170.592L170.592 380.576H180.35L180.35 523.276Z" fill="#B6A68E"/>
<path fill-rule="evenodd" clip-rule="evenodd" d="M292.37 486.776C292.37 486.776 294.507 509.051 293.104 516.31C292.824 517.52 292.462 518.709 292.02 519.87C290.571 523.945 294.532 536.379 294.532 536.379L347.63 536.564C350.523 536.564 348.592 534.822 346.237 533.214C342.383 530.583 339.28 528.853 327.015 523.37C326.219 523.01 323.301 521.314 322.247 520.694C319.411 518.951 316.828 516.827 314.57 514.381C310.707 510.378 310.121 490.746 310.121 490.746L292.37 486.776Z" fill="url(#paint3_linear_324_445)"/>
<path fill-rule="evenodd" clip-rule="evenodd" d="M322.261 520.692C308.265 524.289 297.856 522.079 292.02 519.915C290.577 523.98 288.09 539.255 289.714 539.255C303.032 539.255 314.064 540.136 352.213 539.563C353.58 539.563 353.411 535.058 352.522 534.066C350.064 531.332 323.315 521.272 322.261 520.692Z" fill="#6C63FF"/>
<path fill-rule="evenodd" clip-rule="evenodd" d="M334.832 449.854C334.832 449.854 346.444 469.272 348.324 476.434C348.594 477.644 348.781 478.87 348.885 480.104C349.337 484.379 358.339 494.121 358.339 494.121L406.729 473.227C409.372 472.086 406.842 471.26 404.006 470.731C399.382 469.868 395.785 469.519 382.246 469.401C381.365 469.401 377.961 468.984 376.742 468.887C373.399 468.423 370.132 467.515 367.028 466.188C361.766 464.081 352.708 446.458 352.708 446.458L334.832 449.854Z" fill="url(#paint4_linear_324_445)"/>
<path fill-rule="evenodd" clip-rule="evenodd" d="M376.268 468.865C365.102 477.698 354.688 479.815 348.424 480.169C348.876 484.444 352.37 498.029 353.846 497.387C365.961 492.102 377.26 489.824 411.721 474.163C412.954 473.603 410.852 469.585 409.614 469.024C406.186 467.498 377.491 468.972 376.268 468.865Z" fill="#6C63FF"/>
<path d="M185.657 284.034V295.477L298.225 318.083L326.162 398.308L310.593 388.142L314.19 511.681L290.514 511.841C290.514 511.841 249.502 408.235 262.943 356.089L138.356 357.914C138.356 357.914 81.8931 337.068 111.032 274.224L185.657 284.034Z" fill="#28141A" stroke="#232021" stroke-width="0.6024" stroke-linecap="round" stroke-linejoin="round"/>
<path d="M175.783 295.475C175.783 295.475 292.55 296.225 300.849 302.329C309.147 308.433 371.374 460.129 371.374 460.129L344.229 469.818C344.229 469.818 290.234 383.753 287.377 377.612C284.52 371.471 263.602 326.597 255.618 322.018C247.633 317.44 175.783 295.475 175.783 295.475Z" fill="#30181C" stroke="#232021" stroke-width="0.6024" stroke-linecap="round" stroke-linejoin="round"/>
<path fill-rule="evenodd" clip-rule="evenodd" d="M187.229 529.637C187.229 526.123 184.382 523.273 180.868 523.27H168.989C165.475 523.273 162.628 526.123 162.628 529.637L123.805 529.638C119.342 529.636 115.721 533.249 115.713 537.712C115.716 538.494 116.35 539.126 117.131 539.126H227.429C228.21 539.126 228.845 538.494 228.847 537.712C228.84 533.251 225.221 529.638 220.76 529.638H187.229V529.637Z" fill="#B6A68E"/>
<path fill-rule="evenodd" clip-rule="evenodd" d="M143.611 133.646C143.611 133.646 120.123 129.022 109.407 137.962C98.6901 146.902 111.703 226.521 111.692 239.695C111.682 252.869 104.335 290.176 104.335 290.176C104.335 290.176 175.511 302.663 186.815 282.865C186.815 282.865 190.031 207.387 189.554 197.896C189.077 188.406 178.522 149.599 175.608 145.431C172.694 141.263 143.611 133.646 143.611 133.646Z" fill="url(#paint5_linear_324_445)"/>
<path fill-rule="evenodd" clip-rule="evenodd" d="M143.463 97.3184C143.463 97.3184 143.34 98.0216 143.12 99.2151C142.057 104.949 137.951 123.966 135.181 129.19C131.831 135.509 146.643 155.656 160.902 153.2C165.146 152.466 157.305 134.703 157.69 132.794C158.409 129.198 159.39 124.27 160.388 119.23C160.953 116.383 161.523 113.496 162.058 110.787C163.598 103.088 164.827 96.7885 164.827 96.7885L143.463 97.3184Z" fill="url(#paint6_linear_324_445)"/>
<path fill-rule="evenodd" clip-rule="evenodd" d="M182.138 93.1962C180.262 96.8354 177.123 98.8481 175.119 97.6869C173.115 96.5257 173.008 92.6619 174.879 89.0256C176.749 85.3893 179.892 83.3782 181.896 84.5394C183.899 85.7006 184.008 89.5688 182.138 93.1962Z" fill="url(#paint7_linear_324_445)"/>
<path fill-rule="evenodd" clip-rule="evenodd" d="M160.781 57.6629C160.781 57.6629 150.711 56.5017 144.395 64.6507C138.08 72.7996 131.283 97.9922 146.964 111.69C162.646 125.388 178.138 109.88 180.435 93.4443C182.732 77.0084 183.625 57.0669 160.781 57.6629Z" fill="url(#paint8_linear_324_445)"/>
<path d="M161.906 54.9691C161.906 54.9691 148.454 78.9315 138.83 80.0325C129.206 81.1335 127.942 93.8597 127.942 93.8597C127.942 93.8597 131.38 64.52 140.913 58.8638C150.446 53.2075 161.906 54.9691 161.906 54.9691Z" fill="#190C1A"/>
<path d="M176.586 54.9691C176.586 54.9691 189.604 66.8248 184.333 75.9265C176.586 69.7506 163.383 69.7506 159.459 57.6042C155.535 45.4579 176.586 54.9691 176.586 54.9691Z" fill="#190C1A"/>
<path fill-rule="evenodd" clip-rule="evenodd" d="M139.219 91.3333C139.292 92.2419 138.712 93.0751 137.835 93.3225C135.107 93.8965 132.271 90.8856 131.481 86.6445C130.691 82.4034 132.275 78.4823 135.005 77.9069C137.06 77.4723 139.181 79.0739 140.436 81.7134" fill="url(#paint9_linear_324_445)"/>
<path fill-rule="evenodd" clip-rule="evenodd" d="M124.951 349.359C124.951 349.359 241.04 351.342 253.141 349.359C265.242 347.375 270.487 362.543 266.869 370.492C263.25 378.441 253.319 381.502 238.692 382.236C224.064 382.97 102.313 386.392 98.8795 383.141C96.0742 380.485 59.1683 254.303 45.7375 208.153C43.0478 198.932 48.3364 189.274 57.555 186.574C66.7304 183.878 76.363 189.084 79.1347 198.237L124.951 349.359Z" fill="#514846"/>
<path fill-rule="evenodd" clip-rule="evenodd" d="M400.743 177.667H303.331C300.754 177.667 298.433 179.227 297.459 181.613L267.457 254.769H213.757C213.036 254.768 212.343 255.053 211.832 255.563C211.321 256.073 211.034 256.766 211.034 257.487C211.037 258.988 212.256 260.203 213.757 260.2H366.601C370.804 260.2 374.615 257.735 376.337 253.901L406.538 186.622C407.419 184.656 407.244 182.378 406.074 180.57C404.903 178.762 402.897 177.669 400.743 177.667Z" fill="white"/>
<path d="M345.208 216.587C344.781 219.703 341.925 221.894 338.806 221.499C335.77 220.667 333.975 217.541 334.788 214.5C335.215 211.386 338.073 209.199 341.19 209.599C344.22 210.432 346.013 213.55 345.208 216.587Z" fill="#D6D6D6"/>
<path d="M486.313 270.568L199.983 270.568C198.988 270.568 198.182 269.481 198.182 268.142V261.983C198.182 260.643 198.988 259.557 199.983 259.557L486.313 259.557C487.308 259.557 488.114 260.643 488.114 261.983V268.142C488.114 269.481 487.308 270.568 486.313 270.568Z" fill="#514846"/>
<path fill-rule="evenodd" clip-rule="evenodd" d="M246.541 541.567H234.915L259.962 269.985H271.584L246.541 541.567Z" fill="#B6A68E"/>
<path fill-rule="evenodd" clip-rule="evenodd" d="M341.616 541.567H353.238L328.195 269.985H316.568L341.616 541.567Z" fill="#B6A68E"/>
<path fill-rule="evenodd" clip-rule="evenodd" d="M221.124 238.989C219.433 239.832 172.68 232.202 159.321 232.202C157.773 227.938 148.347 198.563 146.97 194.529C139.833 199.667 127.347 202.529 119.959 207.195C125.354 220.554 145.209 252.935 148.945 254.612C160.316 259.692 215.979 256.332 224.713 250.064C225.196 252.423 242.256 250.387 245.731 248.331C256.97 254.795 267.728 251.341 271.543 250.064C274.69 249.008 256.848 241.784 245.731 237.101C239.708 234.572 221.917 238.594 221.124 238.989Z" fill="url(#paint10_linear_324_445)"/>
<path fill-rule="evenodd" clip-rule="evenodd" d="M117.927 210.231C117.927 210.231 102.445 175.909 100.092 162.586C97.7389 149.264 109.172 132.545 121.158 133.622C133.144 134.7 151.057 193.978 151.057 193.978L117.927 210.231Z" fill="url(#paint11_linear_324_445)"/>
<defs>
<linearGradient id="paint0_linear_324_445" x1="272.5" y1="0" x2="272.5" y2="545" gradientUnits="userSpaceOnUse">
<stop stop-color="#C6C6C6"/>
<stop offset="1" stop-color="white" stop-opacity="0"/>
</linearGradient>
<linearGradient id="paint1_linear_324_445" x1="313.889" y1="244.372" x2="167.622" y2="141.275" gradientUnits="userSpaceOnUse">
<stop stop-color="#B3826E"/>
<stop offset="1" stop-color="#2D181B"/>
</linearGradient>
<linearGradient id="paint2_linear_324_445" x1="208.456" y1="193.096" x2="138.631" y2="193.096" gradientUnits="userSpaceOnUse">
<stop stop-color="#6C63FF"/>
<stop offset="1" stop-color="#653623"/>
</linearGradient>
<linearGradient id="paint3_linear_324_445" x1="357.677" y1="526.884" x2="284.814" y2="484.926" gradientUnits="userSpaceOnUse">
<stop stop-color="#B3826E"/>
<stop offset="1" stop-color="#2D181B"/>
</linearGradient>
<linearGradient id="paint4_linear_324_445" x1="418.776" y1="484.854" x2="340.925" y2="425.273" gradientUnits="userSpaceOnUse">
<stop stop-color="#B3826E"/>
<stop offset="1" stop-color="#2D181B"/>
</linearGradient>
<linearGradient id="paint5_linear_324_445" x1="190.003" y1="242.125" x2="103.757" y2="253.135" gradientUnits="userSpaceOnUse">
<stop stop-color="#6C63FF"/>
<stop offset="1" stop-color="#653623"/>
</linearGradient>
<linearGradient id="paint6_linear_324_445" x1="169.338" y1="142.398" x2="121.763" y2="129.751" gradientUnits="userSpaceOnUse">
<stop stop-color="#B3826E"/>
<stop offset="1" stop-color="#2D181B"/>
</linearGradient>
<linearGradient id="paint7_linear_324_445" x1="184.959" y1="95.3316" x2="170.091" y2="89.9885" gradientUnits="userSpaceOnUse">
<stop stop-color="#B3826E"/>
<stop offset="1" stop-color="#2D181B"/>
</linearGradient>
<linearGradient id="paint8_linear_324_445" x1="188.168" y1="105.416" x2="122.53" y2="80.9965" gradientUnits="userSpaceOnUse">
<stop stop-color="#B3826E"/>
<stop offset="1" stop-color="#2D181B"/>
</linearGradient>
<linearGradient id="paint9_linear_324_445" x1="141.808" y1="90.368" x2="127.556" y2="86.1762" gradientUnits="userSpaceOnUse">
<stop stop-color="#B3826E"/>
<stop offset="1" stop-color="#2D181B"/>
</linearGradient>
<linearGradient id="paint10_linear_324_445" x1="294.664" y1="244.922" x2="190.767" y2="118.831" gradientUnits="userSpaceOnUse">
<stop stop-color="#B3826E"/>
<stop offset="1" stop-color="#2D181B"/>
</linearGradient>
<linearGradient id="paint11_linear_324_445" x1="158.47" y1="190.818" x2="99.4348" y2="190.818" gradientUnits="userSpaceOnUse">
<stop stop-color="#6C63FF"/>
<stop offset="1" stop-color="#653623"/>
</linearGradient>
</defs>
</svg>
