<svg width="100" height="86" viewBox="0 0 100 104" fill="none" xmlns="http://www.w3.org/2000/svg">
<circle cx="50" cy="50" r="50" fill="#FFB168"/>
<path d="M45.512 37.052V49.988H71.468V62.84H45.512V83H28.88V24.2H74.996V37.052H45.512Z" fill="white"/>
<mask id="mask0_22:10" style="mask-type:alpha" maskUnits="userSpaceOnUse" x="28" y="24" width="47" height="59">
<path d="M45.512 37.052V49.988H71.468V62.84H45.512V83H28.88V24.2H74.996V37.052H45.512Z" fill="#E5E5E5"/>
</mask>
<g mask="url(#mask0_22:10)">
<path d="M20.5 22.5C13 13.5 20.5 32 20.5 32L8.5 62.5L32.5 89.5C32.5 89.5 51.5 92 44 81.5C36.5 71 42 57.5 36.5 50C31 42.5 28 31.5 20.5 22.5Z" fill="url(#paint0_linear_22:10)"/>
<path d="M75.2525 75.2601C82.7525 84.2601 75.2525 65.7602 75.2525 65.7602L87.2525 35.2602L63.2525 8.26016C63.2525 8.26016 44.2525 5.76014 51.7525 16.2602C59.2525 26.7602 53.7525 40.2602 59.2525 47.7601C64.7525 55.2601 67.7525 66.2601 75.2525 75.2601Z" fill="url(#paint1_linear_22:10)"/>
</g>
<defs>
<linearGradient id="paint0_linear_22:10" x1="26" y1="32" x2="26" y2="89.5" gradientUnits="userSpaceOnUse">
<stop stop-color="#BC80C9"/>
<stop offset="1" stop-color="#FFB168"/>
</linearGradient>
<linearGradient id="paint1_linear_22:10" x1="69.7525" y1="65.7602" x2="69.7525" y2="8.26018" gradientUnits="userSpaceOnUse">
<stop stop-color="#BC80C9"/>
<stop offset="1" stop-color="#FFB168"/>
</linearGradient>
</defs>
</svg>
