<svg width="277" height="119" viewBox="0 0 277 119" fill="none" xmlns="http://www.w3.org/2000/svg">
<circle cx="50" cy="54" r="50" fill="#80BCC9"/>
<path d="M51.6777 55.5918C54.8011 55.1279 57.4142 54.7104 59.5171 54.3394C61.62 53.9373 64.2949 53.3962 67.542 52.7158C67.7275 52.6849 68.779 52.4684 70.6963 52.0664C71.3457 53.0251 71.825 54.1538 72.1343 55.4526C72.4435 56.7515 72.5981 58.0658 72.5981 59.3955C72.5981 61.2819 72.3507 63.1064 71.856 64.8691C71.3612 66.6009 70.82 67.776 70.2324 68.3945C69.3047 68.5492 68.1605 68.6265 66.7998 68.6265C64.3877 68.6265 61.9601 68.2863 59.5171 67.606C57.0741 66.9256 54.7393 65.9515 52.5127 64.6836L52.2808 64.9155C53.5177 68.3481 54.4609 71.4097 55.1104 74.1001C55.7598 76.7905 56.0845 79.5119 56.0845 82.2642C56.0845 83.161 56.0381 84.0732 55.9453 85.001C55.7907 86.8874 54.8939 88.5882 53.2549 90.1035C51.6468 91.6188 49.714 92.8094 47.4565 93.6753C45.1991 94.5103 43.0962 94.9277 41.1479 94.9277C39.3543 94.9277 37.6071 94.4484 35.9062 93.4897C34.2054 92.5311 32.7056 91.356 31.4067 89.9644C30.1388 88.5728 29.1647 87.2275 28.4844 85.9287L31.4995 79.5737H42.3076L28.0205 35.8774C27.9896 35.661 27.9741 35.3208 27.9741 34.8569C27.9741 32.8778 28.438 30.6976 29.3657 28.3164C30.2935 25.9043 31.4686 23.9715 32.8911 22.5181L53.7188 26.8784L70.1396 22.147C71.5622 22.8892 72.6445 24.188 73.3867 26.0435C74.1289 27.8989 74.5 29.9863 74.5 32.3057C74.5 34.7796 74.0825 37.1144 73.2476 39.3101C72.4126 41.5057 71.2375 43.1138 69.7222 44.1343C63.63 43.2684 56.3937 41.6294 48.0132 39.2173L51.6777 55.5918Z" fill="white"/>
<mask id="mask0_97:2" style="mask-type:alpha" maskUnits="userSpaceOnUse" x="27" y="22" width="48" height="73">
<path d="M51.6777 55.5918C54.8011 55.1279 57.4142 54.7104 59.5171 54.3394C61.62 53.9373 64.2949 53.3962 67.542 52.7158C67.7275 52.6849 68.779 52.4684 70.6963 52.0664C71.3457 53.0251 71.825 54.1538 72.1343 55.4526C72.4435 56.7515 72.5981 58.0658 72.5981 59.3955C72.5981 61.2819 72.3507 63.1064 71.856 64.8691C71.3612 66.6009 70.82 67.776 70.2324 68.3945C69.3047 68.5492 68.1605 68.6265 66.7998 68.6265C64.3877 68.6265 61.9601 68.2863 59.5171 67.606C57.0741 66.9256 54.7393 65.9515 52.5127 64.6836L52.2808 64.9155C53.5177 68.3481 54.4609 71.4097 55.1104 74.1001C55.7598 76.7905 56.0845 79.5119 56.0845 82.2642C56.0845 83.161 56.0381 84.0732 55.9453 85.001C55.7907 86.8874 54.8939 88.5882 53.2549 90.1035C51.6468 91.6188 49.714 92.8094 47.4565 93.6753C45.1991 94.5103 43.0962 94.9277 41.1479 94.9277C39.3543 94.9277 37.6071 94.4484 35.9062 93.4897C34.2054 92.5311 32.7056 91.356 31.4067 89.9644C30.1388 88.5728 29.1647 87.2275 28.4844 85.9287L31.4995 79.5737H42.3076L28.0205 35.8774C27.9896 35.661 27.9741 35.3208 27.9741 34.8569C27.9741 32.8778 28.438 30.6976 29.3657 28.3164C30.2935 25.9043 31.4686 23.9715 32.8911 22.5181L53.7188 26.8784L70.1396 22.147C71.5622 22.8892 72.6445 24.188 73.3867 26.0435C74.1289 27.8989 74.5 29.9863 74.5 32.3057C74.5 34.7796 74.0825 37.1144 73.2476 39.3101C72.4126 41.5057 71.2375 43.1138 69.7222 44.1343C63.63 43.2684 56.3937 41.6294 48.0132 39.2173L51.6777 55.5918Z" fill="white"/>
</mask>
<g mask="url(#mask0_97:2)">
</g>
<path d="M142.802 42.2744C142.694 43.9574 142.596 45.6224 142.506 47.2695C142.417 48.9167 142.3 50.5817 142.157 52.2646L130.771 52.8555V56.2393H140.653L140.116 64.5645L130.717 64.833L130.771 80.7314L117.182 81L118.041 42.2744H142.802ZM175.646 55.1113C175.646 56.5078 175.521 57.779 175.27 58.9248C175.037 60.0527 174.661 61.0911 174.142 62.04C173.623 62.9889 172.951 63.8662 172.128 64.6719C171.304 65.4775 170.311 66.2474 169.147 66.9814L175.539 78.3682L163.454 80.7314L159.318 69.291L155.988 69.3984L155.504 80.5703H143.957C144.046 76.4883 144.127 72.4242 144.198 68.3779C144.288 64.3317 144.386 60.2676 144.494 56.1855C144.529 54.1266 144.565 52.0856 144.601 50.0625C144.637 48.0394 144.708 45.9984 144.816 43.9395C146.069 43.474 147.305 43.089 148.522 42.7847C149.739 42.4803 150.957 42.2476 152.174 42.0864C153.41 41.9074 154.654 41.791 155.907 41.7373C157.178 41.6657 158.476 41.6299 159.801 41.6299C161.842 41.6299 163.812 41.9163 165.709 42.4893C167.625 43.0443 169.317 43.8857 170.785 45.0137C172.253 46.1416 173.426 47.547 174.303 49.23C175.198 50.9129 175.646 52.8734 175.646 55.1113ZM163.615 55.9707C163.615 55.2188 163.507 54.5295 163.292 53.9028C163.096 53.2762 162.791 52.7391 162.379 52.2915C161.986 51.826 161.484 51.4679 160.875 51.2173C160.285 50.9487 159.586 50.8145 158.781 50.8145C158.423 50.8145 158.074 50.8413 157.733 50.895C157.393 50.9308 157.062 50.9935 156.74 51.083L156.31 61.0732H156.955C157.724 61.0732 158.503 60.9748 159.291 60.7778C160.097 60.5809 160.813 60.2765 161.439 59.8647C162.084 59.453 162.603 58.9248 162.997 58.2803C163.409 57.6357 163.615 56.8659 163.615 55.9707ZM191.544 43.1875L189.665 79.7646L178.332 80.3555L177.257 43.9395L191.544 43.1875ZM226.698 43.3486L216.869 79.6572L203.549 80.4092L191.464 45.3359L204.193 44.1543L209.35 64.5645L214.345 42.543L226.698 43.3486ZM241.549 43.1875L239.669 79.7646L228.336 80.3555L227.262 43.9395L241.549 43.1875ZM276.247 44.4229L265.773 61.5566L275.226 76.8643L264 80.3555L258.629 69.9355L252.936 80.9463L241.334 76.7568L251.217 61.1807L242.194 45.873L254.494 42.9189L258.898 52.6406L263.571 42.9189L276.247 44.4229Z" fill="white"/>
</svg>
