<svg width="165" height="196" viewBox="0 0 165 196" fill="none" xmlns="http://www.w3.org/2000/svg">
<path d="M163.736 159H1.26449C1.09883 159.001 0.934589 158.976 0.781223 158.926C0.627857 158.876 0.488398 158.802 0.370869 158.709C0.25334 158.616 0.160044 158.506 0.0963942 158.384C0.0327445 158.262 0 158.132 0 158C0 157.868 0.0327445 157.738 0.0963942 157.616C0.160044 157.494 0.25334 157.384 0.370869 157.291C0.488398 157.198 0.627857 157.124 0.781223 157.074C0.934589 157.024 1.09883 156.999 1.26449 157H163.736C163.901 156.999 164.065 157.024 164.219 157.074C164.372 157.124 164.512 157.198 164.629 157.291C164.747 157.384 164.84 157.494 164.904 157.616C164.967 157.738 165 157.868 165 158C165 158.132 164.967 158.262 164.904 158.384C164.84 158.506 164.747 158.616 164.629 158.709C164.512 158.802 164.372 158.876 164.219 158.926C164.065 158.976 163.901 159.001 163.736 159V159Z" fill="#E6E6E6"/>
<path d="M94.6566 90H31.3434C27.8057 89.996 24.4141 88.5889 21.9126 86.0874C19.4111 83.5859 18.004 80.1943 18 76.6566V13.343C18.004 9.80543 19.4112 6.41388 21.9127 3.91244C24.4142 1.411 27.8058 0.00396006 31.3434 0H94.6566C98.1942 0.00396006 101.586 1.411 104.087 3.91244C106.589 6.41388 107.996 9.80543 108 13.343V76.6566C107.996 80.1943 106.589 83.5859 104.087 86.0874C101.586 88.5889 98.1943 89.996 94.6566 90V90Z" fill="#808CC9"/>
<path opacity="0.1" d="M133.657 119H70.3434C66.8058 118.996 63.4142 117.589 60.9127 115.088C58.4112 112.586 57.004 109.195 57 105.657V42.3434C57.004 38.8057 58.4111 35.4141 60.9126 32.9126C63.4141 30.4111 66.8057 29.004 70.3434 29H133.657C137.194 29.004 140.586 30.4111 143.087 32.9126C145.589 35.4141 146.996 38.8057 147 42.3434V105.657C146.996 109.195 145.589 112.586 143.087 115.088C140.586 117.589 137.194 118.996 133.657 119Z" fill="black"/>
<path d="M87.0006 45V85.2492C85.658 84.8171 84.2553 84.6008 82.8448 84.6084C76.8602 84.6084 72 88.8432 72 94.8276C72 100.812 76.8602 105 82.8448 105C88.8295 105 93.7197 100.594 93.7197 94.2V66.2496H125.281V85.2492C123.938 84.817 122.536 84.6007 121.125 84.6084C115.141 84.6084 110.28 88.8432 110.28 94.8276C110.28 100.812 115.141 105 121.125 105C127.11 105 132 100.594 132 94.2V45H87.0006ZM125.282 60H93.7209V51.72H125.282V60Z" fill="white"/>
<path d="M80.5 195C80.3674 195 80.2402 194.932 80.1465 194.81C80.0527 194.688 80 194.522 80 194.35V182.65C80 182.478 80.0527 182.312 80.1465 182.19C80.2402 182.068 80.3674 182 80.5 182C80.6326 182 80.7598 182.068 80.8535 182.19C80.9473 182.312 81 182.478 81 182.65V194.35C81 194.522 80.9473 194.688 80.8535 194.81C80.7598 194.932 80.6326 195 80.5 195Z" fill="white"/>
<path d="M85 195C84.7348 195 84.4804 194.932 84.2929 194.81C84.1054 194.688 84 194.522 84 194.35V182.65C84 182.478 84.1054 182.312 84.2929 182.19C84.4804 182.068 84.7348 182 85 182C85.2652 182 85.5196 182.068 85.7071 182.19C85.8946 182.312 86 182.478 86 182.65V194.35C86 194.522 85.8946 194.688 85.7071 194.81C85.5196 194.932 85.2652 195 85 195Z" fill="white"/>
<path d="M34.4535 196C34.1816 195.999 33.9147 195.926 33.6799 195.786L25.7508 190.347C25.7358 190.338 25.721 190.329 25.7063 190.319C25.4873 190.179 25.3073 189.984 25.1836 189.753C25.06 189.521 24.9968 189.262 25.0001 188.999C24.9985 188.722 25.0693 188.45 25.2052 188.211C25.3411 187.971 25.5373 187.773 25.7736 187.636L33.6405 182.235C33.8747 182.088 34.1433 182.007 34.4186 182C34.694 181.994 34.966 182.062 35.2066 182.199C35.4472 182.335 35.6476 182.534 35.7871 182.776C35.9266 183.017 36.0001 183.293 36 183.573V194.424C35.999 194.841 35.8359 195.241 35.5461 195.537C35.2564 195.832 34.8636 195.998 34.4535 196V196ZM34.3862 194.637C34.4152 194.647 34.4458 194.649 34.4758 194.645C34.5059 194.64 34.5346 194.629 34.5599 194.612C34.5928 194.594 34.6202 194.567 34.639 194.533C34.6578 194.5 34.6674 194.463 34.6667 194.424V183.573C34.6667 183.535 34.6568 183.497 34.6381 183.464C34.6194 183.431 34.5925 183.404 34.5601 183.385C34.5277 183.366 34.4909 183.356 34.4535 183.356C34.4161 183.356 34.3793 183.366 34.3469 183.385L26.4796 188.786C26.3473 188.865 26.3334 188.952 26.3334 188.999C26.3327 189.037 26.3422 189.074 26.361 189.107C26.3797 189.141 26.407 189.168 26.4399 189.186L26.4796 189.211L34.3862 194.637Z" fill="white"/>
<path d="M129.535 196C129.267 195.999 129.005 195.927 128.774 195.79C128.537 195.653 128.341 195.455 128.205 195.215C128.069 194.976 127.998 194.704 128 194.427V183.573C128 183.297 128.071 183.026 128.207 182.787C128.343 182.547 128.538 182.349 128.773 182.211C129.009 182.073 129.275 182 129.547 182C129.818 182 130.085 182.073 130.32 182.211L138.266 187.663C138.493 187.801 138.68 187.997 138.809 188.232C138.938 188.466 139.003 188.731 139 189C139.001 189.272 138.933 189.54 138.801 189.777C138.67 190.013 138.479 190.211 138.249 190.349L130.359 195.765C130.11 195.916 129.825 195.997 129.535 196V196ZM129.333 194.427C129.333 194.465 129.343 194.503 129.362 194.536C129.381 194.569 129.407 194.596 129.44 194.615C129.472 194.634 129.509 194.644 129.547 194.644C129.584 194.644 129.621 194.634 129.653 194.615L137.55 189.194C137.585 189.174 137.613 189.147 137.634 189.113C137.654 189.079 137.665 189.04 137.667 189.001V189C137.667 188.962 137.658 188.924 137.639 188.891C137.62 188.858 137.593 188.831 137.56 188.812L129.614 183.36C129.585 183.351 129.554 183.348 129.524 183.352C129.494 183.356 129.465 183.368 129.44 183.385C129.407 183.404 129.38 183.431 129.361 183.464C129.342 183.497 129.333 183.535 129.333 183.573L129.333 194.427Z" fill="white"/>
<path d="M46.5 166C51.1944 166 55 162.418 55 158C55 153.582 51.1944 150 46.5 150C41.8056 150 38 153.582 38 158C38 162.418 41.8056 166 46.5 166Z" fill="#3F3D56"/>
<path d="M140.5 195C140.367 195 140.24 194.932 140.146 194.81C140.053 194.688 140 194.522 140 194.35V182.65C140 182.478 140.053 182.312 140.146 182.19C140.24 182.068 140.367 182 140.5 182C140.633 182 140.76 182.068 140.854 182.19C140.947 182.312 141 182.478 141 182.65V194.35C141 194.522 140.947 194.688 140.854 194.81C140.76 194.932 140.633 195 140.5 195V195Z" fill="white"/>
<path d="M23.5 195C23.3674 195 23.2402 194.932 23.1465 194.81C23.0527 194.688 23 194.522 23 194.35V182.65C23 182.478 23.0527 182.312 23.1465 182.19C23.2402 182.068 23.3674 182 23.5 182C23.6326 182 23.7598 182.068 23.8535 182.19C23.9473 182.312 24 182.478 24 182.65V194.35C24 194.522 23.9473 194.688 23.8535 194.81C23.7598 194.932 23.6326 195 23.5 195V195Z" fill="white"/>
</svg>
