<svg width="239" height="116" viewBox="0 0 239 116" fill="none" xmlns="http://www.w3.org/2000/svg">
<circle cx="45" cy="45.55" r="45" fill="#80BCC9"/>
<path d="M44.9629 47.4863C47.363 47.1299 49.3709 46.8091 50.9868 46.5239C52.6027 46.215 54.6582 45.7992 57.1533 45.2764C57.2959 45.2526 58.1038 45.0863 59.5771 44.7773C60.0762 45.514 60.4445 46.3813 60.6821 47.3794C60.9198 48.3774 61.0386 49.3874 61.0386 50.4092C61.0386 51.8587 60.8485 53.2607 60.4683 54.6152C60.0881 55.946 59.6722 56.849 59.2207 57.3242C58.5078 57.443 57.6286 57.5024 56.583 57.5024C54.7295 57.5024 52.8641 57.241 50.9868 56.7183C49.1095 56.1955 47.3154 55.4469 45.6045 54.4727L45.4263 54.6509C46.3768 57.2886 47.1016 59.6411 47.6006 61.7085C48.0996 63.7759 48.3491 65.867 48.3491 67.9819C48.3491 68.6711 48.3135 69.3721 48.2422 70.085C48.1234 71.5345 47.4342 72.8415 46.1748 74.0059C44.9391 75.1702 43.4539 76.0851 41.7192 76.7505C39.9845 77.3921 38.3687 77.7129 36.8716 77.7129C35.4933 77.7129 34.1507 77.3446 32.8438 76.6079C31.5368 75.8713 30.3843 74.9683 29.3862 73.8989C28.4119 72.8296 27.6634 71.7959 27.1406 70.7979L29.4575 65.9146H37.7627L26.7842 32.3374C26.7604 32.1711 26.7485 31.9097 26.7485 31.5532C26.7485 30.0324 27.105 28.3571 27.8179 26.5273C28.5308 24.6738 29.4338 23.1886 30.5269 22.0718L46.5312 25.4224L59.1494 21.7866C60.2425 22.3569 61.0742 23.355 61.6445 24.7808C62.2148 26.2065 62.5 27.8105 62.5 29.5928C62.5 31.4938 62.1792 33.2879 61.5376 34.9751C60.896 36.6623 59.993 37.8979 58.8286 38.6821C54.1473 38.0168 48.5868 36.7573 42.147 34.9038L44.9629 47.4863Z" fill="white"/>
<mask id="mask0_97:2" style="mask-type:alpha" maskUnits="userSpaceOnUse" x="26" y="21" width="37" height="57">
<path d="M44.9629 47.4863C47.363 47.1299 49.3709 46.8091 50.9868 46.5239C52.6027 46.215 54.6582 45.7992 57.1533 45.2764C57.2959 45.2526 58.1038 45.0863 59.5771 44.7773C60.0762 45.514 60.4445 46.3813 60.6821 47.3794C60.9198 48.3774 61.0386 49.3874 61.0386 50.4092C61.0386 51.8587 60.8485 53.2607 60.4683 54.6152C60.0881 55.946 59.6722 56.849 59.2207 57.3242C58.5078 57.443 57.6286 57.5024 56.583 57.5024C54.7295 57.5024 52.8641 57.241 50.9868 56.7183C49.1095 56.1955 47.3154 55.4469 45.6045 54.4727L45.4263 54.6509C46.3768 57.2886 47.1016 59.6411 47.6006 61.7085C48.0996 63.7759 48.3491 65.867 48.3491 67.9819C48.3491 68.6711 48.3135 69.3721 48.2422 70.085C48.1234 71.5345 47.4342 72.8415 46.1748 74.0059C44.9391 75.1702 43.4539 76.0851 41.7192 76.7505C39.9845 77.3921 38.3687 77.7129 36.8716 77.7129C35.4933 77.7129 34.1507 77.3446 32.8438 76.6079C31.5368 75.8713 30.3843 74.9683 29.3862 73.8989C28.4119 72.8296 27.6634 71.7959 27.1406 70.7979L29.4575 65.9146H37.7627L26.7842 32.3374C26.7604 32.1711 26.7485 31.9097 26.7485 31.5532C26.7485 30.0324 27.105 28.3571 27.8179 26.5273C28.5308 24.6738 29.4338 23.1886 30.5269 22.0718L46.5312 25.4224L59.1494 21.7866C60.2425 22.3569 61.0742 23.355 61.6445 24.7808C62.2148 26.2065 62.5 27.8105 62.5 29.5928C62.5 31.4938 62.1792 33.2879 61.5376 34.9751C60.896 36.6623 59.993 37.8979 58.8286 38.6821C54.1473 38.0168 48.5868 36.7573 42.147 34.9038L44.9629 47.4863Z" fill="white"/>
</mask>
<g mask="url(#mask0_97:2)">
</g>
<path d="M124.903 32.9072C124.812 34.3454 124.727 35.7682 124.651 37.1758C124.574 38.5833 124.475 40.0062 124.353 41.4443L114.622 41.9492V44.8408H123.067L122.608 51.9551L114.576 52.1846L114.622 65.7705L103.01 66L103.744 32.9072H124.903ZM152.97 43.877C152.97 45.0703 152.863 46.1566 152.649 47.1357C152.45 48.0996 152.129 48.987 151.685 49.7979C151.241 50.6087 150.668 51.3584 149.964 52.0469C149.26 52.7354 148.411 53.3932 147.417 54.0205L152.878 63.751L142.551 65.7705L139.017 55.9941L136.171 56.0859L135.758 65.6328H125.89C125.967 62.1445 126.035 58.6715 126.097 55.2139C126.173 51.7562 126.257 48.2832 126.349 44.7949C126.38 43.0355 126.41 41.2913 126.441 39.5625C126.472 37.8337 126.533 36.0895 126.625 34.3301C127.695 33.9323 128.751 33.6034 129.792 33.3433C130.832 33.0832 131.872 32.8843 132.913 32.7466C133.968 32.5936 135.032 32.4941 136.103 32.4482C137.189 32.387 138.298 32.3564 139.43 32.3564C141.174 32.3564 142.857 32.6012 144.479 33.0908C146.116 33.5651 147.562 34.2842 148.816 35.248C150.071 36.2119 151.073 37.4129 151.823 38.8511C152.588 40.2892 152.97 41.9645 152.97 43.877ZM142.689 44.6113C142.689 43.9688 142.597 43.3797 142.414 42.8442C142.245 42.3088 141.985 41.8498 141.633 41.4673C141.297 41.0695 140.868 40.7635 140.348 40.5493C139.843 40.3198 139.247 40.2051 138.558 40.2051C138.252 40.2051 137.954 40.228 137.663 40.2739C137.372 40.3045 137.089 40.3581 136.814 40.4346L136.447 48.9717H136.998C137.655 48.9717 138.321 48.8875 138.994 48.7192C139.683 48.5509 140.295 48.2909 140.83 47.939C141.381 47.5871 141.825 47.1357 142.161 46.585C142.513 46.0342 142.689 45.3763 142.689 44.6113ZM166.556 33.6875L164.95 64.9443L155.265 65.4492L154.347 34.3301L166.556 33.6875ZM196.597 33.8252L188.197 64.8525L176.814 65.4951L166.487 35.5234L177.365 34.5137L181.771 51.9551L186.04 33.1367L196.597 33.8252ZM209.288 33.6875L207.681 64.9443L197.997 65.4492L197.079 34.3301L209.288 33.6875ZM238.938 34.7432L229.988 49.3848L238.066 62.4658L228.473 65.4492L223.883 56.5449L219.018 65.9541L209.104 62.374L217.549 49.0635L209.838 35.9824L220.349 33.458L224.113 41.7656L228.106 33.458L238.938 34.7432Z" fill="white"/>
</svg>
