<svg width="456" height="503" viewBox="0 0 456 503" fill="none" xmlns="http://www.w3.org/2000/svg">
<path fill-rule="evenodd" clip-rule="evenodd" d="M244.084 502.761C361.119 502.761 456 495.783 456 487.179C456 478.575 361.125 471.598 244.084 471.598C127.042 471.598 32.1671 478.573 32.1671 487.179C32.1671 495.785 127.042 502.761 244.084 502.761Z" fill="#4B5D61" fill-opacity="0.1"/>
<path d="M432.452 460.644C430.928 465.782 423.894 469.202 422.946 475.479C422.63 478.083 421.568 480.539 419.888 482.553H397.989C398.211 481.347 399.17 480.051 402.015 479.427C408.1 478.095 410.391 470.723 410.017 463.876C409.884 460.886 409.903 457.892 410.073 454.905C410.265 450.984 410.587 447.906 410.587 447.906L423.516 444.87L424.873 446.617L426.175 448.297C426.175 448.297 433.971 455.517 432.452 460.644Z" fill="#6C63FF"/>
<path d="M330.478 482.558H286.17C287.635 480.987 289.619 479.999 291.756 479.778C298.577 478.673 310.379 474.718 313.014 465.994C313.099 465.71 313.176 465.426 313.241 465.141C315.33 455.826 330.543 467.996 330.543 467.996C330.543 467.996 330.588 468.37 330.66 469.001C330.927 471.624 331.512 478.74 330.478 482.56" fill="#6C63FF"/>
<path d="M293.572 235.735C293.572 235.735 295.879 264.556 298.597 299.201C302.292 346.263 306.721 404.077 307.159 415.019C307.921 434.036 310.963 464.453 310.963 464.453C310.963 464.453 318.184 471.679 332.64 468.635C332.64 468.635 345.517 425.211 349.2 379.27C349.256 378.513 349.311 377.757 349.372 376.996C352.789 330.224 358.108 231.743 358.108 231.743L293.572 235.735Z" fill="#28141A"/>
<path d="M304.112 239.157C304.112 239.157 345.75 343.542 373.129 392.588C400.507 441.634 409.065 455.332 409.065 455.332C409.065 455.332 424.752 449.055 426.175 444.776C426.175 444.776 415.704 350.078 397.374 326.994C387.01 313.95 374.84 274.805 374.27 261.12C373.7 247.435 370.565 220.334 370.565 220.334L304.112 239.157Z" fill="#28141A"/>
<path d="M325.471 78.0386C324.42 72.2883 323.781 66.4703 323.559 60.6289L344.686 43.6029C343.904 67.0138 358.905 78.2773 358.905 78.2773C358.905 78.2773 330.744 92.1286 314.478 86.9957C317.564 83.3639 321.291 80.3294 325.473 78.0429" fill="url(#paint0_linear_335_585)"/>
<path d="M347.986 47.9277C350.508 31.1475 355.675 20.424 338.621 16.8628C321.566 13.3015 316.682 16.7463 314.477 22.1421C313.094 26.5297 312.658 31.1606 313.198 35.7291C308.869 41.304 316.483 63.0338 320.117 64.2019C323.751 65.37 345.463 64.7064 347.986 47.9277Z" fill="url(#paint1_linear_335_585)"/>
<path d="M341.962 36.89C341.962 36.89 336.179 49.0885 333.621 51.2671C331.063 53.4456 325.521 46.2549 325.521 46.2549H316.757C315.292 48.7594 314.659 51.6642 314.95 54.5512C315.518 59.1569 319.166 66.062 319.166 66.062C322.761 68.5218 327.157 69.5235 331.463 68.8643C338.334 67.6138 341.754 64.0042 346.844 58.0811C349.09 55.4692 350.387 49.188 349.625 47.0734C348.659 44.3933 345.646 44.2171 345.646 42.3199C341.962 46.2549 341.962 36.89 341.962 36.89Z" fill="#190C1A"/>
<path d="M326.247 51.2672C323.998 52.7611 321.073 52.7611 318.825 51.2672" stroke="#79554B" stroke-width="1.23699" stroke-linecap="round"/>
<path d="M315.062 24.5988C315.062 24.5988 308.553 25.4514 311.182 18.4071C307.914 15.7269 307.316 9.94597 312.648 10.891C311.937 7.50881 314.921 4.80591 317.817 7.86692C317.915 1.85858 323.237 2.17406 325.555 4.6098C325.555 0.903614 331.382 -2.38619 336.689 2.62739C339.401 -1.09585 345.533 -1.02195 346.002 3.87936C351.26 0.0751229 357.245 3.9021 356.558 9.39601C356.558 9.39601 364.015 11.3699 360.279 19.7529C362.725 20.6595 362.819 27.9596 358.988 27.9596C361.934 29.9875 361.141 35.9532 357.781 35.3265C360.281 38.2795 359.538 41.1217 356.558 42.3197C358.988 44.8904 356.415 50.0319 353.667 48.6222C354.177 52.0569 345.394 51.7685 347.458 46.4692C345.988 44.4456 344.818 43.4366 345.173 42.3197C348.726 40.7423 349.206 33.1082 346.002 33.1082C342.797 33.1082 342.324 39.1265 341.017 37.2293C339.709 35.3322 336.996 28.6034 339.864 23.2956C338.406 24.7113 336.288 25.2118 334.35 24.5988C332.665 27.5276 327.494 27.3571 325.926 25.8152C321.356 26.0838 317.061 25.7214 315.062 24.5988Z" fill="#190C1A"/>
<path d="M359.581 28.2169C362.194 28.2169 364.311 26.0997 364.312 23.4875C364.312 20.8748 362.194 18.7567 359.581 18.7567" stroke="#242021" stroke-width="0.618493" stroke-linecap="round"/>
<path d="M310.219 18.6391C308.582 19.2347 307.739 21.0443 308.334 22.6808C308.93 24.3173 310.739 25.1611 312.376 24.5655" stroke="#242021" stroke-width="0.618493" stroke-linecap="round"/>
<path d="M311.795 9.34251C304.066 10.5103 308.471 19.413 310.108 18.8171" stroke="#242021" stroke-width="0.618493" stroke-linecap="round"/>
<path d="M224.192 94.8307L218.471 91.2879C214.076 85.088 205.634 83.346 199.144 87.3004C199.144 87.3004 194.321 90.377 197.555 92.9549C200.79 95.5327 199.927 94.0761 204.412 97.8079C208.897 101.54 214.705 102.874 218.454 100.816L223.257 100.362L224.185 94.8307" fill="#A16D3C"/>
<path d="M217.402 95.9361C218.876 91.3247 219.577 90.9182 219.577 90.9182C219.577 90.9182 265.847 96.3852 270.211 96.7077C274.575 97.0303 335.155 84.549 335.155 84.549L363.76 119.284C363.76 119.284 279.42 122.465 268.385 121.43C250.144 119.722 217.063 102.739 217.063 102.739C216.59 100.479 216.707 98.1362 217.401 95.9347" fill="#6C63FF"/>
<path d="M254.961 40.3497L152.985 24.1536C148.651 23.4718 144.583 26.4256 143.89 30.7574L139.376 59.1791C139.293 60.852 139.335 62.5289 139.503 64.1955L143.178 64.7426C143.387 64.7887 143.599 64.8205 143.813 64.8378C144.509 64.8916 145.209 64.7947 145.865 64.5536C149.365 63.2874 153.14 62.9779 156.8 63.6569C167.572 65.6677 175.005 75.5988 173.899 86.5008C173.303 92.2407 170.373 97.4832 165.797 100.998C161.22 104.514 155.4 105.992 149.7 105.087C145.417 104.415 141.449 102.429 138.345 99.4028C137.808 98.8724 137.106 98.541 136.355 98.4635L132.507 97.8865L127.718 132.561C127.392 134.615 127.895 136.714 129.117 138.397C130.339 140.08 132.179 141.208 134.233 141.534L163.366 146.161C164.624 146.357 165.69 147.193 166.183 148.367C166.675 149.542 166.523 150.888 165.781 151.923C163.889 154.572 162.64 157.625 162.133 160.841C161.127 167.223 163.107 173.714 167.505 178.447C171.903 183.181 178.231 185.632 184.67 185.096C191.789 184.587 199.826 178.618 202.406 171.965C204.218 167.394 204.385 162.336 202.877 157.656C202.496 156.478 202.756 155.187 203.562 154.248C204.369 153.309 205.606 152.857 206.828 153.056L236.139 157.711C240.414 158.39 244.43 155.476 245.109 151.201L261.321 49.1107C261.64 47.1052 261.148 45.0552 259.956 43.4119C258.763 41.7686 256.966 40.6665 254.96 40.3483" fill="#6C63FF"/>
<path d="M198.631 171.397C200.444 166.827 200.612 161.768 199.106 157.088C198.725 155.91 198.984 154.619 199.791 153.68C200.597 152.741 201.834 152.289 203.056 152.488L232.368 157.143C234.42 157.469 236.518 156.967 238.2 155.746C239.881 154.525 241.009 152.686 241.335 150.633L257.549 48.5427C258.212 44.3666 255.364 40.4437 251.188 39.7803L149.211 23.5856C144.878 22.9038 140.81 25.8576 140.116 30.1894L135.603 58.6111C135.332 60.3196 135.982 62.0443 137.314 63.1481C138.646 64.2519 140.462 64.5708 142.09 63.987C145.591 62.7208 149.366 62.4113 153.026 63.0903C163.798 65.1005 171.233 75.0303 170.128 85.9328C169.532 91.6731 166.602 96.9158 162.025 100.431C157.448 103.946 151.627 105.425 145.927 104.519C141.645 103.846 137.677 101.86 134.571 98.8349C133.675 97.9577 132.365 97.654 131.174 98.0476C129.983 98.4413 129.112 99.4665 128.915 100.705L123.942 131.99C123.263 136.266 126.178 140.283 130.453 140.963L159.585 145.59C160.843 145.787 161.909 146.623 162.401 147.797C162.894 148.971 162.742 150.317 162.001 151.352C160.107 154 158.857 157.054 158.353 160.27C157.344 166.654 159.325 173.149 163.726 177.883C168.127 182.618 174.459 185.068 180.9 184.528C188.018 184.019 196.055 178.05 198.631 171.397Z" fill="#323047"/>
<path d="M373.737 225.668C373.818 227.462 370.124 229.428 368.52 230.15C356.441 235.565 345.193 239.329 332.483 240.55C317.407 242.099 299.589 238.702 293.48 238.789C292.852 238.784 292.246 238.553 291.774 238.138C291.365 237.81 291.038 219.394 291.365 196.177C291.365 195.28 291.365 194.299 291.446 193.403V193.08C291.472 190.664 291.507 188.204 291.563 185.724C291.715 178.939 291.966 171.971 292.265 165.048C292.704 154.842 293.309 144.81 294.152 135.924C294.757 128.181 295.897 120.489 297.563 112.902C300.823 99.7845 308.32 91.1443 315.163 84.7892L320.783 79.8239C326.691 81.123 332.865 80.3749 338.292 77.7023C344.731 74.5247 351.74 71.1013 352.875 71.917C361.564 78.41 367.412 93.1494 370.409 111.882C372.078 122.818 372.866 133.87 372.765 144.932C372.749 149.431 372.609 153.999 372.351 158.609C371.37 178.16 371.667 197.755 373.239 217.268C373.487 220.854 373.683 223.704 373.74 225.667" fill="url(#paint2_linear_335_585)"/>
<path fill-rule="evenodd" clip-rule="evenodd" d="M320.232 79.6182C325.016 81.2126 334.587 82.0109 351.335 71.2449C352.531 70.0486 350.139 67.656 348.942 65.2635C342.961 71.2452 333.837 73.2373 326.214 73.6368C323.221 73.7937 322.625 76.0294 320.232 79.6182Z" fill="#30181C"/>
<path d="M292.567 184.588C292.709 177.802 291.752 156.877 292.567 147.984C293.411 147.533 316.119 125.937 316.847 125.691C332.899 120.217 353.501 111.379 353.501 111.379C353.501 111.379 339.882 171.044 292.567 184.588Z" fill="#242021" fill-opacity="0.22"/>
<path d="M217.398 132.873C204.001 132.873 196.821 149.926 200.463 152.808C204.105 155.69 214.262 156.374 216.777 152.808C219.292 149.243 222.724 142.75 222.724 142.75L224.39 134.029L217.398 132.873Z" fill="url(#paint3_linear_335_585)"/>
<path d="M219.046 137.581C219.274 132.439 222.014 131.897 222.014 131.897C222.014 131.897 274.949 128.395 279.515 127.51C284.081 126.624 326.244 91.6984 326.244 91.6984C326.244 91.6984 342.546 77.0314 353.97 81.9754C363.9 86.2728 367.008 94.7495 367.507 102.547C368.067 111.847 362.876 120.542 354.423 124.462C335.491 133.306 297.622 150.666 288.999 152.164C269.805 155.498 220.467 144.813 220.467 144.813C219.445 142.543 218.958 140.069 219.046 137.581Z" fill="#6C63FF"/>
<path d="M64.3016 425.921C64.0552 425.682 63.8087 425.436 63.5775 425.174C60.9238 422.264 59.3786 418.513 59.2127 414.578L58.6882 402.581C55.8223 382.976 38.511 364.254 38.424 364.166C3.29316 333.703 -9.22131 284.623 7.03331 241.058C7.95742 238.582 8.96178 236.154 10.0464 233.776V233.724C10.0903 228.666 19.0961 214.247 21.3468 214.266L31.177 214.351C31.867 214.357 32.5109 214.005 32.8782 213.421C33.2454 212.837 33.2835 212.104 32.9787 211.485C31.7581 209.024 31.4312 206.216 32.054 203.541C33.2513 199.32 36.5461 196.018 40.7646 194.812C45.2209 193.755 49.8855 195.382 52.7171 198.982C55.5487 202.582 56.0316 207.499 53.9546 211.581C53.6297 212.214 53.6564 212.971 54.0252 213.58C54.394 214.188 55.0521 214.563 55.764 214.568L72.2441 214.711C73.4056 214.721 74.5154 215.192 75.3295 216.021C76.1436 216.849 76.5953 217.967 76.5851 219.129L76.139 270.346C76.5383 273.195 77.4879 276.078 79.6918 276.078H140.059C143.836 276.078 145.158 273.456 145.615 271.446V255.057C145.616 254.364 145.257 253.72 144.667 253.357C144.077 252.993 143.34 252.962 142.722 253.274C140.265 254.52 137.452 254.872 134.764 254.27C130.523 253.106 127.186 249.831 125.941 245.614C124.84 241.154 126.429 236.461 130.015 233.589C133.6 230.717 138.527 230.191 142.638 232.239C143.276 232.558 144.034 232.524 144.64 232.149C145.247 231.774 145.616 231.112 145.615 230.398V213.871C145.615 211.445 147.583 209.477 150.01 209.477H167.754C168.454 209.48 169.095 209.872 169.416 210.494C169.737 211.117 169.686 211.866 169.282 212.439C165.934 217.194 166.562 223.682 170.758 227.709C174.955 231.735 181.463 232.093 186.077 228.551C190.69 225.009 192.025 218.63 189.219 213.535C188.751 212.686 188.768 211.652 189.262 210.818C189.756 209.983 190.654 209.472 191.623 209.472H197.322C200.797 209.472 212.199 226.292 212.199 232.474V232.579C213.491 235.33 214.676 238.148 215.754 241.032C232.009 284.599 219.495 333.679 184.364 364.144C184.276 364.231 166.961 382.953 164.099 402.558L163.621 414.562C163.455 418.497 161.91 422.249 159.256 425.159C159.026 425.421 158.779 425.668 158.533 425.906L64.3016 425.921Z" fill="#323047"/>
<path d="M115.881 495.384H106.921C83.253 495.381 64.0676 476.194 64.0676 452.525L64.0676 425.872H158.739V452.525C158.739 476.195 139.551 495.384 115.881 495.384Z" fill="#514846"/>
<path d="M159.447 281.629L143.895 264.728L131.133 282.605L111.564 242.206L92.2208 283.606L81.4133 264.728L65.9954 282.605" stroke="#323047" stroke-width="3" stroke-linecap="round" stroke-linejoin="round"/>
<path d="M128.271 433.277L128.713 433.387C131.034 433.952 133.383 432.195 133.964 429.458L165.252 282.718C165.822 279.977 164.41 277.299 162.092 276.723L161.656 276.614C159.335 276.049 156.986 277.806 156.405 280.543L125.117 427.283C124.547 430.02 125.956 432.698 128.271 433.277Z" fill="#FFFEFD"/>
<path d="M98.5264 432.341C96.0775 432.95 93.5918 431.104 92.9727 428.218L61.7702 281.964C61.1577 279.077 62.6397 276.245 65.085 275.63C67.5302 275.015 70.0185 276.866 70.6386 279.754L101.834 426.001C102.451 428.886 100.972 431.722 98.5264 432.341Z" fill="#FFFEFD"/>
<path d="M65.255 436.317H157.483C160.376 436.317 162.722 433.971 162.722 431.078C162.722 428.184 160.376 425.839 157.483 425.839H65.255C62.3616 425.839 60.016 428.184 60.016 431.078C60.016 433.971 62.3616 436.317 65.255 436.317Z" fill="#B6A68E"/>
<path d="M65.255 457.358H157.483C160.376 457.358 162.722 455.013 162.722 452.119C162.722 449.226 160.376 446.88 157.483 446.88H65.255C62.3616 446.88 60.016 449.226 60.016 452.119C60.016 455.013 62.3616 457.358 65.255 457.358Z" fill="#B6A68E"/>
<path d="M70.7089 480.875H152.029C154.923 480.875 157.268 478.529 157.268 475.636C157.268 472.742 154.923 470.397 152.029 470.397H70.7089C67.8155 470.397 65.4699 472.742 65.4699 475.636C65.4699 478.529 67.8155 480.875 70.7089 480.875Z" fill="#B6A68E"/>
<defs>
<linearGradient id="paint0_linear_335_585" x1="307.825" y1="79.4779" x2="338.931" y2="41.9771" gradientUnits="userSpaceOnUse">
<stop stop-color="#B3826E"/>
<stop offset="1" stop-color="#2D181B"/>
</linearGradient>
<linearGradient id="paint1_linear_335_585" x1="311.858" y1="38.9465" x2="385.351" y2="31.8988" gradientUnits="userSpaceOnUse">
<stop stop-color="#B3826E"/>
<stop offset="1" stop-color="#2D181B"/>
</linearGradient>
<linearGradient id="paint2_linear_335_585" x1="332.486" y1="71.795" x2="332.486" y2="240.955" gradientUnits="userSpaceOnUse">
<stop stop-color="#6C63FF"/>
<stop offset="1" stop-color="#653623"/>
</linearGradient>
<linearGradient id="paint3_linear_335_585" x1="195.796" y1="150.886" x2="211.017" y2="130.427" gradientUnits="userSpaceOnUse">
<stop stop-color="#B3826E"/>
<stop offset="1" stop-color="#2D181B"/>
</linearGradient>
</defs>
</svg>
